{"glyphs":{"0":{"ha":780,"x_min":78,"x_max":701,"o":"m 701 421 q 626 94 701 201 q 391 -14 551 -14 q 157 91 233 -14 q 78 404 81 196 l 78 572 q 153 895 78 789 q 389 1001 229 1001 q 624 899 549 1001 q 701 584 699 797 l 701 421 m 576 593 q 531 825 576 752 q 389 898 486 898 q 249 825 293 898 q 203 602 205 753 l 203 401 q 250 165 203 241 q 391 89 296 89 q 529 161 484 89 q 576 387 574 233 l 576 593 z "},"1":{"ha":780,"x_min":115,"x_max":494,"o":"m 494 0 l 368 0 l 368 836 l 115 743 l 115 857 l 475 992 l 494 992 l 494 0 z "},"2":{"ha":780,"x_min":63,"x_max":729,"o":"m 729 0 l 82 0 l 82 90 l 424 470 q 529 610 500 556 q 557 722 557 664 q 511 848 557 799 q 386 898 464 898 q 240 845 292 898 q 189 696 189 791 l 63 696 q 151 917 63 833 q 386 1001 239 1001 q 604 929 524 1001 q 684 736 684 857 q 498 389 684 591 l 233 102 l 729 102 l 729 0 z "},"3":{"ha":780,"x_min":64,"x_max":690,"o":"m 264 555 l 359 555 q 498 602 448 556 q 549 724 549 647 q 376 898 549 898 q 247 851 295 898 q 198 728 198 805 l 73 728 q 158 923 73 846 q 376 1001 244 1001 q 595 927 516 1001 q 675 722 675 853 q 633 597 675 657 q 519 507 591 536 q 645 421 601 481 q 690 275 690 361 q 603 64 690 142 q 377 -14 516 -14 q 151 62 238 -14 q 64 260 64 137 l 190 260 q 241 136 190 182 q 377 89 292 89 q 516 136 468 89 q 564 273 564 184 q 511 405 564 359 q 359 452 458 451 l 264 452 l 264 555 z "},"4":{"ha":780,"x_min":36,"x_max":749,"o":"m 612 332 l 749 332 l 749 229 l 612 229 l 612 0 l 486 0 l 486 229 l 36 229 l 36 303 l 478 987 l 612 987 l 612 332 m 178 332 l 486 332 l 486 816 l 471 789 l 178 332 z "},"5":{"ha":780,"x_min":104,"x_max":725,"o":"m 140 495 l 190 987 l 696 987 l 696 871 l 296 871 l 267 602 q 431 645 339 645 q 646 556 566 645 q 725 315 725 467 q 643 74 725 162 q 412 -14 560 -14 q 199 59 281 -14 q 104 260 116 132 l 223 260 q 283 132 235 175 q 412 89 332 89 q 550 149 500 89 q 600 313 600 208 q 546 472 600 412 q 402 532 492 532 q 273 496 320 532 l 240 469 l 140 495 z "},"6":{"ha":780,"x_min":90,"x_max":713,"o":"m 574 988 l 574 882 l 551 882 q 318 795 405 879 q 218 558 231 711 q 431 648 296 648 q 636 557 559 648 q 713 322 713 466 q 630 78 713 170 q 408 -14 547 -14 q 178 95 266 -14 q 90 376 90 204 l 90 424 q 206 841 90 696 q 552 988 322 985 l 574 988 m 410 543 q 291 505 345 543 q 216 408 237 466 l 216 361 q 271 165 216 239 q 408 90 326 90 q 541 153 492 90 q 589 316 589 215 q 540 480 589 418 q 410 543 491 543 z "},"7":{"ha":780,"x_min":52,"x_max":720,"o":"m 720 917 l 311 0 l 179 0 l 587 884 l 52 884 l 52 987 l 720 987 l 720 917 z "},"8":{"ha":780,"x_min":76,"x_max":704,"o":"m 681 730 q 642 598 681 656 q 536 508 603 541 q 659 411 614 475 q 704 267 704 347 q 617 62 704 138 q 390 -14 531 -14 q 162 63 248 -14 q 76 267 76 139 q 120 411 76 347 q 241 509 163 475 q 137 599 175 541 q 99 730 99 656 q 179 928 99 854 q 390 1001 259 1001 q 601 928 520 1001 q 681 730 681 854 m 578 269 q 526 404 578 352 q 389 456 473 456 q 253 405 304 456 q 201 269 201 353 q 251 137 201 185 q 390 89 301 89 q 528 137 478 89 q 578 269 578 186 m 390 898 q 270 852 316 898 q 224 728 224 806 q 270 606 224 652 q 390 559 315 559 q 510 606 465 559 q 555 728 555 652 q 509 850 555 803 q 390 898 462 898 z "},"9":{"ha":780,"x_min":68,"x_max":689,"o":"m 563 434 q 469 359 524 387 q 349 330 414 330 q 200 372 264 330 q 102 491 137 414 q 68 659 68 567 q 105 838 68 758 q 212 959 143 917 q 374 1001 281 1001 q 605 891 520 1001 q 689 593 689 782 l 689 556 q 575 135 689 268 q 231 -1 461 3 l 207 -1 l 207 105 l 233 105 q 472 186 389 108 q 563 434 555 264 m 370 434 q 486 473 433 434 q 564 568 539 511 l 564 618 q 510 819 564 742 q 374 897 456 897 q 241 833 292 897 q 191 666 191 770 q 240 499 191 565 q 370 434 288 434 z "},"\u0000":{"ha":0,"x_min":0,"x_max":0,"o":""},"\u0002":{"ha":0,"x_min":0,"x_max":0,"o":""},"\t":{"ha":344,"x_min":0,"x_max":0,"o":""},"\r":{"ha":344,"x_min":0,"x_max":0,"o":""}," ":{"ha":344,"x_min":0,"x_max":0,"o":""},"!":{"ha":357,"x_min":109,"x_max":257,"o":"m 235 279 l 122 279 l 113 987 l 245 987 l 235 279 m 109 63 q 127 114 109 94 q 182 135 146 135 q 238 114 219 135 q 257 63 257 94 q 238 13 257 33 q 182 -7 219 -7 q 127 13 146 -7 q 109 63 109 33 z "},"\"":{"ha":444,"x_min":92,"x_max":371,"o":"m 188 949 l 168 707 l 92 707 l 93 1042 l 188 1042 l 188 949 m 371 949 l 351 707 l 275 707 l 276 1042 l 371 1042 l 371 949 z "},"#":{"ha":855,"x_min":81,"x_max":838,"o":"m 519 278 l 340 278 l 286 0 l 189 0 l 243 278 l 81 278 l 81 371 l 260 371 l 307 611 l 132 611 l 132 705 l 326 705 l 381 987 l 478 987 l 422 705 l 602 705 l 657 987 l 755 987 l 699 705 l 838 705 l 838 611 l 681 611 l 634 371 l 787 371 l 787 278 l 616 278 l 562 0 l 465 0 l 519 278 m 357 371 l 536 371 l 583 611 l 404 611 l 357 371 z "},"$":{"ha":780,"x_min":75,"x_max":706,"o":"m 581 254 q 537 359 581 317 q 389 437 493 402 q 179 552 245 481 q 113 732 113 623 q 177 914 113 843 q 355 999 242 985 l 355 1147 l 456 1147 l 456 998 q 634 903 570 983 q 697 684 697 823 l 572 684 q 527 836 572 779 q 404 892 481 892 q 281 850 323 892 q 238 734 238 808 q 283 624 238 665 q 432 549 328 583 q 593 475 535 515 q 679 381 651 435 q 706 256 706 328 q 637 71 706 141 q 444 -12 568 1 l 444 -141 l 344 -141 l 344 -12 q 146 78 218 0 q 75 291 75 157 l 200 291 q 250 146 200 197 q 390 95 299 95 q 530 138 479 95 q 581 254 581 180 z "},"%":{"ha":1017,"x_min":71,"x_max":957,"o":"m 71 798 q 128 944 71 886 q 273 1002 184 1002 q 419 944 363 1002 q 475 793 475 886 l 475 745 q 419 599 475 656 q 275 543 362 543 q 129 599 186 543 q 71 750 71 656 l 71 798 m 165 745 q 195 658 165 692 q 275 624 224 624 q 352 657 323 624 q 382 748 382 690 l 382 798 q 353 885 382 850 q 273 920 323 920 q 194 885 223 920 q 165 795 165 850 l 165 745 m 552 242 q 609 388 552 331 q 754 446 665 446 q 900 389 843 446 q 957 237 957 332 l 957 189 q 900 43 957 100 q 755 -14 844 -14 q 610 42 667 -14 q 552 193 552 99 l 552 242 m 646 189 q 675 101 646 136 q 755 67 705 67 q 833 101 804 67 q 863 192 863 134 l 863 242 q 833 330 863 296 q 754 363 804 363 q 676 330 706 363 q 646 239 646 296 l 646 189 m 303 75 l 232 119 l 714 891 l 785 846 l 303 75 z "},"&":{"ha":863,"x_min":68,"x_max":859,"o":"m 68 265 q 108 396 68 336 q 260 535 148 456 q 172 664 194 615 q 149 761 149 713 q 216 937 149 873 q 396 1001 282 1001 q 564 942 498 1001 q 631 792 631 882 q 601 682 631 732 q 495 576 570 631 l 422 522 l 642 260 q 688 456 688 348 l 802 456 q 718 169 802 283 l 859 0 l 709 0 l 643 78 q 525 10 593 33 q 388 -14 458 -14 q 156 63 243 -14 q 68 265 68 140 m 388 89 q 570 165 488 89 l 330 453 l 307 437 q 194 265 194 353 q 246 137 194 185 q 388 89 298 89 m 275 765 q 355 602 275 700 l 435 659 q 498 721 481 691 q 515 792 515 750 q 481 868 515 838 q 395 898 447 898 q 307 860 340 898 q 275 765 275 823 z "},"'":{"ha":242,"x_min":70,"x_max":172,"o":"m 172 966 l 157 717 l 70 717 l 71 1042 l 172 1042 l 172 966 z "},"(":{"ha":475,"x_min":90,"x_max":448,"o":"m 90 401 q 131 695 90 554 q 254 951 172 836 q 422 1114 335 1067 l 448 1031 q 286 800 349 956 q 216 450 222 644 l 216 393 q 311 -62 216 131 q 448 -242 369 -177 l 422 -319 q 250 -151 332 -269 q 90 401 90 80 z "},")":{"ha":483,"x_min":26,"x_max":385,"o":"m 385 394 q 345 104 385 243 q 223 -152 305 -35 q 52 -319 142 -269 l 26 -242 q 194 6 130 -162 q 258 380 257 175 l 258 402 q 229 667 258 545 q 145 886 199 789 q 26 1038 92 983 l 52 1114 q 223 949 142 1065 q 344 693 304 833 q 385 394 385 553 z "},"*":{"ha":598,"x_min":19,"x_max":578,"o":"m 224 667 l 19 728 l 50 830 l 255 754 l 249 987 l 353 987 l 346 751 l 547 825 l 578 722 l 370 661 l 505 477 l 420 413 l 294 608 l 172 418 l 87 479 l 224 667 z "},"+":{"ha":787,"x_min":53,"x_max":730,"o":"m 454 530 l 730 530 l 730 411 l 454 411 l 454 99 l 328 99 l 328 411 l 53 411 l 53 530 l 328 530 l 328 818 l 454 818 l 454 530 z "},",":{"ha":273,"x_min":20,"x_max":209,"o":"m 91 -197 l 20 -148 q 86 35 83 -59 l 86 149 l 209 149 l 209 50 q 175 -87 209 -18 q 91 -197 142 -155 z "},"-":{"ha":383,"x_min":25,"x_max":356,"o":"m 356 368 l 25 368 l 25 471 l 356 471 l 356 368 z "},".":{"ha":366,"x_min":98,"x_max":254,"o":"m 98 66 q 117 120 98 98 q 175 142 136 142 q 234 120 214 142 q 254 66 254 98 q 234 14 254 35 q 175 -7 214 -7 q 117 14 136 -7 q 98 66 98 35 z "},"/":{"ha":572,"x_min":12,"x_max":532,"o":"m 120 -85 l 12 -85 l 425 987 l 532 987 l 120 -85 z "},":":{"ha":336,"x_min":91,"x_max":248,"o":"m 91 66 q 110 120 91 98 q 168 142 130 142 q 227 120 207 142 q 247 66 247 98 q 227 14 247 35 q 168 -7 207 -7 q 110 14 130 -7 q 91 66 91 35 m 92 665 q 111 719 92 697 q 169 741 130 741 q 228 719 208 741 q 248 665 248 697 q 228 612 248 633 q 169 591 208 591 q 111 612 130 591 q 92 665 92 633 z "},";":{"ha":294,"x_min":28,"x_max":231,"o":"m 75 665 q 95 719 75 697 q 153 741 114 741 q 211 719 191 741 q 231 665 231 697 q 211 612 231 633 q 153 591 191 591 q 95 612 114 591 q 75 665 75 633 m 99 -197 l 28 -148 q 94 35 92 -59 l 94 149 l 217 149 l 217 50 q 183 -87 217 -18 q 99 -197 150 -155 z "},"<":{"ha":706,"x_min":49,"x_max":604,"o":"m 179 437 l 604 265 l 604 132 l 49 389 l 49 488 l 604 745 l 604 612 l 179 437 z "},"=":{"ha":762,"x_min":103,"x_max":669,"o":"m 669 552 l 103 552 l 103 661 l 669 661 l 669 552 m 669 271 l 103 271 l 103 379 l 669 379 l 669 271 z "},">":{"ha":726,"x_min":91,"x_max":670,"o":"m 539 441 l 91 616 l 91 745 l 670 489 l 670 390 l 91 133 l 91 263 l 539 441 z "},"?":{"ha":656,"x_min":51,"x_max":601,"o":"m 242 278 q 260 406 243 359 q 330 509 277 452 l 418 601 q 475 739 475 665 q 438 851 475 810 q 330 891 401 891 q 218 854 260 891 q 176 756 176 818 l 51 756 q 129 933 52 866 q 330 1001 206 1001 q 529 932 458 1001 q 601 743 601 863 q 491 509 601 625 l 417 436 q 368 278 368 381 l 242 278 m 237 63 q 255 114 237 94 q 311 135 274 135 q 366 114 347 135 q 385 63 385 94 q 366 13 385 33 q 311 -7 347 -7 q 255 13 274 -7 q 237 63 237 33 z "},"@":{"ha":1247,"x_min":72,"x_max":1187,"o":"m 1179 340 q 1097 81 1171 176 q 901 -14 1024 -14 q 739 100 774 -14 q 655 15 702 43 q 557 -14 608 -14 q 412 65 461 -14 q 375 283 362 144 q 426 483 385 395 q 532 621 467 570 q 668 671 597 671 q 766 656 723 671 q 864 599 810 642 l 829 223 q 916 66 816 66 q 1040 142 992 66 q 1091 340 1087 218 q 993 743 1104 604 q 656 881 882 881 q 414 813 519 881 q 247 618 308 746 q 178 324 186 491 q 219 32 170 156 q 368 -157 268 -92 q 610 -222 468 -222 q 732 -208 671 -222 q 834 -169 793 -193 l 859 -247 q 748 -290 817 -273 q 607 -307 678 -307 q 315 -231 437 -307 q 133 -11 193 -155 q 80 324 72 132 q 163 660 88 511 q 368 889 239 808 q 659 970 496 970 q 948 895 827 970 q 1128 675 1069 819 q 1179 340 1187 532 m 483 283 q 501 135 473 186 q 588 83 528 83 q 666 118 629 83 q 728 217 704 153 l 729 223 l 760 564 q 679 584 722 584 q 548 503 600 584 q 483 283 496 422 z "},"A":{"ha":906,"x_min":19,"x_max":888,"o":"m 660 258 l 246 258 l 153 0 l 19 0 l 396 987 l 510 987 l 888 0 l 754 0 l 660 258 m 286 365 l 621 365 l 453 827 l 286 365 z "},"B":{"ha":865,"x_min":115,"x_max":787,"o":"m 115 0 l 115 987 l 437 987 q 679 921 598 987 q 760 724 760 854 q 721 602 760 655 q 614 519 682 549 q 740 434 694 497 q 787 285 787 372 q 701 76 787 152 q 457 0 614 0 l 115 0 m 245 462 l 245 106 l 460 106 q 603 154 551 106 q 656 283 656 201 q 462 462 656 462 l 245 462 m 245 566 l 441 566 q 578 609 527 566 q 629 725 629 652 q 582 843 629 806 q 437 880 534 880 l 245 880 l 245 566 z "},"C":{"ha":904,"x_min":81,"x_max":841,"o":"m 841 313 q 725 72 823 157 q 467 -14 628 -14 q 186 112 292 -14 q 81 448 81 237 l 81 543 q 130 785 81 680 q 269 945 179 889 q 478 1001 359 1001 q 730 913 635 1001 q 841 670 825 825 l 710 670 q 636 841 693 788 q 478 894 580 894 q 282 802 353 894 q 212 539 212 709 l 212 444 q 279 188 212 283 q 467 93 346 93 q 633 142 575 93 q 710 313 691 191 l 841 313 z "},"D":{"ha":911,"x_min":115,"x_max":829,"o":"m 115 0 l 115 987 l 393 987 q 621 930 522 987 q 774 768 720 873 q 829 527 828 663 l 829 464 q 775 219 829 324 q 621 58 721 114 q 388 0 521 1 l 115 0 m 245 880 l 245 106 l 382 106 q 616 200 532 106 q 700 467 700 294 l 700 524 q 621 786 700 692 q 397 880 542 879 l 245 880 z "},"E":{"ha":789,"x_min":115,"x_max":742,"o":"m 673 456 l 245 456 l 245 106 l 742 106 l 742 0 l 115 0 l 115 987 l 735 987 l 735 880 l 245 880 l 245 563 l 673 563 l 673 456 z "},"F":{"ha":768,"x_min":115,"x_max":726,"o":"m 659 436 l 245 436 l 245 0 l 115 0 l 115 987 l 726 987 l 726 880 l 245 880 l 245 543 l 659 543 l 659 436 z "},"G":{"ha":946,"x_min":83,"x_max":844,"o":"m 844 130 q 704 22 793 58 q 494 -14 614 -14 q 280 43 374 -14 q 135 204 186 100 q 83 446 84 309 l 83 532 q 187 878 83 755 q 479 1001 291 1001 q 728 922 634 1001 q 844 698 823 843 l 713 698 q 480 894 677 894 q 282 802 349 894 q 214 536 214 710 l 214 455 q 290 191 214 289 q 495 93 366 93 q 623 109 568 93 q 714 164 678 125 l 714 386 l 486 386 l 486 492 l 844 492 l 844 130 z "},"H":{"ha":990,"x_min":115,"x_max":873,"o":"m 873 0 l 743 0 l 743 456 l 245 456 l 245 0 l 115 0 l 115 987 l 245 987 l 245 563 l 743 563 l 743 987 l 873 987 l 873 0 z "},"I":{"ha":378,"x_min":124,"x_max":254,"o":"m 254 0 l 124 0 l 124 987 l 254 987 l 254 0 z "},"J":{"ha":766,"x_min":36,"x_max":659,"o":"m 528 987 l 659 987 l 659 288 q 574 66 659 146 q 347 -14 489 -14 q 118 62 200 -14 q 36 273 36 137 l 166 273 q 213 140 166 188 q 347 93 259 93 q 478 144 428 93 q 528 286 528 195 l 528 987 z "},"K":{"ha":871,"x_min":115,"x_max":871,"o":"m 366 459 l 245 334 l 245 0 l 115 0 l 115 987 l 245 987 l 245 499 l 684 987 l 841 987 l 452 551 l 871 0 l 715 0 l 366 459 z "},"L":{"ha":747,"x_min":115,"x_max":713,"o":"m 245 106 l 713 106 l 713 0 l 115 0 l 115 987 l 245 987 l 245 106 z "},"M":{"ha":1213,"x_min":115,"x_max":1097,"o":"m 283 987 l 606 182 l 928 987 l 1097 987 l 1097 0 l 967 0 l 967 385 l 979 800 l 655 0 l 555 0 l 232 798 l 245 385 l 245 0 l 115 0 l 115 987 l 283 987 z "},"N":{"ha":990,"x_min":115,"x_max":873,"o":"m 873 0 l 743 0 l 245 761 l 245 0 l 115 0 l 115 987 l 245 987 l 744 223 l 744 987 l 873 987 l 873 0 z "},"O":{"ha":955,"x_min":80,"x_max":874,"o":"m 874 462 q 825 209 874 317 q 687 43 777 100 q 478 -14 597 -14 q 271 44 361 -14 q 131 207 181 101 q 80 453 81 313 l 80 524 q 130 776 80 667 q 270 943 179 885 q 477 1001 360 1001 q 686 944 595 1001 q 825 778 777 886 q 874 524 874 669 l 874 462 m 745 526 q 674 795 745 701 q 477 889 604 889 q 282 795 353 889 q 210 534 212 701 l 210 462 q 281 194 210 292 q 478 97 353 97 q 673 189 604 97 q 745 452 743 281 l 745 526 z "},"P":{"ha":876,"x_min":115,"x_max":825,"o":"m 245 387 l 245 0 l 115 0 l 115 987 l 479 987 q 733 905 641 987 q 825 686 825 822 q 735 464 825 542 q 477 387 645 387 l 245 387 m 245 493 l 479 493 q 639 542 583 493 q 694 684 694 591 q 639 825 694 772 q 486 880 583 878 l 245 880 l 245 493 z "},"Q":{"ha":955,"x_min":74,"x_max":872,"o":"m 869 462 q 823 215 869 319 q 696 54 778 112 l 872 -85 l 783 -167 l 575 -1 q 472 -14 526 -14 q 265 44 355 -14 q 125 207 175 101 q 74 453 75 313 l 74 524 q 123 776 74 667 q 263 943 173 885 q 471 1001 354 1001 q 681 943 590 1001 q 820 778 771 886 q 869 525 869 669 l 869 462 m 739 526 q 669 794 739 700 q 471 889 600 889 q 277 795 348 889 q 204 534 206 701 l 204 462 q 275 195 204 292 q 472 97 346 97 q 667 189 598 97 q 739 452 736 281 l 739 526 z "},"R":{"ha":855,"x_min":114,"x_max":831,"o":"m 477 399 l 245 399 l 245 0 l 114 0 l 114 987 l 441 987 q 697 911 608 987 q 787 690 787 836 q 738 530 787 598 q 599 427 688 461 l 831 8 l 831 0 l 691 0 l 477 399 m 245 506 l 445 506 q 599 556 542 506 q 656 690 656 606 q 602 831 656 782 q 444 880 547 880 l 245 880 l 245 506 z "},"S":{"ha":824,"x_min":54,"x_max":772,"o":"m 406 440 q 162 558 238 488 q 85 732 85 629 q 179 925 85 848 q 421 1001 272 1001 q 603 962 523 1001 q 726 853 682 922 q 770 702 770 784 l 639 702 q 582 843 639 791 q 421 894 525 894 q 271 851 325 894 q 217 734 217 809 q 268 632 217 673 q 443 555 319 590 q 635 479 566 521 q 738 382 705 437 q 772 251 772 326 q 678 59 772 131 q 428 -14 585 -14 q 238 25 326 -14 q 102 132 150 64 q 54 286 54 200 l 185 286 q 251 145 185 197 q 428 93 317 93 q 586 135 531 93 q 641 250 641 177 q 590 362 641 322 q 406 440 539 401 z "},"T":{"ha":829,"x_min":33,"x_max":797,"o":"m 797 880 l 479 880 l 479 0 l 350 0 l 350 880 l 33 880 l 33 987 l 797 987 l 797 880 z "},"U":{"ha":901,"x_min":95,"x_max":810,"o":"m 810 987 l 810 316 q 722 87 809 176 q 486 -12 635 -1 l 451 -14 q 193 74 289 -14 q 95 315 96 161 l 95 987 l 224 987 l 224 319 q 283 152 224 212 q 451 93 342 93 q 620 152 562 93 q 679 318 679 211 l 679 987 l 810 987 z "},"V":{"ha":884,"x_min":19,"x_max":866,"o":"m 441 173 l 724 987 l 866 987 l 500 0 l 385 0 l 19 987 l 161 987 l 441 173 z "},"W":{"ha":1232,"x_min":41,"x_max":1202,"o":"m 328 311 l 347 181 l 374 298 l 570 987 l 680 987 l 870 298 l 897 179 l 918 312 l 1072 987 l 1202 987 l 963 0 l 844 0 l 641 720 l 625 795 l 610 720 l 399 0 l 280 0 l 41 987 l 172 987 l 328 311 z "},"X":{"ha":871,"x_min":39,"x_max":834,"o":"m 437 609 l 673 987 l 827 987 l 515 498 l 834 0 l 680 0 l 437 385 l 193 0 l 39 0 l 359 498 l 46 987 l 199 987 l 437 609 z "},"Y":{"ha":834,"x_min":10,"x_max":821,"o":"m 416 492 l 673 987 l 821 987 l 481 368 l 481 0 l 351 0 l 351 368 l 10 987 l 159 987 l 416 492 z "},"Z":{"ha":831,"x_min":58,"x_max":777,"o":"m 212 106 l 777 106 l 777 0 l 58 0 l 58 98 l 600 880 l 67 880 l 67 987 l 755 987 l 755 892 l 212 106 z "},"[":{"ha":368,"x_min":99,"x_max":355,"o":"m 355 1025 l 225 1025 l 225 -109 l 355 -109 l 355 -212 l 99 -212 l 99 1128 l 355 1128 l 355 1025 z "},"\\":{"ha":570,"x_min":27,"x_max":559,"o":"m 27 987 l 146 987 l 559 -85 l 439 -85 l 27 987 z "},"]":{"ha":368,"x_min":6,"x_max":262,"o":"m 6 1128 l 262 1128 l 262 -212 l 6 -212 l 6 -109 l 137 -109 l 137 1025 l 6 1025 l 6 1128 z "},"^":{"ha":581,"x_min":43,"x_max":534,"o":"m 289 821 l 160 494 l 43 494 l 246 987 l 332 987 l 534 494 l 418 494 l 289 821 z "},"_":{"ha":627,"x_min":3,"x_max":624,"o":"m 624 -102 l 3 -102 l 3 0 l 624 0 l 624 -102 z "},"`":{"ha":429,"x_min":39,"x_max":321,"o":"m 321 842 l 214 842 l 39 1042 l 190 1042 l 321 842 z "},"a":{"ha":755,"x_min":74,"x_max":680,"o":"m 548 0 q 530 77 537 22 q 321 -14 443 -14 q 143 48 213 -14 q 74 203 74 109 q 161 381 74 318 q 406 445 248 445 l 528 445 l 528 503 q 489 607 528 568 q 373 646 450 646 q 260 612 306 646 q 215 530 215 578 l 89 530 q 128 636 89 585 q 234 718 167 688 q 380 747 300 747 q 579 684 507 747 q 654 509 651 621 l 654 172 q 680 11 654 71 l 680 0 l 548 0 m 340 96 q 452 126 399 96 q 528 205 505 157 l 528 356 l 430 356 q 199 221 199 356 q 239 129 199 162 q 340 96 278 96 z "},"b":{"ha":779,"x_min":95,"x_max":716,"o":"m 716 359 q 639 89 716 191 q 431 -14 562 -14 q 216 85 292 -14 l 210 0 l 95 0 l 95 1042 l 220 1042 l 220 653 q 430 747 296 747 q 640 646 564 747 q 716 370 716 545 l 716 359 m 591 373 q 541 571 591 501 q 399 641 492 641 q 220 526 275 641 l 220 208 q 400 93 278 93 q 541 163 490 93 q 591 373 591 233 z "},"c":{"ha":727,"x_min":62,"x_max":681,"o":"m 389 89 q 507 130 456 89 q 562 231 557 170 l 681 231 q 637 111 677 168 q 531 20 597 54 q 389 -14 464 -14 q 151 86 239 -14 q 62 360 62 186 l 62 381 q 102 572 62 488 q 215 701 141 655 q 389 747 288 747 q 594 673 512 747 q 681 481 675 600 l 562 481 q 508 598 557 553 q 389 644 460 644 q 240 575 293 644 q 188 376 188 507 l 188 353 q 240 157 188 226 q 389 89 292 89 z "},"d":{"ha":783,"x_min":64,"x_max":684,"o":"m 64 373 q 144 645 64 542 q 354 747 224 747 q 558 659 483 747 l 558 1042 l 684 1042 l 684 0 l 568 0 l 562 79 q 353 -14 487 -14 q 145 91 225 -14 q 64 363 64 195 l 64 373 m 190 359 q 241 163 190 234 q 384 93 293 93 q 558 200 503 93 l 558 537 q 385 641 502 641 q 241 570 293 641 q 190 359 190 498 z "},"e":{"ha":736,"x_min":63,"x_max":686,"o":"m 399 -14 q 157 84 250 -14 q 63 347 63 182 l 63 370 q 105 565 63 479 q 221 699 146 650 q 384 747 296 747 q 606 653 527 747 q 686 383 686 559 l 686 331 l 189 331 q 252 156 191 222 q 406 89 313 89 q 519 116 473 89 q 600 188 565 143 l 676 128 q 399 -14 584 -14 m 384 644 q 256 589 308 644 q 193 434 205 534 l 560 434 l 560 444 q 509 592 555 539 q 384 644 463 644 z "},"f":{"ha":482,"x_min":41,"x_max":484,"o":"m 157 0 l 157 637 l 41 637 l 41 734 l 157 734 l 157 809 q 220 991 157 927 q 398 1056 283 1056 q 484 1044 441 1056 l 477 943 q 410 949 446 949 q 315 913 349 949 q 282 811 282 878 l 282 734 l 439 734 l 439 637 l 282 637 l 282 0 l 157 0 z "},"g":{"ha":779,"x_min":65,"x_max":685,"o":"m 65 373 q 144 646 65 545 q 355 747 224 747 q 564 652 489 747 l 570 734 l 685 734 l 685 18 q 601 -207 685 -125 q 374 -289 516 -289 q 218 -255 294 -289 q 102 -162 142 -221 l 168 -87 q 365 -186 248 -186 q 508 -135 456 -186 q 559 10 559 -83 l 559 73 q 353 -14 484 -14 q 145 90 224 -14 q 65 373 65 194 m 191 359 q 242 164 191 235 q 385 93 293 93 q 559 201 503 93 l 559 536 q 386 641 501 641 q 243 570 294 641 q 191 359 191 498 z "},"h":{"ha":765,"x_min":95,"x_max":672,"o":"m 220 645 q 437 747 304 747 q 672 485 670 747 l 672 0 l 547 0 l 547 486 q 510 603 546 565 q 399 641 475 641 q 292 608 338 641 q 220 523 246 576 l 220 0 l 95 0 l 95 1042 l 220 1042 l 220 645 z "},"i":{"ha":337,"x_min":96,"x_max":244,"o":"m 231 0 l 106 0 l 106 734 l 231 734 l 231 0 m 96 928 q 114 980 96 959 q 170 1001 133 1001 q 225 980 206 1001 q 244 928 244 959 q 225 878 244 898 q 170 857 206 857 q 114 878 133 857 q 96 928 96 898 z "},"j":{"ha":332,"x_min":-44,"x_max":234,"o":"m 224 734 l 224 -85 q 33 -296 224 -296 q -44 -284 -9 -296 l -44 -184 q 13 -189 -22 -189 q 77 -166 55 -189 q 99 -87 99 -144 l 99 734 l 224 734 m 86 928 q 105 980 86 958 q 159 1001 123 1001 q 215 980 196 1001 q 234 928 234 959 q 215 878 234 898 q 159 857 196 857 q 104 878 123 857 q 86 928 86 898 z "},"k":{"ha":704,"x_min":96,"x_max":703,"o":"m 300 340 l 221 258 l 221 0 l 96 0 l 96 1042 l 221 1042 l 221 412 l 288 492 l 517 734 l 669 734 l 384 427 l 703 0 l 555 0 l 300 340 z "},"l":{"ha":337,"x_min":106,"x_max":231,"o":"m 231 0 l 106 0 l 106 1042 l 231 1042 l 231 0 z "},"m":{"ha":1217,"x_min":94,"x_max":1123,"o":"m 213 734 l 216 652 q 434 747 297 747 q 644 629 588 747 q 739 715 680 682 q 878 747 798 747 q 1123 492 1119 747 l 1123 0 l 998 0 l 998 484 q 962 602 998 563 q 841 641 926 641 q 725 599 771 641 q 671 487 679 557 l 671 0 l 545 0 l 545 481 q 389 641 545 641 q 220 536 265 641 l 220 0 l 94 0 l 94 734 l 213 734 z "},"n":{"ha":766,"x_min":95,"x_max":672,"o":"m 214 734 l 218 642 q 437 747 302 747 q 672 485 670 747 l 672 0 l 547 0 l 547 486 q 510 603 546 565 q 399 641 475 641 q 292 608 338 641 q 220 523 246 576 l 220 0 l 95 0 l 95 734 l 214 734 z "},"o":{"ha":792,"x_min":62,"x_max":730,"o":"m 62 374 q 104 568 62 481 q 222 701 146 654 q 395 747 298 747 q 637 644 545 747 q 730 368 730 540 l 730 359 q 689 166 730 252 q 571 34 648 81 q 396 -14 495 -14 q 154 90 247 -14 q 62 365 62 194 l 62 374 m 188 359 q 244 163 188 237 q 396 89 301 89 q 548 164 492 89 q 604 374 604 239 q 547 569 604 494 q 395 644 490 644 q 245 570 302 644 q 188 359 188 496 z "},"p":{"ha":779,"x_min":95,"x_max":715,"o":"m 715 359 q 638 89 715 191 q 431 -14 562 -14 q 220 71 297 -14 l 220 -282 l 95 -282 l 95 734 l 210 734 l 216 652 q 429 747 292 747 q 638 648 561 747 q 715 370 715 548 l 715 359 m 589 373 q 536 569 589 497 q 391 641 484 641 q 220 540 277 641 l 220 189 q 393 89 277 89 q 536 160 483 89 q 589 373 589 232 z "},"q":{"ha":789,"x_min":64,"x_max":683,"o":"m 64 373 q 144 647 64 546 q 357 747 223 747 q 562 660 487 747 l 568 734 l 683 734 l 683 -282 l 557 -282 l 557 68 q 355 -14 481 -14 q 143 90 222 -14 q 64 364 64 193 l 64 373 m 190 359 q 243 161 190 233 q 387 89 296 89 q 557 188 498 89 l 557 547 q 388 644 498 644 q 243 572 297 644 q 190 359 190 500 z "},"r":{"ha":470,"x_min":95,"x_max":450,"o":"m 450 621 q 388 626 421 626 q 220 521 264 626 l 220 0 l 95 0 l 95 734 l 217 734 l 219 649 q 394 747 281 747 q 450 738 431 747 l 450 621 z "},"s":{"ha":716,"x_min":64,"x_max":648,"o":"m 522 195 q 484 274 522 245 q 350 322 446 302 q 199 371 255 342 q 116 439 143 399 q 90 532 90 478 q 166 685 90 623 q 361 747 242 747 q 563 683 486 747 q 641 518 641 618 l 515 518 q 471 607 515 570 q 361 644 427 644 q 254 614 292 644 q 215 536 215 585 q 251 468 215 491 q 381 424 287 445 q 533 374 475 403 q 620 303 591 345 q 648 203 648 262 q 569 46 648 105 q 365 -14 490 -14 q 209 18 277 -14 q 103 105 141 49 q 64 226 64 161 l 190 226 q 240 126 193 163 q 365 89 288 89 q 479 118 436 89 q 522 195 522 146 z "},"t":{"ha":454,"x_min":6,"x_max":406,"o":"m 265 911 l 265 734 l 402 734 l 402 637 l 265 637 l 265 182 q 283 116 265 138 q 346 94 302 94 q 406 102 368 94 l 406 0 q 309 -14 356 -14 q 182 37 225 -14 q 140 182 140 88 l 140 637 l 6 637 l 6 734 l 140 734 l 140 911 l 265 911 z "},"u":{"ha":766,"x_min":92,"x_max":670,"o":"m 548 73 q 333 -14 475 -14 q 154 55 216 -14 q 92 256 93 123 l 92 734 l 218 734 l 218 260 q 353 93 218 93 q 545 200 497 93 l 545 734 l 670 734 l 670 0 l 551 0 l 548 73 z "},"v":{"ha":673,"x_min":22,"x_max":647,"o":"m 337 170 l 519 734 l 647 734 l 384 0 l 288 0 l 22 734 l 151 734 l 337 170 z "},"w":{"ha":1044,"x_min":29,"x_max":1011,"o":"m 745 173 l 886 734 l 1011 734 l 798 0 l 696 0 l 517 556 l 344 0 l 242 0 l 29 734 l 154 734 l 298 184 l 469 734 l 570 734 l 745 173 z "},"x":{"ha":688,"x_min":28,"x_max":658,"o":"m 341 466 l 504 734 l 650 734 l 410 371 l 658 0 l 513 0 l 343 275 l 174 0 l 28 0 l 275 371 l 35 734 l 180 734 l 341 466 z "},"y":{"ha":657,"x_min":15,"x_max":640,"o":"m 335 184 l 506 734 l 640 734 l 345 -113 q 127 -296 277 -296 l 104 -294 l 57 -286 l 57 -184 l 91 -186 q 190 -161 155 -186 q 249 -66 226 -135 l 277 8 l 15 734 l 152 734 l 335 184 z "},"z":{"ha":688,"x_min":60,"x_max":642,"o":"m 213 102 l 642 102 l 642 0 l 60 0 l 60 92 l 465 630 l 66 630 l 66 734 l 622 734 l 622 645 l 213 102 z "},"{":{"ha":470,"x_min":43,"x_max":454,"o":"m 429 -248 q 248 -137 309 -214 q 187 68 187 -59 l 187 203 q 43 368 187 368 l 43 467 q 187 631 187 467 l 187 772 q 248 972 189 896 q 429 1083 307 1048 l 454 1005 q 313 768 313 960 l 313 631 q 199 417 313 477 q 313 201 313 356 l 313 61 q 454 -170 315 -125 l 429 -248 z "},"|":{"ha":338,"x_min":119,"x_max":220,"o":"m 220 -183 l 119 -183 l 119 987 l 220 987 l 220 -183 z "},"}":{"ha":470,"x_min":13,"x_max":425,"o":"m 13 -170 q 155 54 151 -126 l 155 203 q 278 417 155 360 q 155 631 155 473 l 155 768 q 14 1005 155 960 l 39 1083 q 220 973 159 1049 q 281 771 280 897 l 281 629 q 425 467 281 467 l 425 368 q 281 203 281 368 l 281 66 q 219 -138 281 -61 q 39 -248 158 -214 l 13 -170 z "},"~":{"ha":945,"x_min":89,"x_max":857,"o":"m 857 527 q 793 346 857 420 q 637 273 730 273 q 545 291 588 273 q 444 359 501 309 q 361 421 387 409 q 308 433 336 433 q 227 397 255 433 q 198 297 198 361 l 89 296 q 151 474 89 404 q 308 544 214 544 q 407 522 359 544 q 514 446 454 500 q 617 385 574 391 l 637 383 q 721 422 688 383 q 753 526 753 462 l 857 527 z "},"¡":{"ha":338,"x_min":94,"x_max":243,"o":"m 115 464 l 229 464 l 238 -244 l 106 -244 l 115 464 m 243 675 q 224 624 243 645 q 169 603 205 603 q 113 624 132 603 q 94 675 94 645 q 113 726 94 706 q 169 747 132 747 q 224 726 205 747 q 243 675 243 706 z "},"¢":{"ha":760,"x_min":71,"x_max":690,"o":"m 397 89 q 515 130 465 89 q 571 231 566 171 l 690 231 q 618 78 686 146 q 454 -8 551 9 l 454 -166 l 328 -166 l 328 -7 q 139 112 207 16 q 71 357 71 208 l 71 381 q 140 622 71 525 q 328 741 208 718 l 328 894 l 454 894 l 454 743 q 621 655 555 727 q 690 481 686 583 l 571 481 q 517 598 566 553 q 397 644 469 644 q 249 575 302 644 q 197 376 197 507 l 197 353 q 249 157 197 226 q 397 89 302 89 z "},"£":{"ha":807,"x_min":62,"x_max":765,"o":"m 304 422 l 310 273 q 268 106 310 168 l 765 106 l 764 0 l 64 0 l 64 106 l 117 106 q 161 157 144 113 q 179 267 178 201 l 179 272 l 174 422 l 62 422 l 62 528 l 170 528 l 164 705 q 247 920 164 840 q 466 1001 330 1001 q 670 929 595 1001 q 745 737 745 857 l 616 737 q 573 852 616 810 q 454 894 530 894 q 339 842 383 894 q 295 705 295 789 l 301 528 l 517 528 l 517 422 l 304 422 z "},"¤":{"ha":990,"x_min":71,"x_max":930,"o":"m 748 76 q 498 -14 640 -14 q 250 75 358 -14 l 159 -18 l 71 74 l 165 170 q 95 412 95 275 q 171 663 95 552 l 71 765 l 159 857 l 259 755 q 498 837 366 837 q 739 755 631 837 l 840 858 l 930 765 l 827 661 q 902 412 902 550 q 833 172 902 279 l 930 74 l 840 -18 l 748 76 m 211 412 q 250 257 211 329 q 355 144 289 185 q 498 102 422 102 q 642 144 575 102 q 746 257 708 186 q 785 412 785 329 q 746 567 785 495 q 641 679 708 638 q 498 720 574 720 q 355 680 422 720 q 250 567 289 639 q 211 412 211 495 z "},"¥":{"ha":729,"x_min":10,"x_max":719,"o":"m 366 538 l 574 987 l 719 987 l 470 499 l 647 499 l 647 414 l 427 414 l 427 302 l 647 302 l 647 218 l 427 218 l 427 0 l 296 0 l 296 218 l 81 218 l 81 302 l 296 302 l 296 414 l 81 414 l 81 499 l 259 499 l 10 987 l 157 987 l 366 538 z "},"¦":{"ha":333,"x_min":100,"x_max":226,"o":"m 100 -183 l 100 353 l 226 353 l 226 -183 l 100 -183 m 226 473 l 100 473 l 100 987 l 226 987 l 226 473 z "},"§":{"ha":852,"x_min":61,"x_max":777,"o":"m 777 292 q 650 106 777 164 q 722 27 697 73 q 746 -87 746 -19 q 658 -268 746 -201 q 415 -336 570 -336 q 271 -317 339 -336 q 155 -259 203 -298 q 61 -43 61 -182 l 187 -42 q 248 -181 187 -130 q 415 -233 309 -233 q 564 -193 507 -233 q 620 -88 620 -153 q 572 8 620 -28 q 382 85 524 43 q 193 156 258 118 q 97 246 128 193 q 65 374 65 298 q 189 559 65 500 q 120 639 144 593 q 96 753 96 685 q 186 933 96 865 q 427 1001 277 1001 q 673 924 585 1001 q 761 709 761 848 l 635 709 q 578 846 635 793 q 427 899 522 899 q 276 860 331 899 q 222 754 222 821 q 241 680 222 707 q 306 631 260 653 q 449 582 351 609 q 603 530 546 555 q 699 473 661 506 q 757 396 737 440 q 777 292 777 353 m 408 469 q 296 503 347 485 q 217 456 242 490 q 191 375 191 422 q 210 300 191 328 q 273 251 228 273 q 414 201 318 229 q 541 161 511 173 q 622 209 593 175 q 650 290 650 243 q 603 387 650 350 q 408 469 556 424 z "},"¨":{"ha":581,"x_min":68,"x_max":509,"o":"m 68 930 q 87 981 68 960 q 142 1002 106 1002 q 198 981 179 1002 q 217 930 217 960 q 198 879 217 899 q 142 859 179 859 q 87 879 106 859 q 68 930 68 899 m 360 928 q 379 980 360 959 q 434 1001 397 1001 q 490 980 471 1001 q 509 928 509 959 q 490 878 509 898 q 434 857 471 857 q 379 878 397 857 q 360 928 360 898 z "},"©":{"ha":1091,"x_min":62,"x_max":1024,"o":"m 759 405 q 700 247 759 301 q 534 192 642 192 q 364 263 428 192 q 300 458 300 335 l 300 533 q 365 724 300 652 q 534 795 429 795 q 701 740 643 795 q 760 583 760 684 l 661 583 q 628 679 661 650 q 534 708 596 708 q 434 661 471 708 q 397 531 397 614 l 397 454 q 434 326 397 373 q 534 279 471 279 q 628 308 597 279 q 660 405 660 336 l 759 405 m 140 494 q 194 278 140 378 q 341 123 248 179 q 543 66 435 66 q 745 123 652 66 q 892 278 838 179 q 946 494 946 378 q 892 708 946 610 q 746 863 839 806 q 543 920 652 920 q 341 864 435 920 q 194 709 248 808 q 140 494 140 610 m 62 494 q 125 749 62 631 q 301 933 189 866 q 543 1001 413 1001 q 785 933 673 1001 q 961 749 897 866 q 1024 494 1024 631 q 963 244 1024 361 q 790 57 902 127 q 543 -14 677 -14 q 297 56 410 -14 q 123 243 185 126 q 62 494 62 359 z "},"ª":{"ha":621,"x_min":100,"x_max":531,"o":"m 419 478 q 407 527 411 501 q 269 469 355 469 q 144 511 188 469 q 100 623 100 553 q 156 739 100 698 q 330 779 213 779 l 403 779 l 403 814 q 319 906 403 906 q 245 888 272 906 q 218 835 218 869 l 109 843 q 168 957 109 913 q 319 1001 226 1001 q 461 952 409 1001 q 513 813 513 904 l 513 599 q 531 478 513 533 l 419 478 m 295 562 q 354 575 324 562 q 403 607 384 589 l 403 703 l 327 703 q 240 681 271 703 q 210 625 210 660 q 295 562 210 562 z "},"«":{"ha":652,"x_min":69,"x_max":589,"o":"m 190 372 l 365 102 l 269 102 l 69 366 l 69 378 l 269 642 l 365 642 l 190 372 m 414 372 l 589 102 l 493 102 l 293 366 l 293 378 l 493 642 l 589 642 l 414 372 z "},"¬":{"ha":769,"x_min":86,"x_max":650,"o":"m 650 254 l 524 254 l 524 433 l 86 433 l 86 543 l 650 543 l 650 254 z "},"®":{"ha":1092,"x_min":61,"x_max":1023,"o":"m 61 494 q 124 749 61 631 q 300 933 188 866 q 543 1001 412 1001 q 785 933 673 1001 q 960 749 897 866 q 1023 494 1023 631 q 962 244 1023 361 q 789 57 901 127 q 543 -14 677 -14 q 297 56 409 -14 q 123 243 184 126 q 61 494 61 359 m 139 494 q 193 278 139 378 q 341 123 248 179 q 543 66 434 66 q 745 124 652 66 q 892 279 839 181 q 945 494 945 378 q 892 708 945 610 q 745 863 839 806 q 543 920 652 920 q 340 864 434 920 q 193 709 247 808 q 139 494 139 610 m 443 444 l 443 214 l 347 214 l 347 790 l 534 790 q 695 746 638 790 q 753 616 753 701 q 666 489 753 533 q 749 351 749 455 l 749 309 q 761 225 749 251 l 761 214 l 663 214 q 653 301 653 239 q 651 376 653 364 q 562 444 640 441 l 443 444 m 443 530 l 549 530 q 627 554 597 532 q 657 613 657 576 q 631 683 657 663 q 536 704 604 704 l 443 704 l 443 530 z "},"¯":{"ha":636,"x_min":96,"x_max":552,"o":"m 552 883 l 96 883 l 96 980 l 552 980 l 552 883 z "},"°":{"ha":519,"x_min":88,"x_max":431,"o":"m 88 825 q 139 948 88 895 q 261 1001 189 1001 q 381 948 332 1001 q 431 825 431 896 q 381 702 431 753 q 261 651 332 651 q 139 702 190 651 q 88 825 88 753 m 261 738 q 323 762 298 738 q 348 825 348 786 q 323 889 348 864 q 261 915 298 915 q 198 888 224 915 q 173 825 173 861 q 198 763 173 788 q 261 738 224 738 z "},"±":{"ha":742,"x_min":66,"x_max":687,"o":"m 440 579 l 687 579 l 687 477 l 440 477 l 440 196 l 327 196 l 327 477 l 66 477 l 66 579 l 327 579 l 327 859 l 440 859 l 440 579 m 658 0 l 92 0 l 92 103 l 658 103 l 658 0 z "},"²":{"ha":509,"x_min":45,"x_max":463,"o":"m 463 452 l 57 452 l 57 526 l 260 717 q 334 833 334 786 q 313 887 334 866 q 250 907 291 907 q 175 882 199 907 q 151 817 151 856 l 45 817 q 101 945 45 895 q 248 995 158 995 q 389 952 337 995 q 441 834 441 909 q 369 691 441 764 l 312 637 l 193 539 l 463 539 l 463 452 z "},"³":{"ha":509,"x_min":42,"x_max":452,"o":"m 180 764 l 237 764 q 311 784 287 764 q 336 838 336 805 q 314 888 336 868 q 245 907 293 907 q 181 890 207 907 q 156 845 156 873 l 50 845 q 105 953 50 911 q 244 995 160 995 q 390 954 337 995 q 443 842 443 913 q 419 774 443 805 q 351 726 395 743 q 452 602 452 699 q 394 487 452 530 q 244 445 336 445 q 98 488 155 445 q 42 603 42 530 l 149 603 q 176 552 149 572 q 248 532 203 532 q 320 552 296 532 q 345 607 345 572 q 239 685 345 684 l 180 685 l 180 764 z "},"´":{"ha":435,"x_min":83,"x_max":366,"o":"m 214 1042 l 366 1042 l 184 842 l 83 842 l 214 1042 z "},"µ":{"ha":787,"x_min":104,"x_max":682,"o":"m 230 734 l 230 304 q 266 141 231 194 q 379 88 300 88 q 556 191 514 88 l 556 734 l 682 734 l 682 0 l 569 0 l 563 78 q 385 -14 500 -14 q 230 36 285 -14 l 230 -282 l 104 -282 l 104 734 l 230 734 z "},"¶":{"ha":679,"x_min":45,"x_max":564,"o":"m 438 0 l 438 353 l 381 353 q 135 439 225 353 q 45 670 45 525 q 136 901 45 814 q 382 987 226 987 l 564 987 l 564 0 l 438 0 z "},"·":{"ha":362,"x_min":100,"x_max":256,"o":"m 100 494 q 119 549 100 527 q 177 570 138 570 q 236 549 216 570 q 256 494 256 527 q 236 441 256 463 q 177 420 216 420 q 119 441 138 420 q 100 494 100 463 z "},"¸":{"ha":344,"x_min":79,"x_max":289,"o":"m 193 0 l 185 -35 q 289 -153 289 -54 q 235 -257 289 -218 q 83 -295 180 -295 l 79 -222 q 162 -205 132 -222 q 191 -155 191 -187 q 170 -111 191 -125 q 81 -91 148 -97 l 103 0 l 193 0 z "},"¹":{"ha":509,"x_min":83,"x_max":336,"o":"m 336 452 l 229 452 l 229 860 l 83 821 l 83 908 l 323 987 l 336 987 l 336 452 z "},"º":{"ha":631,"x_min":83,"x_max":547,"o":"m 83 762 q 146 935 83 869 q 315 1001 210 1001 q 484 936 420 1001 q 547 758 547 870 l 547 707 q 484 534 547 600 q 316 468 420 468 q 147 534 212 468 q 83 711 83 600 l 83 762 m 193 707 q 226 601 193 640 q 316 562 259 562 q 405 601 372 562 q 437 709 437 640 l 437 762 q 404 867 437 829 q 315 906 371 906 q 227 869 260 906 q 193 766 195 831 l 193 707 z "},"»":{"ha":651,"x_min":69,"x_max":602,"o":"m 165 644 l 366 380 l 366 367 l 165 103 l 69 103 l 244 373 l 69 644 l 165 644 m 402 644 l 602 380 l 602 367 l 402 103 l 306 103 l 481 373 l 306 644 l 402 644 z "},"¼":{"ha":1017,"x_min":58,"x_max":966,"o":"m 311 450 l 204 450 l 204 858 l 58 819 l 58 906 l 298 985 l 311 985 l 311 450 m 300 80 l 230 125 l 712 897 l 783 852 l 300 80 m 894 203 l 966 203 l 966 115 l 894 115 l 894 0 l 787 0 l 787 115 l 533 115 l 529 184 l 785 535 l 894 535 l 894 203 m 636 203 l 787 203 l 787 399 l 776 380 l 636 203 z "},"½":{"ha":1078,"x_min":54,"x_max":1004,"o":"m 271 80 l 200 125 l 682 897 l 753 852 l 271 80 m 307 450 l 201 450 l 201 858 l 54 819 l 54 906 l 295 985 l 307 985 l 307 450 m 1004 0 l 598 0 l 598 73 l 802 264 q 876 380 876 334 q 854 434 876 414 q 791 455 832 455 q 716 429 741 455 q 692 365 692 404 l 586 365 q 643 492 586 442 q 789 543 699 543 q 930 499 878 543 q 983 382 983 456 q 910 239 983 311 l 853 185 l 734 87 l 1004 87 l 1004 0 z "},"¾":{"ha":1080,"x_min":75,"x_max":1029,"o":"m 387 80 l 316 125 l 798 897 l 869 852 l 387 80 m 956 203 l 1029 203 l 1029 115 l 956 115 l 956 0 l 850 0 l 850 115 l 595 115 l 591 184 l 847 535 l 956 535 l 956 203 m 699 203 l 850 203 l 850 399 l 838 380 l 699 203 m 213 764 l 270 764 q 345 784 320 764 q 369 838 369 805 q 348 888 369 868 q 279 907 326 907 q 215 890 240 907 q 189 845 189 873 l 83 845 q 138 953 83 911 q 277 995 193 995 q 423 954 370 995 q 476 842 476 913 q 452 774 476 805 q 384 726 429 743 q 485 602 485 699 q 427 487 485 530 q 277 445 370 445 q 132 488 188 445 q 75 603 75 530 l 182 603 q 209 552 182 572 q 281 532 236 532 q 354 552 329 532 q 378 607 378 572 q 273 685 378 684 l 213 685 l 213 764 z "},"¿":{"ha":657,"x_min":46,"x_max":602,"o":"m 399 461 q 384 346 398 389 q 338 263 370 303 q 243 158 305 223 q 173 25 180 92 l 172 0 q 211 -113 172 -74 q 324 -152 250 -152 q 434 -114 392 -152 q 477 -14 477 -75 l 602 -14 q 525 -192 601 -123 q 324 -261 448 -261 q 119 -193 191 -261 q 46 -3 46 -125 q 155 233 46 114 l 229 309 q 273 461 273 362 l 399 461 m 404 676 q 386 625 404 646 q 330 604 367 604 q 275 625 294 604 q 256 676 256 646 q 275 726 256 706 q 330 747 294 747 q 386 726 367 747 q 404 676 404 706 z "},"Æ":{"ha":1298,"x_min":-9,"x_max":1274,"o":"m 1274 0 l 675 0 l 665 239 l 283 239 l 144 0 l -9 0 l 587 987 l 1232 987 l 1232 884 l 764 884 l 777 565 l 1177 565 l 1177 463 l 781 463 l 796 102 l 1274 102 l 1274 0 m 351 357 l 661 357 l 640 854 l 351 357 z "},"×":{"ha":741,"x_min":60,"x_max":671,"o":"m 60 223 l 284 451 l 62 678 l 142 762 l 366 534 l 589 762 l 669 678 l 447 451 l 671 223 l 590 140 l 366 368 l 141 140 l 60 223 z "},"Ø":{"ha":955,"x_min":80,"x_max":888,"o":"m 874 462 q 825 209 874 317 q 687 43 777 100 q 478 -14 597 -14 q 273 42 362 -14 l 208 -63 l 111 -63 l 209 94 q 80 468 80 224 l 80 524 q 130 776 80 667 q 270 943 179 885 q 477 1001 360 1001 q 722 916 622 1001 l 792 1028 l 888 1028 l 780 855 q 874 529 873 728 l 874 462 m 210 462 q 276 201 210 296 l 659 814 q 477 889 589 889 q 282 795 353 889 q 210 534 212 701 l 210 462 m 745 526 q 707 738 745 649 l 334 140 q 478 97 396 97 q 673 189 604 97 q 745 452 743 281 l 745 526 z "},"Þ":{"ha":821,"x_min":113,"x_max":758,"o":"m 239 987 l 239 789 l 428 789 q 602 753 528 789 q 717 652 677 718 q 758 500 758 586 q 668 291 758 369 q 425 212 578 212 l 239 212 l 239 0 l 113 0 l 113 987 l 239 987 m 239 686 l 239 315 l 427 315 q 577 367 523 315 q 631 499 631 418 q 577 634 631 583 q 431 686 523 685 l 239 686 z "},"ß":{"ha":826,"x_min":94,"x_max":766,"o":"m 220 0 l 94 0 l 94 753 q 164 974 94 895 q 361 1054 235 1054 q 550 993 483 1054 q 616 825 616 932 q 573 671 616 740 q 530 555 530 602 q 555 489 530 521 q 644 408 581 456 q 737 313 708 359 q 766 215 766 267 q 697 47 766 107 q 505 -14 629 -14 q 389 1 450 -14 q 302 35 328 16 l 331 140 q 410 104 364 119 q 492 89 456 89 q 603 121 564 89 q 641 208 641 153 q 616 276 641 243 q 527 358 591 309 q 433 455 463 408 q 404 557 404 502 q 451 687 404 617 q 498 814 498 758 q 463 915 498 878 q 368 951 427 951 q 220 752 220 951 l 220 0 z "},"æ":{"ha":1173,"x_min":53,"x_max":1126,"o":"m 856 -14 q 587 109 679 -14 q 466 18 543 50 q 294 -14 389 -14 q 117 45 180 -14 q 53 206 53 104 q 130 372 53 313 q 357 431 207 431 l 508 431 l 508 488 q 471 603 508 561 q 363 644 433 644 q 244 607 292 644 q 197 515 197 570 l 72 528 q 154 686 72 625 q 363 747 236 747 q 500 719 441 747 q 594 635 560 691 q 696 718 637 688 q 826 747 755 747 q 1047 660 968 747 q 1126 415 1126 573 l 1126 337 l 632 337 q 696 153 637 218 q 856 88 755 88 q 1038 140 956 88 l 1070 161 l 1114 68 q 856 -14 1006 -14 m 318 88 q 420 113 367 88 q 508 175 474 138 l 508 336 l 353 336 q 227 297 274 334 q 179 203 179 260 q 215 120 179 151 q 318 88 251 88 m 826 644 q 697 586 748 644 q 635 434 647 528 l 1000 434 l 1000 455 q 955 594 1000 545 q 826 644 909 644 z "},"ð":{"ha":814,"x_min":85,"x_max":725,"o":"m 556 882 q 725 426 725 703 l 725 363 q 685 170 725 256 q 572 35 646 84 q 408 -14 499 -14 q 242 30 317 -14 q 126 150 168 74 q 85 317 85 226 q 123 495 85 416 q 232 618 161 574 q 389 663 302 663 q 582 585 500 663 q 454 813 549 718 l 306 713 l 256 780 l 387 869 q 173 964 297 930 l 212 1072 q 492 941 374 1035 l 621 1028 l 670 960 l 556 882 m 600 431 l 598 469 q 529 535 576 510 q 419 559 481 559 q 266 495 321 559 q 211 317 211 430 q 268 155 211 222 q 411 89 324 89 q 548 165 496 89 q 600 367 600 242 l 600 431 z "},"÷":{"ha":793,"x_min":48,"x_max":725,"o":"m 725 407 l 48 407 l 48 532 l 725 532 l 725 407 m 313 745 q 332 799 313 777 q 390 821 351 821 q 449 799 429 821 q 469 745 469 777 q 449 692 469 713 q 390 671 429 671 q 332 692 351 671 q 313 745 313 713 m 313 191 q 332 245 313 223 q 390 267 351 267 q 449 245 429 267 q 469 191 469 223 q 449 138 469 159 q 390 117 429 117 q 332 138 351 117 q 313 191 313 159 z "},"ø":{"ha":787,"x_min":62,"x_max":730,"o":"m 62 374 q 103 567 62 481 q 221 700 145 653 q 395 747 298 747 q 533 719 469 747 l 583 819 l 667 819 l 597 680 q 730 359 730 576 q 688 165 730 252 q 570 33 646 79 q 396 -14 494 -14 q 267 10 326 -14 l 217 -91 l 133 -91 l 201 47 q 62 374 62 148 m 187 359 q 253 152 187 227 l 486 623 q 395 644 444 644 q 244 570 301 644 q 187 359 187 496 m 604 374 q 545 572 604 497 l 314 106 q 396 89 351 89 q 547 163 490 89 q 604 363 604 237 l 604 374 z "},"þ":{"ha":800,"x_min":101,"x_max":721,"o":"m 721 359 q 644 89 721 191 q 437 -14 568 -14 q 227 71 303 -14 l 227 -282 l 101 -282 l 101 1042 l 227 1042 l 227 658 q 435 747 303 747 q 644 648 567 747 q 721 370 721 548 l 721 359 m 595 373 q 543 569 595 497 q 397 641 490 641 q 227 540 283 641 l 227 189 q 399 89 283 89 q 542 160 489 89 q 595 373 595 232 z "},"đ":{"ha":829,"x_min":64,"x_max":811,"o":"m 811 836 l 684 836 l 684 0 l 568 0 l 562 79 q 353 -14 487 -14 q 145 91 225 -14 q 64 363 64 195 l 64 373 q 144 645 64 542 q 354 747 224 747 q 558 659 483 747 l 558 836 l 379 836 l 379 939 l 558 939 l 558 1042 l 684 1042 l 684 939 l 811 939 l 811 836 m 190 359 q 241 163 190 234 q 384 93 293 93 q 558 200 503 93 l 558 537 q 385 641 502 641 q 241 570 293 641 q 190 359 190 498 z "},"Ħ":{"ha":972,"x_min":20,"x_max":960,"o":"m 869 791 l 960 791 l 960 694 l 869 694 l 869 0 l 739 0 l 739 456 l 241 456 l 241 0 l 111 0 l 111 694 l 20 694 l 20 791 l 111 791 l 111 987 l 241 987 l 241 791 l 739 791 l 739 987 l 869 987 l 869 791 m 241 563 l 739 563 l 739 694 l 241 694 l 241 563 z "},"ı":{"ha":343,"x_min":105,"x_max":231,"o":"m 231 0 l 105 0 l 105 734 l 231 734 l 231 0 z "},"ĸ":{"ha":772,"x_min":104,"x_max":737,"o":"m 303 313 l 231 313 l 231 0 l 104 0 l 104 734 l 231 734 l 231 423 l 292 423 l 562 734 l 713 734 l 406 378 l 737 0 l 579 0 l 303 313 z "},"Ł":{"ha":748,"x_min":23,"x_max":713,"o":"m 245 572 l 423 629 l 423 544 l 245 487 l 245 106 l 713 106 l 713 0 l 114 0 l 114 446 l 23 417 l 23 502 l 114 530 l 114 987 l 245 987 l 245 572 z "},"ł":{"ha":375,"x_min":23,"x_max":354,"o":"m 247 589 l 354 631 l 354 547 l 247 506 l 247 0 l 121 0 l 121 458 l 23 420 l 23 504 l 121 541 l 121 1042 l 247 1042 l 247 589 z "},"Ŋ":{"ha":962,"x_min":110,"x_max":858,"o":"m 858 987 l 858 -56 q 800 -233 858 -170 q 636 -296 742 -296 q 558 -284 595 -296 l 568 -180 q 634 -189 593 -189 q 726 -48 726 -189 l 726 0 l 240 766 l 240 0 l 110 0 l 110 987 l 240 987 l 726 222 l 726 987 l 858 987 z "},"ŋ":{"ha":787,"x_min":98,"x_max":684,"o":"m 211 734 l 220 629 q 436 747 298 747 q 620 677 557 747 q 684 469 682 606 l 684 -60 q 627 -234 684 -172 q 465 -296 570 -296 q 387 -284 424 -296 l 397 -178 q 465 -186 420 -186 q 558 -55 558 -186 l 558 460 q 520 597 558 554 q 398 641 483 641 q 224 551 279 641 l 224 0 l 98 0 l 98 734 l 211 734 z "},"Œ":{"ha":1324,"x_min":71,"x_max":1221,"o":"m 1221 0 l 646 0 q 448 -14 526 -14 q 252 37 338 -14 q 119 179 166 87 q 71 387 71 271 l 71 597 q 118 806 71 713 q 251 950 165 899 q 447 1001 337 1001 q 646 987 531 1001 l 1215 987 l 1215 880 l 724 880 l 724 563 l 1152 563 l 1152 456 l 724 456 l 724 106 l 1221 106 l 1221 0 m 448 88 q 594 98 525 88 l 594 888 q 447 899 520 899 q 264 821 330 899 q 197 603 198 743 l 197 391 q 263 168 197 248 q 448 88 329 88 z "},"œ":{"ha":1261,"x_min":66,"x_max":1215,"o":"m 66 374 q 107 568 66 482 q 222 701 148 654 q 393 747 296 747 q 554 708 486 747 q 663 600 622 668 q 774 708 707 669 q 916 747 840 747 q 1136 661 1057 747 q 1215 416 1215 575 l 1215 337 l 728 337 q 789 155 733 222 q 935 88 844 88 q 1144 161 1063 88 l 1194 76 q 935 -14 1101 -14 q 774 24 844 -14 q 662 130 705 62 q 552 25 620 63 q 394 -14 485 -14 q 155 90 245 -14 q 66 365 66 193 l 66 374 m 191 359 q 245 161 191 235 q 394 88 300 88 q 541 161 487 88 q 595 374 595 234 q 541 571 595 497 q 393 644 486 644 q 246 572 301 644 q 191 359 191 499 m 916 644 q 798 589 849 644 q 732 440 747 534 l 1089 440 l 1089 458 q 1043 593 1089 543 q 916 644 996 644 z "},"ſ":{"ha":345,"x_min":109,"x_max":435,"o":"m 109 0 l 109 812 q 169 991 109 927 q 338 1056 229 1056 q 435 1042 378 1056 l 420 945 q 358 953 393 953 q 234 803 234 953 l 234 0 l 109 0 z "},"ƀ":{"ha":836,"x_min":22,"x_max":772,"o":"m 772 359 q 695 89 772 191 q 488 -14 618 -14 q 273 85 349 -14 l 267 0 l 151 0 l 151 1042 l 277 1042 l 277 653 q 486 747 353 747 q 696 646 620 747 q 772 370 772 545 l 772 359 m 647 373 q 597 571 647 501 q 455 641 548 641 q 277 526 331 641 l 277 208 q 456 93 334 93 q 597 163 547 93 q 647 373 647 233 m 454 831 l 22 831 l 22 934 l 454 934 l 454 831 z "},"Ɓ":{"ha":1003,"x_min":19,"x_max":925,"o":"m 253 0 l 253 880 q 156 850 185 880 q 126 762 126 820 q 132 718 126 736 l 31 717 q 19 795 19 753 q 258 987 19 987 l 576 987 q 818 921 736 987 q 899 724 899 854 q 859 602 899 655 q 752 519 820 549 q 879 434 832 497 q 925 285 925 372 q 839 76 925 152 q 595 0 753 0 l 253 0 m 383 462 l 383 106 l 598 106 q 742 154 689 106 q 794 283 794 201 q 600 462 794 462 l 383 462 m 383 566 l 588 566 q 719 610 670 568 q 768 725 768 653 q 720 843 768 806 q 576 880 673 880 l 383 880 l 383 566 z "},"Ƃ":{"ha":870,"x_min":111,"x_max":814,"o":"m 718 880 l 241 880 l 241 0 l 111 0 l 111 987 l 718 987 l 718 880 m 241 585 l 486 585 q 728 505 641 583 q 814 295 814 428 q 727 82 814 161 q 488 0 640 3 l 111 0 l 111 987 l 241 987 l 241 585 m 241 477 l 241 106 l 479 106 q 630 158 576 106 q 684 296 684 210 q 632 428 684 380 q 484 477 580 476 l 241 477 z "},"ƃ":{"ha":779,"x_min":95,"x_max":716,"o":"m 570 1042 l 570 939 l 220 939 l 220 653 q 430 747 296 747 q 640 646 564 747 q 716 370 716 545 l 716 359 q 639 89 716 191 q 431 -14 562 -14 q 216 85 292 -14 l 210 0 l 95 0 l 95 1042 l 570 1042 m 591 373 q 541 571 591 501 q 399 641 492 641 q 220 526 275 641 l 220 208 q 400 93 278 93 q 541 163 490 93 q 591 373 591 233 z "},"Ƅ":{"ha":932,"x_min":66,"x_max":878,"o":"m 304 987 l 304 585 l 552 585 q 791 505 705 582 q 878 295 878 428 q 790 82 878 161 q 551 0 703 3 l 174 0 l 174 656 l 66 795 l 66 847 l 174 987 l 304 987 m 304 477 l 304 106 l 542 106 q 693 158 639 106 q 747 296 747 210 q 695 428 747 380 q 547 477 643 476 l 304 477 z "},"ƅ":{"ha":856,"x_min":65,"x_max":794,"o":"m 794 359 q 716 88 794 190 q 509 -14 639 -14 q 294 84 370 -14 l 288 0 l 172 0 l 172 710 l 65 849 l 65 901 l 172 1042 l 298 1042 l 298 653 q 507 747 374 747 q 718 646 642 747 q 794 370 794 545 l 794 359 m 668 373 q 618 572 668 503 q 477 641 569 641 q 370 611 415 641 q 298 527 324 581 l 298 208 q 478 93 355 93 q 618 163 569 93 q 668 373 668 233 z "},"Ɔ":{"ha":904,"x_min":62,"x_max":823,"o":"m 193 317 q 267 146 210 199 q 426 93 323 93 q 622 186 551 93 q 692 446 692 279 l 692 543 q 625 799 692 705 q 437 894 557 894 q 270 844 327 894 q 193 673 212 794 l 62 673 q 179 916 81 831 q 437 1001 277 1001 q 637 946 550 1001 q 773 787 725 890 q 823 547 822 683 l 823 444 q 773 201 823 307 q 634 41 724 96 q 426 -14 544 -14 q 172 74 267 -14 q 62 317 78 162 l 193 317 z "},"Ƈ":{"ha":981,"x_min":81,"x_max":1007,"o":"m 841 313 q 725 72 823 157 q 467 -14 628 -14 q 186 112 292 -14 q 81 448 81 237 l 81 543 q 130 785 81 680 q 269 945 179 889 q 478 1001 359 1001 q 749 895 652 1001 q 929 1023 789 1023 q 1007 1011 969 1023 l 1006 906 q 960 912 988 912 q 870 882 897 912 q 841 793 842 852 l 841 670 l 710 670 q 636 841 693 788 q 478 894 580 894 q 282 802 353 894 q 212 539 212 709 l 212 444 q 279 188 212 283 q 467 93 346 93 q 633 142 575 93 q 710 313 691 191 l 841 313 z "},"ƈ":{"ha":842,"x_min":62,"x_max":827,"o":"m 389 89 q 507 130 456 89 q 562 231 557 170 l 681 231 q 637 111 677 168 q 531 20 597 54 q 389 -14 464 -14 q 151 86 239 -14 q 62 360 62 186 l 62 381 q 102 572 62 488 q 215 701 141 655 q 389 747 288 747 q 604 663 521 747 q 759 781 635 781 q 827 771 796 781 l 826 684 q 785 690 807 690 q 681 584 684 690 l 681 481 l 562 481 q 508 598 557 553 q 389 644 460 644 q 240 575 293 644 q 188 376 188 507 l 188 353 q 240 157 188 226 q 389 89 292 89 z "},"Ɖ":{"ha":960,"x_min":28,"x_max":877,"o":"m 163 0 l 163 987 l 441 987 q 669 930 570 987 q 822 768 768 873 q 877 527 876 663 l 877 464 q 823 219 877 324 q 669 58 769 114 q 436 0 569 1 l 163 0 m 293 880 l 293 106 l 430 106 q 664 200 581 106 q 748 467 748 294 l 748 524 q 669 786 748 692 q 445 880 590 879 l 293 880 m 459 441 l 28 441 l 28 544 l 459 544 l 459 441 z "},"Ɗ":{"ha":1050,"x_min":19,"x_max":967,"o":"m 253 0 l 253 880 q 156 850 185 880 q 126 762 126 820 q 132 718 126 736 l 31 717 q 19 795 19 753 q 258 987 19 987 l 532 987 q 760 930 661 987 q 912 768 859 873 q 967 527 966 663 l 967 464 q 913 219 967 324 q 759 58 859 114 q 526 0 659 1 l 253 0 m 383 880 l 383 106 l 520 106 q 754 200 671 106 q 838 467 838 294 l 838 524 q 759 786 838 692 q 535 880 680 879 l 383 880 z "},"Ƌ":{"ha":869,"x_min":55,"x_max":759,"o":"m 55 295 q 142 506 55 428 q 386 585 229 583 l 629 585 l 629 880 l 153 880 l 153 987 l 759 987 l 759 0 l 390 0 q 211 36 287 0 q 95 139 136 72 q 55 295 55 206 m 629 477 l 391 477 q 239 429 292 477 q 186 296 186 381 q 238 159 186 211 q 385 106 291 108 l 629 106 l 629 477 z "},"ƌ":{"ha":783,"x_min":64,"x_max":684,"o":"m 64 373 q 144 645 64 542 q 354 747 224 747 q 558 659 483 747 l 558 939 l 210 939 l 210 1042 l 684 1042 l 684 0 l 568 0 l 562 79 q 353 -14 487 -14 q 145 91 225 -14 q 64 363 64 195 l 64 373 m 190 359 q 241 163 190 234 q 384 93 293 93 q 558 200 503 93 l 558 537 q 385 641 502 641 q 241 570 293 641 q 190 359 190 498 z "},"ƍ":{"ha":787,"x_min":64,"x_max":720,"o":"m 143 -254 l 143 -155 l 455 -155 q 306 -23 420 -118 q 121 180 176 90 q 64 361 67 271 l 64 387 q 105 573 64 490 q 220 701 145 656 q 392 747 294 747 q 623 655 534 747 q 720 411 712 563 l 720 372 q 634 152 720 241 q 408 47 548 63 q 378 48 393 46 l 478 -40 q 624 -177 581 -128 l 624 -254 l 143 -254 m 595 387 q 541 573 595 503 q 392 644 487 644 q 244 573 298 644 q 191 372 191 503 q 223 238 191 301 q 311 136 256 174 q 378 128 342 128 q 536 194 478 128 q 595 376 595 260 l 595 387 z "},"Ǝ":{"ha":789,"x_min":47,"x_max":674,"o":"m 47 987 l 674 987 l 674 0 l 54 0 l 54 106 l 544 106 l 544 427 l 117 427 l 117 533 l 544 533 l 544 880 l 47 880 l 47 987 z "},"Ə":{"ha":960,"x_min":63,"x_max":880,"o":"m 473 -14 q 171 103 279 -14 q 63 441 63 220 l 63 520 l 749 520 l 749 525 q 667 796 749 700 q 434 892 584 892 q 228 853 322 892 l 186 836 l 155 932 l 170 941 q 434 1001 277 1001 q 760 873 639 1001 q 880 518 880 745 l 880 461 q 827 219 880 328 q 680 48 774 110 q 473 -14 586 -14 m 473 94 q 663 182 587 94 q 748 419 738 271 l 194 419 l 194 396 q 266 171 194 248 q 473 94 337 94 z "},"Ɛ":{"ha":831,"x_min":58,"x_max":770,"o":"m 189 273 q 249 139 189 185 q 423 92 309 92 q 579 143 518 92 q 640 274 640 195 l 770 274 q 726 121 770 185 q 602 21 682 56 q 423 -14 522 -14 q 152 61 246 -14 q 58 275 58 136 q 102 418 58 360 q 229 505 146 476 q 114 590 156 535 q 73 720 73 644 q 165 926 73 852 q 423 1001 257 1001 q 593 966 515 1001 q 713 870 671 932 q 756 729 756 808 l 625 729 q 569 847 625 800 q 423 894 512 894 q 261 849 318 894 q 203 723 203 804 q 418 557 203 557 l 526 557 l 526 450 l 407 450 q 243 406 298 448 q 189 273 189 363 z "},"Ƒ":{"ha":809,"x_min":-9,"x_max":768,"o":"m 701 436 l 287 436 l 287 -59 q 229 -234 287 -172 q 66 -296 172 -296 q -9 -284 24 -296 l 0 -176 q 66 -185 30 -185 q 156 -58 156 -185 l 156 987 l 768 987 l 768 880 l 287 880 l 287 543 l 701 543 l 701 436 z "},"ƒ":{"ha":473,"x_min":-19,"x_max":475,"o":"m 412 637 l 275 637 l 275 -59 q 218 -234 275 -172 q 56 -296 161 -296 q -19 -284 15 -296 l -9 -184 q 56 -193 11 -193 q 124 -158 100 -193 q 149 -60 149 -123 l 149 637 l 33 637 l 33 734 l 149 734 l 149 815 q 209 992 150 928 q 378 1056 269 1056 q 475 1042 418 1056 l 460 942 q 393 949 434 949 q 275 817 277 949 l 275 734 l 412 734 l 412 637 z "},"Ɠ":{"ha":984,"x_min":83,"x_max":1010,"o":"m 844 130 q 704 22 793 58 q 494 -14 614 -14 q 280 43 374 -14 q 135 204 186 100 q 83 446 84 309 l 83 532 q 187 878 83 755 q 479 1001 291 1001 q 755 897 660 1001 q 932 1023 793 1023 q 1010 1011 976 1023 l 1009 910 q 964 916 991 916 q 844 795 847 916 l 844 698 l 713 698 q 480 894 677 894 q 282 802 349 894 q 214 536 214 710 l 214 455 q 290 191 214 289 q 495 93 366 93 q 623 109 568 93 q 714 164 678 125 l 714 386 l 486 386 l 486 492 l 844 492 l 844 130 z "},"Ɣ":{"ha":871,"x_min":14,"x_max":857,"o":"m 159 987 l 434 318 l 713 987 l 857 987 l 496 165 l 587 -41 q 609 -132 609 -98 q 563 -249 609 -208 q 435 -291 517 -291 q 308 -249 353 -291 q 262 -132 262 -208 q 292 -17 262 -92 l 372 170 l 14 987 l 159 987 m 484 -132 q 435 24 484 -90 q 387 -132 387 -90 q 435 -184 387 -184 q 484 -132 484 -184 z "},"ƕ":{"ha":1162,"x_min":95,"x_max":1068,"o":"m 808 -14 q 612 63 676 -14 q 547 291 549 139 l 547 479 q 510 603 547 565 q 399 641 473 641 q 292 608 338 641 q 220 523 246 576 l 220 0 l 95 0 l 95 1042 l 220 1042 l 220 645 q 437 747 304 747 q 612 682 553 747 q 672 481 671 617 l 672 305 q 808 92 672 92 q 943 305 943 92 l 943 734 l 1068 734 l 1068 291 q 1002 63 1066 139 q 808 -14 939 -14 z "},"Ɨ":{"ha":458,"x_min":14,"x_max":446,"o":"m 292 0 l 161 0 l 161 987 l 292 987 l 292 0 m 446 441 l 14 441 l 14 544 l 446 544 l 446 441 z "},"Ƙ":{"ha":871,"x_min":115,"x_max":876,"o":"m 368 456 l 245 314 l 245 0 l 115 0 l 115 987 l 245 987 l 245 485 l 352 618 l 551 867 q 596 922 575 897 q 639 964 617 946 q 686 991 661 981 q 741 1001 711 1001 q 815 986 781 1001 q 876 947 850 970 l 830 858 q 798 875 816 868 q 753 882 780 882 q 727 877 739 882 q 704 863 715 872 q 681 840 692 853 q 656 810 670 827 l 452 553 l 871 0 l 715 0 l 368 456 z "},"ƙ":{"ha":704,"x_min":96,"x_max":703,"o":"m 300 340 l 221 258 l 221 0 l 96 0 l 96 850 q 152 1000 96 943 q 299 1056 208 1056 q 367 1045 334 1056 l 366 959 q 326 964 347 964 q 221 859 224 964 l 221 412 l 288 492 l 517 734 l 669 734 l 384 427 l 703 0 l 555 0 l 300 340 z "},"ƚ":{"ha":458,"x_min":14,"x_max":446,"o":"m 291 0 l 165 0 l 165 1042 l 291 1042 l 291 0 m 446 488 l 14 488 l 14 591 l 446 591 l 446 488 z "},"ƛ":{"ha":769,"x_min":25,"x_max":734,"o":"m 177 1029 q 282 1003 241 1029 q 347 912 323 977 l 469 959 l 469 849 l 383 817 l 637 159 q 666 111 650 124 q 705 98 681 98 l 730 100 l 734 -3 q 682 -12 710 -12 q 603 1 629 -12 q 555 43 576 14 q 515 126 534 72 l 359 528 l 165 0 l 25 0 l 292 698 l 262 770 l 138 722 l 138 832 l 224 865 q 191 912 208 899 q 145 926 174 926 l 113 925 l 113 1021 q 177 1029 141 1029 z "},"Ɯ":{"ha":1265,"x_min":117,"x_max":1147,"o":"m 1024 82 q 810 -14 951 -14 q 681 17 736 -14 q 597 123 625 48 q 358 -14 527 -14 q 178 61 236 -14 q 117 290 119 136 l 117 987 l 243 987 l 243 305 q 378 92 243 92 q 571 248 537 92 l 570 285 l 570 987 l 695 987 l 695 305 q 830 92 695 92 q 1021 237 985 92 l 1021 987 l 1147 987 l 1147 0 l 1028 0 l 1024 82 z "},"Ɲ":{"ha":1031,"x_min":-9,"x_max":915,"o":"m 915 0 l 784 0 l 287 761 l 287 -59 q 229 -234 287 -172 q 66 -296 172 -296 q -9 -284 24 -296 l 0 -176 q 66 -185 30 -185 q 156 -58 156 -185 l 156 987 l 287 987 l 786 223 l 786 987 l 915 987 l 915 0 z "},"Ơ":{"ha":954,"x_min":68,"x_max":975,"o":"m 863 462 q 814 209 863 317 q 675 43 765 100 q 467 -14 586 -14 q 260 43 351 -14 q 120 208 170 100 q 68 456 69 316 l 68 524 q 118 775 68 667 q 258 943 168 884 q 465 1001 349 1001 q 733 896 628 1001 q 830 945 798 901 q 861 1079 861 989 l 975 1079 q 796 812 975 853 q 863 528 862 695 l 863 462 m 734 526 q 664 795 734 701 q 465 889 593 889 q 271 795 342 889 q 198 534 200 701 l 198 462 q 270 194 198 292 q 467 97 341 97 q 665 193 596 97 q 734 463 734 288 l 734 526 z "},"ơ":{"ha":793,"x_min":62,"x_max":821,"o":"m 62 374 q 103 567 62 481 q 221 700 145 653 q 395 747 298 747 q 627 654 535 747 q 697 693 675 659 q 719 814 719 727 l 821 814 q 680 582 821 616 q 730 374 730 488 l 730 359 q 688 165 730 252 q 570 33 646 79 q 396 -14 494 -14 q 154 91 245 -14 q 62 365 62 195 l 62 374 m 187 359 q 244 163 187 237 q 396 89 300 89 q 547 163 490 89 q 604 363 604 237 l 604 374 q 546 570 604 496 q 395 644 489 644 q 244 570 301 644 q 187 359 187 496 z "},"Ƣ":{"ha":1178,"x_min":81,"x_max":1061,"o":"m 1061 -282 l 936 -282 l 936 861 l 839 823 l 839 130 q 492 -14 739 -14 q 278 41 370 -14 q 134 201 185 96 q 81 446 82 306 l 81 532 q 131 778 81 672 q 276 943 182 884 q 492 1001 370 1001 q 788 912 685 1001 l 964 987 l 1061 987 l 1061 -282 m 714 821 l 693 840 q 492 894 629 894 q 289 800 364 894 q 210 545 213 706 l 210 455 q 286 189 210 285 q 497 92 361 92 q 714 166 649 92 l 714 821 z "},"ƣ":{"ha":928,"x_min":62,"x_max":828,"o":"m 828 -282 l 703 -282 l 703 568 l 621 519 l 621 90 l 597 66 q 389 -14 509 -14 q 151 86 239 -14 q 62 360 62 186 l 62 381 q 102 572 62 488 q 216 702 142 656 q 389 747 290 747 q 602 665 519 747 l 728 734 l 828 734 l 828 -282 m 389 89 q 495 120 450 89 l 495 610 q 389 644 450 644 q 241 575 294 644 q 189 376 189 507 l 189 353 q 241 158 189 227 q 389 89 294 89 z "},"Ƥ":{"ha":1015,"x_min":19,"x_max":963,"o":"m 383 387 l 383 0 l 253 0 l 253 880 q 156 850 185 880 q 126 762 126 820 q 132 718 126 736 l 31 717 q 19 795 19 753 q 258 987 19 987 l 617 987 q 871 905 779 987 q 963 686 963 822 q 873 464 963 542 q 616 387 783 387 l 383 387 m 383 493 l 617 493 q 777 542 722 493 q 833 684 833 591 q 777 825 833 772 q 625 880 722 878 l 383 880 l 383 493 z "},"ƥ":{"ha":779,"x_min":95,"x_max":715,"o":"m 715 359 q 638 89 715 191 q 431 -14 562 -14 q 220 71 297 -14 l 220 -282 l 95 -282 l 95 726 q 152 877 95 821 q 298 932 208 932 q 366 922 336 932 l 366 836 q 325 841 347 841 q 220 735 223 841 l 220 658 q 429 747 297 747 q 638 648 561 747 q 715 370 715 548 l 715 359 m 589 373 q 536 569 589 497 q 391 641 484 641 q 220 540 277 641 l 220 189 q 393 89 277 89 q 536 160 483 89 q 589 373 589 232 z "},"Ʀ":{"ha":951,"x_min":114,"x_max":965,"o":"m 245 1057 l 245 987 l 449 987 q 700 909 612 985 q 787 690 787 833 q 738 530 787 598 q 599 427 688 461 l 965 -235 l 965 -243 l 825 -243 l 477 399 l 245 399 l 245 0 l 114 0 l 114 1057 l 245 1057 m 245 506 l 445 506 q 599 556 542 506 q 656 690 656 606 q 602 831 656 782 q 444 880 547 880 l 245 880 l 245 506 z "},"Ƨ":{"ha":824,"x_min":52,"x_max":769,"o":"m 183 250 q 238 135 183 177 q 396 93 293 93 q 573 145 507 93 q 639 286 639 197 l 769 286 q 721 131 769 199 q 585 25 672 63 q 396 -14 498 -14 q 146 58 240 -14 q 52 251 52 130 q 128 434 52 363 q 376 554 204 506 q 555 631 503 589 q 607 734 607 673 q 552 852 607 810 q 402 894 498 894 q 241 843 298 894 q 184 702 184 791 l 54 702 q 98 852 54 783 q 221 961 141 922 q 402 1001 300 1001 q 645 924 553 1001 q 738 732 738 848 q 662 559 738 630 q 420 441 586 489 q 233 361 283 401 q 183 250 183 321 z "},"ƨ":{"ha":716,"x_min":68,"x_max":652,"o":"m 194 195 q 237 118 194 146 q 351 89 280 89 q 475 125 428 89 q 526 226 523 162 l 652 226 q 613 105 652 161 q 507 18 575 49 q 351 -14 439 -14 q 148 46 227 -14 q 68 203 68 105 q 132 341 68 290 q 332 423 195 393 q 465 468 428 444 q 501 536 501 491 q 463 614 501 585 q 355 644 424 644 q 245 607 289 644 q 201 518 201 570 l 75 518 q 153 683 75 618 q 355 747 231 747 q 550 685 474 747 q 627 532 627 623 q 565 401 627 452 q 363 321 504 351 q 233 274 273 302 q 194 195 194 246 z "},"Ʃ":{"ha":793,"x_min":47,"x_max":741,"o":"m 511 487 l 210 106 l 741 106 l 741 0 l 47 0 l 47 97 l 373 494 l 47 890 l 47 987 l 707 987 l 707 880 l 211 880 l 511 503 l 511 487 z "},"ƪ":{"ha":647,"x_min":15,"x_max":620,"o":"m 244 1059 q 407 992 340 1059 q 475 831 474 925 l 475 -41 q 500 -142 475 -113 q 573 -171 526 -171 q 619 -165 601 -171 l 620 -266 q 541 -277 585 -277 q 349 -39 349 -277 l 349 623 q 244 598 300 598 q 130 628 182 598 q 46 712 77 659 q 15 828 15 766 q 46 944 15 890 q 130 1028 77 998 q 244 1059 183 1059 m 245 714 q 325 745 294 714 q 357 829 357 775 q 326 913 357 881 q 245 945 295 945 q 163 913 194 945 q 132 829 132 881 q 164 745 132 775 q 245 714 195 714 z "},"ƫ":{"ha":454,"x_min":6,"x_max":406,"o":"m 402 637 l 265 637 l 265 182 q 283 116 265 138 q 346 94 302 94 q 406 102 368 94 l 406 -51 q 241 -248 402 -248 q 173 -237 205 -248 l 174 -151 q 214 -157 193 -157 q 319 -51 316 -157 l 319 -14 l 313 -14 q 140 186 140 -14 l 140 637 l 6 637 l 6 734 l 140 734 l 140 911 l 265 911 l 265 734 l 402 734 l 402 637 z "},"Ƭ":{"ha":869,"x_min":19,"x_max":837,"o":"m 837 880 l 519 880 l 519 0 l 391 0 l 391 880 l 255 880 q 156 850 186 880 q 126 762 126 821 q 132 718 126 736 l 31 717 q 19 795 19 753 q 258 987 19 987 l 837 987 l 837 880 z "},"ƭ":{"ha":461,"x_min":16,"x_max":421,"o":"m 149 854 q 207 1003 149 948 q 353 1059 264 1059 q 421 1048 389 1059 l 420 962 q 380 967 406 967 q 275 861 278 967 l 275 734 l 412 734 l 412 637 l 275 637 l 275 200 q 356 94 275 94 q 415 102 380 94 l 416 0 q 319 -14 366 -14 q 193 42 237 -14 q 149 200 149 98 l 149 637 l 16 637 l 16 734 l 149 734 l 149 854 z "},"Ʈ":{"ha":829,"x_min":33,"x_max":797,"o":"m 645 -284 q 569 -296 610 -296 q 408 -236 466 -296 q 350 -60 350 -176 l 350 880 l 33 880 l 33 987 l 797 987 l 797 880 l 479 880 l 479 -60 q 569 -189 479 -189 q 635 -179 597 -189 l 645 -284 z "},"Ư":{"ha":966,"x_min":95,"x_max":1061,"o":"m 810 987 l 810 843 q 921 897 888 850 q 954 1043 954 943 l 1061 1043 q 1001 830 1061 901 q 810 751 941 759 l 810 315 q 726 92 809 180 q 500 -11 644 4 l 451 -14 q 193 74 289 -14 q 95 315 96 161 l 95 987 l 224 987 l 224 319 q 283 152 224 212 q 451 93 342 93 q 620 152 562 93 q 679 318 679 211 l 679 987 l 810 987 z "},"ư":{"ha":859,"x_min":92,"x_max":878,"o":"m 878 792 q 828 620 878 670 q 670 568 779 570 l 670 0 l 551 0 l 548 73 q 333 -14 475 -14 q 154 55 216 -14 q 92 256 93 123 l 92 734 l 218 734 l 218 260 q 353 93 218 93 q 545 200 497 93 l 545 734 l 670 734 l 670 645 q 739 658 716 646 q 772 694 762 670 q 782 792 782 719 l 878 792 z "},"Ʊ":{"ha":923,"x_min":83,"x_max":839,"o":"m 416 876 q 268 757 320 856 q 216 493 216 658 l 216 416 q 281 176 216 259 q 462 92 347 92 q 642 177 576 92 q 707 417 707 262 l 707 494 q 653 758 707 659 q 503 876 600 857 l 503 987 l 836 987 l 836 880 l 684 880 q 798 706 758 808 q 839 492 839 603 l 839 417 q 792 193 839 292 q 658 41 745 95 q 462 -14 572 -14 q 266 40 353 -14 q 132 191 180 93 q 83 413 84 288 l 83 494 q 123 705 83 601 q 237 880 163 808 l 88 880 l 88 987 l 416 987 l 416 876 z "},"Ʋ":{"ha":907,"x_min":96,"x_max":810,"o":"m 452 -14 q 193 75 289 -14 q 96 317 96 163 l 96 987 l 225 987 l 225 319 q 286 150 225 208 q 452 92 346 92 q 620 150 560 92 q 680 320 680 208 l 680 765 q 652 863 680 833 q 565 892 623 892 q 519 886 538 892 l 519 989 q 597 1001 555 1001 q 753 938 696 1001 q 810 764 810 876 l 810 319 q 765 143 810 218 q 638 27 720 68 q 452 -14 556 -14 z "},"Ƴ":{"ha":901,"x_min":10,"x_max":936,"o":"m 416 486 l 601 845 q 691 966 648 932 q 792 1001 735 1001 q 936 947 873 1001 l 890 858 q 814 882 856 882 q 763 864 784 882 q 716 798 742 846 l 669 705 l 481 365 l 481 0 l 351 0 l 351 368 l 10 987 l 159 987 l 416 486 z "},"ƴ":{"ha":825,"x_min":15,"x_max":850,"o":"m 315 246 l 334 176 l 507 725 l 526 778 q 717 930 581 930 q 850 884 791 930 l 819 805 q 733 832 773 832 q 672 804 699 832 q 618 696 646 775 l 346 -111 q 258 -250 315 -203 q 127 -296 201 -296 l 109 -295 l 57 -286 l 57 -184 l 91 -186 q 188 -160 153 -186 q 248 -71 223 -134 l 277 8 l 15 734 l 152 734 l 315 246 z "},"Ƶ":{"ha":831,"x_min":58,"x_max":777,"o":"m 519 551 l 727 551 l 727 448 l 448 448 l 212 106 l 777 106 l 777 0 l 58 0 l 58 98 l 300 448 l 84 448 l 84 551 l 372 551 l 600 880 l 67 880 l 67 987 l 755 987 l 755 892 l 519 551 z "},"ƶ":{"ha":701,"x_min":66,"x_max":648,"o":"m 460 421 l 591 421 l 591 319 l 383 319 l 220 102 l 648 102 l 648 0 l 66 0 l 66 92 l 237 319 l 102 319 l 102 421 l 314 421 l 471 630 l 73 630 l 73 734 l 629 734 l 629 645 l 460 421 z "},"Ʒ":{"ha":894,"x_min":55,"x_max":814,"o":"m 414 502 q 713 402 612 502 q 814 109 814 303 q 715 -182 814 -82 q 427 -283 616 -283 q 171 -198 268 -283 q 55 43 73 -113 l 185 43 q 228 -90 200 -45 q 304 -155 256 -134 q 427 -176 353 -176 q 622 -106 560 -176 q 684 109 684 -35 q 620 329 684 259 q 416 399 557 399 l 264 399 l 264 496 l 606 880 l 77 880 l 77 987 l 762 987 l 762 894 l 414 502 z "},"Ƹ":{"ha":894,"x_min":80,"x_max":839,"o":"m 479 399 q 274 329 337 399 q 210 109 210 259 q 272 -106 210 -35 q 467 -176 333 -176 q 590 -155 542 -176 q 666 -89 638 -134 q 709 43 694 -45 l 839 43 q 723 -198 821 -113 q 467 -283 626 -283 q 179 -182 277 -283 q 80 109 80 -82 q 181 402 80 303 q 480 502 282 502 l 132 894 l 132 987 l 817 987 l 817 880 l 288 880 l 630 496 l 630 399 l 479 399 z "},"ƹ":{"ha":784,"x_min":74,"x_max":724,"o":"m 695 734 l 695 630 l 267 630 l 519 323 l 519 220 l 420 220 q 254 170 308 220 q 199 18 199 120 q 255 -114 199 -64 q 406 -165 311 -165 q 545 -111 491 -165 q 598 20 598 -57 l 724 20 q 683 -134 724 -69 q 569 -233 642 -199 q 406 -268 496 -268 q 165 -190 256 -268 q 74 21 74 -111 q 152 231 74 154 q 374 318 231 307 l 105 654 l 106 734 l 695 734 z "},"ƺ":{"ha":740,"x_min":52,"x_max":666,"o":"m 177 -87 q 220 -164 177 -136 q 335 -193 263 -193 q 459 -157 412 -193 q 509 -56 506 -121 l 635 -56 q 597 -178 635 -122 q 491 -265 559 -234 q 335 -296 423 -296 q 130 -236 208 -296 q 52 -79 52 -175 q 117 57 52 5 q 330 140 183 110 q 452 183 419 159 q 485 254 485 207 q 336 342 485 342 l 223 342 l 223 423 l 487 631 l 84 631 l 84 734 l 666 734 l 666 654 l 426 437 q 562 369 514 418 q 610 250 610 319 q 549 116 610 167 q 342 35 488 66 q 217 -11 256 16 q 177 -87 177 -39 z "},"ƻ":{"ha":784,"x_min":63,"x_max":729,"o":"m 729 0 l 82 0 l 82 90 l 395 439 l 201 439 l 201 542 l 484 542 q 541 636 524 595 q 557 722 557 677 q 511 848 557 799 q 386 898 464 898 q 240 845 292 898 q 189 696 189 791 l 63 696 q 151 917 63 833 q 386 1001 239 1001 q 604 929 524 1001 q 684 736 684 857 q 617 542 684 648 l 728 542 l 728 439 l 541 439 l 507 399 l 233 102 l 729 102 l 729 0 z "},"Ƽ":{"ha":780,"x_min":43,"x_max":725,"o":"m 140 495 l 178 871 l 43 871 l 43 987 l 696 987 l 696 871 l 296 871 l 267 602 q 431 645 339 645 q 646 556 566 645 q 725 315 725 467 q 643 74 725 162 q 412 -14 560 -14 q 199 59 281 -14 q 104 260 116 132 l 223 260 q 283 132 235 175 q 412 89 332 89 q 550 149 500 89 q 600 313 600 208 q 546 472 600 412 q 402 532 492 532 q 273 496 320 532 l 240 469 l 140 495 z "},"ƽ":{"ha":696,"x_min":28,"x_max":648,"o":"m 610 624 l 260 624 l 238 455 q 303 484 262 471 q 387 498 344 497 q 579 432 511 500 q 648 245 648 365 q 572 56 648 122 q 359 -11 497 -11 q 221 17 286 -11 q 119 93 156 44 q 81 208 81 142 l 202 217 q 245 127 202 162 q 359 92 288 92 q 479 130 436 92 q 522 243 522 168 q 480 356 522 315 q 366 397 439 397 q 214 321 262 397 l 107 330 l 141 624 l 28 624 l 28 734 l 610 734 l 610 624 z "},"ƾ":{"ha":710,"x_min":62,"x_max":646,"o":"m 534 637 l 397 637 l 397 536 q 425 451 397 486 q 519 382 453 416 q 616 305 586 347 q 646 203 646 263 q 567 46 646 106 q 362 -14 488 -14 q 206 18 274 -14 q 100 105 138 49 q 62 226 62 161 l 187 226 q 238 126 191 163 q 362 89 285 89 q 476 118 433 89 q 519 195 519 146 q 494 259 519 232 q 397 328 469 287 q 271 522 275 398 l 271 637 l 137 637 l 137 734 l 271 734 l 271 911 l 397 911 l 397 734 l 534 734 l 534 637 z "},"ƿ":{"ha":779,"x_min":95,"x_max":715,"o":"m 209 734 l 216 652 q 429 747 293 747 q 638 649 561 747 q 715 372 715 550 l 715 361 q 666 159 715 243 q 514 13 616 75 q 220 -103 412 -49 l 220 -282 l 95 -282 l 95 734 l 209 734 m 391 641 q 220 540 277 641 l 220 -2 q 498 135 410 47 q 589 350 586 222 l 589 376 q 537 570 589 498 q 391 641 484 641 z "},"ǀ":{"ha":353,"x_min":126,"x_max":227,"o":"m 227 0 l 126 0 l 126 987 l 227 987 l 227 0 z "},"ǁ":{"ha":528,"x_min":126,"x_max":402,"o":"m 227 0 l 126 0 l 126 987 l 227 987 l 227 0 m 402 0 l 301 0 l 301 987 l 402 987 l 402 0 z "},"ǂ":{"ha":461,"x_min":16,"x_max":447,"o":"m 286 0 l 184 0 l 184 987 l 286 987 l 286 0 m 447 630 l 16 630 l 16 732 l 447 732 l 447 630 m 447 286 l 16 286 l 16 389 l 447 389 l 447 286 z "},"ǃ":{"ha":357,"x_min":109,"x_max":257,"o":"m 235 279 l 122 279 l 113 987 l 245 987 l 235 279 m 109 63 q 127 114 109 94 q 182 135 146 135 q 238 114 219 135 q 257 63 257 94 q 238 13 257 33 q 182 -7 219 -7 q 127 13 146 -7 q 109 63 109 33 z "},"Ǆ":{"ha":1615,"x_min":115,"x_max":1560,"o":"m 115 0 l 115 987 l 393 987 q 621 930 522 987 q 774 768 720 873 q 829 527 828 663 l 829 464 q 775 219 829 324 q 621 58 721 114 q 388 0 521 1 l 115 0 m 245 880 l 245 106 l 382 106 q 616 200 532 106 q 700 467 700 294 l 700 524 q 621 786 700 692 q 397 880 542 879 l 245 880 m 996 106 l 1560 106 l 1560 0 l 842 0 l 842 98 l 1383 880 l 850 880 l 850 987 l 1539 987 l 1539 892 l 996 106 m 1202 1137 l 1303 1252 l 1412 1252 l 1412 1245 l 1240 1059 l 1163 1059 l 993 1245 l 993 1252 l 1099 1252 l 1202 1137 z "},"ǅ":{"ha":1510,"x_min":115,"x_max":1463,"o":"m 115 0 l 115 987 l 393 987 q 621 930 522 987 q 774 768 720 873 q 829 527 828 663 l 829 464 q 775 219 829 324 q 621 58 721 114 q 388 0 521 1 l 115 0 m 245 880 l 245 106 l 382 106 q 616 200 532 106 q 700 467 700 294 l 700 524 q 621 786 700 692 q 397 880 542 879 l 245 880 m 1035 102 l 1463 102 l 1463 0 l 881 0 l 881 92 l 1286 630 l 887 630 l 887 734 l 1443 734 l 1443 645 l 1035 102 m 1169 926 l 1271 1027 l 1381 1027 l 1381 1015 l 1208 849 l 1130 849 l 960 1013 l 960 1027 l 1068 1027 l 1169 926 z "},"ǆ":{"ha":1379,"x_min":64,"x_max":1333,"o":"m 64 373 q 144 645 64 542 q 354 747 224 747 q 558 659 483 747 l 558 1058 l 684 1058 l 684 0 l 574 0 l 565 81 q 353 -14 490 -14 q 145 91 225 -14 q 64 363 64 195 l 64 373 m 904 102 l 1333 102 l 1333 0 l 750 0 l 750 92 l 1155 630 l 756 630 l 756 734 l 1312 734 l 1312 645 l 904 102 m 190 359 q 241 163 190 235 q 384 92 292 92 q 558 200 503 92 l 558 537 q 385 641 502 641 q 241 570 293 641 q 190 359 190 498 m 1038 926 l 1140 1027 l 1250 1027 l 1250 1015 l 1078 849 l 999 849 l 829 1013 l 829 1027 l 937 1027 l 1038 926 z "},"Ǥ":{"ha":946,"x_min":83,"x_max":944,"o":"m 844 326 l 944 326 l 944 223 l 844 223 l 844 130 q 704 22 793 58 q 494 -14 614 -14 q 280 43 374 -14 q 135 204 186 100 q 83 446 84 309 l 83 532 q 187 878 83 755 q 479 1001 291 1001 q 728 922 634 1001 q 844 698 823 843 l 713 698 q 480 894 677 894 q 282 802 349 894 q 214 536 214 710 l 214 455 q 290 191 214 289 q 495 93 366 93 q 623 109 568 93 q 714 164 678 125 l 714 223 l 513 223 l 513 326 l 714 326 l 714 386 l 486 386 l 486 492 l 844 492 l 844 326 z "},"ǥ":{"ha":779,"x_min":21,"x_max":772,"o":"m 693 734 l 692 -37 l 772 -37 l 772 -114 l 684 -114 q 579 -275 660 -218 q 382 -333 499 -333 q 226 -298 302 -333 q 111 -205 150 -263 l 176 -131 q 373 -230 258 -230 q 489 -201 441 -230 q 555 -114 536 -172 l 21 -114 l 21 -37 l 568 -37 l 568 74 q 362 -14 492 -14 q 153 91 232 -14 q 74 363 74 195 l 74 373 q 153 646 74 545 q 363 747 233 747 q 573 652 498 747 l 579 734 l 693 734 m 199 359 q 250 164 199 235 q 393 93 301 93 q 568 201 512 93 l 568 536 q 394 641 510 641 q 251 570 302 641 q 199 359 199 498 z "},"Ǯ":{"ha":895,"x_min":55,"x_max":814,"o":"m 414 502 q 713 402 612 502 q 814 109 814 303 q 715 -182 814 -82 q 427 -283 616 -283 q 171 -198 268 -283 q 55 43 73 -113 l 185 43 q 228 -90 200 -45 q 304 -155 256 -134 q 427 -176 353 -176 q 622 -106 560 -176 q 684 109 684 -35 q 620 329 684 259 q 416 399 557 399 l 264 399 l 264 496 l 606 880 l 77 880 l 77 987 l 762 987 l 762 894 l 414 502 m 411 1125 l 513 1240 l 621 1240 l 621 1234 l 449 1048 l 372 1048 l 202 1234 l 202 1240 l 309 1240 l 411 1125 z "},"ǯ":{"ha":808,"x_min":71,"x_max":722,"o":"m 529 630 l 100 630 l 100 734 l 690 734 l 690 654 l 420 318 q 643 231 564 307 q 722 21 722 155 q 631 -190 722 -111 q 389 -268 540 -268 q 227 -233 300 -268 q 113 -134 154 -199 q 71 20 71 -69 l 197 20 q 251 -111 197 -57 q 389 -165 304 -165 q 541 -114 485 -165 q 596 18 596 -64 q 385 220 596 215 l 277 220 l 277 323 l 529 630 m 380 926 l 481 1027 l 591 1027 l 591 1015 l 419 849 l 340 849 l 171 1013 l 171 1027 l 278 1027 l 380 926 z "},"Ƕ":{"ha":1514,"x_min":115,"x_max":1423,"o":"m 1423 733 l 1423 315 q 1331 75 1423 163 q 1082 -13 1238 -13 q 832 74 922 -13 q 743 315 743 161 l 743 456 l 245 456 l 245 0 l 115 0 l 115 987 l 245 987 l 245 563 l 743 563 l 743 987 l 873 987 l 873 315 q 927 147 873 201 q 1082 93 981 93 q 1292 303 1286 93 l 1292 733 l 1423 733 z "},"Ƿ":{"ha":917,"x_min":115,"x_max":835,"o":"m 245 951 q 438 1001 321 1001 q 731 896 629 1001 q 835 595 833 790 l 835 554 q 760 262 835 400 q 550 28 686 124 q 245 -104 414 -68 l 245 -283 l 115 -283 l 115 987 l 245 987 l 245 951 m 438 894 q 245 798 302 894 l 245 5 q 579 211 453 58 q 706 564 706 364 l 706 592 q 638 821 706 749 q 438 894 571 894 z "},"Ȝ":{"ha":833,"x_min":63,"x_max":761,"o":"m 126 321 q 423 436 324 381 q 569 560 522 491 q 615 722 615 629 q 556 848 615 802 q 396 894 498 894 q 251 846 309 894 q 193 728 193 798 l 63 728 q 106 869 63 807 q 227 966 150 932 q 396 1001 303 1001 q 654 927 562 1001 q 746 720 746 854 q 640 477 746 587 q 761 221 761 401 q 697 -11 761 87 q 499 -177 633 -109 q 127 -296 365 -245 l 127 -189 q 419 -96 312 -150 q 578 35 526 -43 q 631 223 631 113 q 613 340 631 296 q 560 409 596 384 q 127 223 399 292 l 126 321 z "},"ȝ":{"ha":698,"x_min":57,"x_max":624,"o":"m 112 240 q 394 360 304 288 q 484 532 484 432 q 445 615 484 585 q 337 645 406 645 q 227 610 271 645 q 182 529 182 576 l 57 529 q 137 686 57 625 q 337 747 217 747 q 538 691 466 747 q 610 533 610 635 q 528 342 610 429 q 624 130 624 269 q 501 -153 624 -48 q 113 -296 378 -257 l 113 -195 q 339 -119 260 -161 q 458 -17 418 -77 q 497 130 497 44 q 450 277 497 226 q 113 144 317 186 l 112 240 z "},"Ƞ":{"ha":917,"x_min":115,"x_max":822,"o":"m 240 944 q 468 1001 345 1001 q 650 961 569 1001 q 777 847 731 922 q 822 675 822 773 l 822 -283 l 696 -283 l 696 673 q 637 837 696 779 q 468 895 578 895 q 240 841 336 895 l 240 0 l 115 0 l 115 987 l 240 987 l 240 944 z "},"ȡ":{"ha":990,"x_min":64,"x_max":970,"o":"m 64 373 q 144 645 64 542 q 354 747 224 747 q 558 659 483 747 l 558 1042 l 684 1042 l 684 41 q 780 60 732 60 q 918 12 865 60 q 970 -117 970 -36 q 914 -246 970 -195 q 769 -296 858 -296 q 642 -263 692 -296 q 572 -170 591 -231 l 484 -267 l 410 -192 l 558 -37 l 558 73 q 353 -14 484 -14 q 145 91 225 -14 q 64 363 64 195 l 64 373 m 190 359 q 241 163 190 234 q 384 93 293 93 q 558 200 503 93 l 558 537 q 385 641 502 641 q 241 570 293 641 q 190 359 190 498 m 764 -42 q 684 -69 724 -42 l 684 -111 q 704 -170 684 -146 q 770 -193 725 -193 q 824 -172 804 -193 q 844 -117 844 -150 q 823 -64 844 -85 q 764 -42 802 -42 z "},"Ȣ":{"ha":927,"x_min":81,"x_max":846,"o":"m 477 605 q 658 643 600 605 q 716 758 716 682 q 685 851 716 818 q 581 900 653 884 l 581 1001 q 775 931 705 995 q 846 758 846 867 q 701 543 846 606 q 807 443 768 505 q 846 294 846 381 q 746 69 846 151 q 465 -14 647 -14 l 455 -14 q 181 68 281 -14 q 81 292 81 149 q 120 443 81 380 q 225 543 159 505 q 81 758 81 606 q 151 931 81 867 q 346 1001 221 995 l 346 900 q 242 852 275 884 q 210 758 210 819 q 268 644 210 682 q 446 605 325 606 l 477 605 m 455 494 q 273 441 336 494 q 210 292 210 389 q 272 148 210 198 q 452 96 333 97 l 471 96 q 652 146 588 96 q 716 294 716 197 q 652 441 716 389 q 468 494 589 494 l 455 494 z "},"ȣ":{"ha":902,"x_min":71,"x_max":831,"o":"m 465 600 q 706 778 706 600 q 671 894 706 852 q 568 960 636 936 l 568 1056 q 760 974 688 1050 q 831 778 831 899 q 684 543 831 610 q 831 294 831 464 q 732 68 831 151 q 454 -14 633 -14 l 443 -14 q 170 68 269 -14 q 71 292 71 151 q 218 543 71 464 q 71 778 71 610 q 142 974 71 899 q 336 1056 214 1050 l 336 960 q 232 894 267 936 q 196 778 196 852 q 436 600 196 600 l 465 600 m 443 496 q 261 443 326 496 q 196 292 196 389 q 261 142 196 195 q 446 88 326 88 l 458 88 q 641 142 575 88 q 706 294 706 197 q 640 443 706 390 q 455 496 574 496 l 443 496 z "},"Ȥ":{"ha":848,"x_min":58,"x_max":823,"o":"m 755 892 l 212 106 l 581 106 q 823 -89 823 106 q 811 -168 823 -133 l 707 -167 q 713 -121 713 -149 q 683 -30 713 -60 q 587 0 652 0 l 58 0 l 58 98 l 600 880 l 67 880 l 67 987 l 755 987 l 755 892 z "},"ȥ":{"ha":712,"x_min":60,"x_max":682,"o":"m 622 645 l 213 102 l 446 102 q 621 62 560 102 q 682 -71 682 21 q 670 -149 682 -114 l 570 -148 q 576 -102 576 -130 q 547 -25 576 -51 q 446 0 517 0 l 60 0 l 60 92 l 465 630 l 66 630 l 66 734 l 622 734 l 622 645 z "},"ȴ":{"ha":593,"x_min":14,"x_max":573,"o":"m 288 41 q 384 60 336 60 q 521 12 469 60 q 573 -117 573 -36 q 517 -246 573 -196 q 373 -296 462 -296 q 245 -263 296 -296 q 176 -170 195 -231 l 87 -267 l 14 -192 l 162 -37 l 162 1042 l 288 1042 l 288 41 m 368 -42 q 288 -69 328 -42 l 288 -111 q 308 -170 288 -146 q 374 -193 329 -193 q 428 -172 408 -193 q 448 -117 448 -150 q 427 -64 448 -85 q 368 -42 406 -42 z "},"ȵ":{"ha":979,"x_min":95,"x_max":958,"o":"m 547 482 q 511 602 547 564 q 399 641 475 641 q 292 608 338 641 q 220 523 246 576 l 220 0 l 95 0 l 95 734 l 214 734 l 218 642 q 437 747 302 747 q 672 485 670 747 l 672 41 q 768 60 720 60 q 906 12 854 60 q 958 -117 958 -36 q 903 -246 958 -196 q 758 -296 847 -296 q 630 -263 680 -296 q 560 -170 580 -231 l 473 -267 l 398 -192 l 547 -37 l 547 482 m 753 -42 q 672 -69 713 -42 l 672 -111 q 693 -170 672 -146 q 759 -193 713 -193 q 813 -172 793 -193 q 832 -117 832 -150 q 811 -64 832 -85 q 753 -42 790 -42 z "},"ȶ":{"ha":598,"x_min":18,"x_max":578,"o":"m 429 637 l 292 637 l 292 323 q 388 342 342 342 q 526 295 473 342 q 578 165 578 247 q 522 36 578 86 q 377 -14 465 -14 q 180 111 224 -14 l 92 15 l 18 90 l 166 245 l 166 637 l 32 637 l 32 734 l 166 734 l 166 911 l 292 911 l 292 734 l 429 734 l 429 637 m 372 240 q 292 213 332 240 l 292 171 q 312 112 292 136 q 378 89 333 89 q 432 111 412 89 q 452 165 452 132 q 431 218 452 197 q 372 240 410 240 z "},"ȷ":{"ha":349,"x_min":-52,"x_max":242,"o":"m 242 734 l 242 -60 q 184 -236 242 -176 q 24 -296 127 -296 q -52 -284 -16 -296 l -42 -184 q 24 -193 -22 -193 q 92 -158 68 -193 q 117 -60 117 -123 l 117 734 l 242 734 z "},"ȸ":{"ha":1244,"x_min":64,"x_max":1179,"o":"m 64 373 q 144 645 64 542 q 354 747 224 747 q 558 659 483 747 l 558 1042 l 684 1042 l 684 653 q 893 747 760 747 q 1103 646 1027 747 q 1179 370 1179 545 l 1179 359 q 1102 89 1179 191 q 895 -14 1025 -14 q 684 79 760 -14 l 684 0 l 568 0 l 562 79 q 353 -14 487 -14 q 145 91 225 -14 q 64 363 64 195 l 64 373 m 1053 373 q 1004 572 1053 503 q 862 641 954 641 q 684 526 738 641 l 684 208 q 863 93 741 93 q 1004 163 954 93 q 1053 373 1053 233 m 190 359 q 241 163 190 234 q 384 93 293 93 q 558 200 503 93 l 558 537 q 385 641 502 641 q 241 570 293 641 q 190 359 190 498 z "},"ȹ":{"ha":1242,"x_min":64,"x_max":1178,"o":"m 1178 359 q 1101 89 1178 191 q 894 -14 1025 -14 q 683 72 759 -14 l 683 -282 l 557 -282 l 557 68 q 355 -14 481 -14 q 143 90 222 -14 q 64 364 64 193 l 64 373 q 144 647 64 546 q 357 747 223 747 q 562 660 487 747 l 568 734 l 673 734 l 678 652 q 892 747 755 747 q 1101 648 1024 747 q 1178 370 1178 548 l 1178 359 m 190 359 q 243 161 190 233 q 387 89 296 89 q 557 188 498 89 l 557 547 q 388 644 498 644 q 243 572 297 644 q 190 359 190 500 m 1053 373 q 1000 569 1053 497 q 854 641 947 641 q 683 539 740 641 l 683 190 q 856 89 740 89 q 999 160 946 89 q 1053 373 1053 232 z "},"Ⱥ":{"ha":906,"x_min":-113,"x_max":910,"o":"m 660 258 l 269 258 l 228 206 l 153 0 l 63 0 l -5 -85 l -113 -85 l 77 153 l 396 987 l 510 987 l 586 789 l 802 1059 l 910 1059 l 621 697 l 888 0 l 754 0 l 660 258 m 355 365 l 621 365 l 538 593 l 355 365 m 317 452 l 504 686 l 453 827 l 317 452 z "},"Ȼ":{"ha":904,"x_min":81,"x_max":841,"o":"m 841 313 q 725 72 823 157 q 467 -14 628 -14 q 337 7 399 -14 l 302 -85 l 212 -85 l 262 44 q 129 203 176 100 q 81 444 81 305 l 81 543 q 130 785 81 680 q 269 945 179 889 q 478 1001 359 1001 q 623 978 559 1001 l 654 1059 l 743 1059 l 696 940 q 841 670 821 855 l 710 670 q 652 823 694 772 l 376 109 q 467 93 416 93 q 633 142 575 93 q 710 313 691 191 l 841 313 m 212 444 q 234 279 212 354 q 305 156 257 204 l 583 875 q 478 894 538 894 q 282 802 353 894 q 212 539 212 709 l 212 444 z "},"ȼ":{"ha":727,"x_min":56,"x_max":681,"o":"m 389 89 q 507 130 456 89 q 562 231 557 170 l 681 231 q 637 111 677 168 q 531 20 597 54 q 389 -14 464 -14 q 262 8 323 -14 l 145 -282 l 56 -282 l 190 49 q 62 362 62 149 l 62 381 q 102 572 62 488 q 215 701 141 655 q 389 747 288 747 q 469 738 430 747 l 571 987 l 660 987 l 546 708 q 643 614 608 673 q 681 481 677 555 l 562 481 q 504 603 555 558 l 302 106 q 389 89 340 89 m 188 353 q 236 162 188 233 l 430 640 q 389 644 408 644 q 240 575 293 644 q 188 376 188 507 l 188 353 z "},"Ƚ":{"ha":795,"x_min":22,"x_max":761,"o":"m 293 106 l 761 106 l 761 0 l 162 0 l 162 987 l 293 987 l 293 106 m 453 446 l 22 446 l 22 548 l 453 548 l 453 446 z "},"Ⱦ":{"ha":829,"x_min":33,"x_max":797,"o":"m 675 1059 l 768 1059 l 732 987 l 797 987 l 797 880 l 677 880 l 479 490 l 479 0 l 350 0 l 350 235 l 187 -85 l 93 -85 l 350 420 l 350 880 l 33 880 l 33 987 l 638 987 l 675 1059 m 479 880 l 479 675 l 584 880 l 479 880 z "},"ȿ":{"ha":716,"x_min":60,"x_max":649,"o":"m 524 195 q 487 272 524 243 q 350 322 450 300 q 197 373 251 345 q 117 439 144 400 q 90 532 90 478 q 167 685 90 623 q 362 747 244 747 q 565 683 488 747 q 642 518 642 618 l 516 518 q 472 607 516 570 q 362 644 429 644 q 255 615 294 644 q 216 536 216 585 q 242 475 216 499 q 332 435 269 452 l 415 416 q 592 334 536 385 q 649 203 649 283 q 571 46 649 106 q 366 -14 492 -14 q 272 -4 314 -14 l 313 -83 q 373 -171 347 -146 q 429 -196 398 -196 q 522 -153 476 -196 l 566 -227 q 496 -278 533 -260 q 427 -296 459 -296 q 325 -261 371 -296 q 231 -142 279 -225 l 60 162 l 149 214 q 237 122 181 155 q 366 89 294 89 q 480 118 437 89 q 524 195 524 146 z "},"ɀ":{"ha":690,"x_min":60,"x_max":760,"o":"m 213 102 l 278 102 q 442 24 374 101 q 526 -102 477 -14 q 615 -195 574 -190 l 623 -196 q 718 -154 671 -196 l 760 -229 q 617 -296 692 -296 q 465 -203 525 -296 l 396 -96 q 236 0 333 -3 l 60 0 l 60 92 l 465 630 l 66 630 l 66 734 l 622 734 l 622 645 l 213 102 z "},"Ɂ":{"ha":747,"x_min":42,"x_max":668,"o":"m 668 559 q 599 320 668 418 q 408 199 530 222 l 408 0 l 277 0 l 277 304 l 345 304 q 488 372 437 307 q 538 563 538 437 l 538 635 q 486 823 538 758 q 338 889 434 889 q 217 845 264 889 q 165 726 170 802 l 42 726 q 129 924 47 848 q 338 1001 211 1001 q 579 900 490 1001 q 668 627 668 798 l 668 559 z "},"ɂ":{"ha":661,"x_min":41,"x_max":598,"o":"m 330 301 q 473 469 473 306 q 431 600 473 555 q 312 644 390 644 q 207 597 248 644 q 166 475 166 550 l 41 475 q 75 616 41 554 q 172 712 109 677 q 312 747 235 747 q 524 675 450 747 q 598 467 598 604 q 544 301 598 363 q 389 224 489 239 l 389 0 l 264 0 l 264 301 l 330 301 z "},"Ƀ":{"ha":912,"x_min":22,"x_max":834,"o":"m 162 0 l 162 987 l 485 987 q 727 921 646 987 q 808 724 808 854 q 768 602 808 655 q 661 519 729 549 q 788 434 741 497 q 834 285 834 372 q 748 76 834 152 q 505 0 662 0 l 162 0 m 292 462 l 292 106 l 507 106 q 651 154 598 106 q 703 283 703 201 q 509 462 703 462 l 292 462 m 292 566 l 489 566 q 626 609 574 566 q 677 725 677 652 q 629 843 677 806 q 485 880 582 880 l 292 880 l 292 566 m 453 235 l 22 235 l 22 338 l 453 338 l 453 235 z "},"Ʉ":{"ha":1076,"x_min":21,"x_max":1055,"o":"m 898 987 l 898 560 l 1055 560 l 1055 458 l 898 458 l 898 319 q 806 84 898 174 q 562 -13 715 -5 l 539 -14 q 279 75 376 -14 q 182 317 183 163 l 182 458 l 21 458 l 21 560 l 182 560 l 182 987 l 312 987 l 312 560 l 767 560 l 767 987 l 898 987 m 539 93 q 708 151 649 93 q 767 316 766 210 l 767 458 l 312 458 l 312 319 q 371 152 312 210 q 539 93 431 93 z "},"Ʌ":{"ha":884,"x_min":18,"x_max":865,"o":"m 441 813 l 161 0 l 18 0 l 384 987 l 499 987 l 865 0 l 724 0 l 441 813 z "},"Ɇ":{"ha":789,"x_min":115,"x_max":742,"o":"m 742 0 l 369 0 l 345 -85 l 256 -85 l 279 0 l 115 0 l 115 987 l 555 987 l 575 1059 l 664 1059 l 644 987 l 735 987 l 735 880 l 614 880 l 526 563 l 673 563 l 673 456 l 496 456 l 399 106 l 742 106 l 742 0 m 245 563 l 437 563 l 525 880 l 245 880 l 245 563 m 245 106 l 309 106 l 407 456 l 245 456 l 245 106 z "},"ɇ":{"ha":736,"x_min":56,"x_max":686,"o":"m 399 -14 q 264 12 326 -14 l 145 -282 l 56 -282 l 191 53 q 63 350 63 150 l 63 370 q 105 565 63 479 q 221 699 146 650 q 384 747 296 747 q 469 737 431 747 l 571 987 l 660 987 l 546 706 q 686 380 686 619 l 686 331 l 393 331 l 305 113 q 406 89 351 89 q 519 116 473 89 q 600 188 565 143 l 676 128 q 399 -14 584 -14 m 384 644 q 256 589 308 644 q 193 434 205 534 l 346 434 l 429 639 q 384 644 408 644 m 560 444 q 503 600 560 543 l 435 434 l 560 434 l 560 444 m 189 331 q 239 171 191 235 l 304 331 l 189 331 z "},"Ɉ":{"ha":831,"x_min":36,"x_max":810,"o":"m 528 987 l 659 987 l 659 288 q 574 66 659 146 q 347 -14 489 -14 q 118 62 200 -14 q 36 273 36 137 l 166 273 q 213 140 166 188 q 347 93 259 93 q 478 144 428 93 q 528 286 528 195 l 528 987 m 810 446 l 378 446 l 378 548 l 810 548 l 810 446 z "},"ɉ":{"ha":473,"x_min":22,"x_max":453,"o":"m 302 734 l 302 -85 q 111 -296 302 -296 q 34 -284 69 -296 l 34 -184 q 91 -189 56 -189 q 155 -166 133 -189 q 177 -87 177 -144 l 177 734 l 302 734 m 164 928 q 183 980 164 958 q 237 1001 201 1001 q 293 980 274 1001 q 312 928 312 959 q 293 878 312 898 q 237 857 274 857 q 182 878 201 857 q 164 928 164 898 m 453 360 l 22 360 l 22 463 l 453 463 l 453 360 z "},"Ɋ":{"ha":988,"x_min":81,"x_max":983,"o":"m 713 26 q 494 -14 622 -14 q 191 114 302 -14 q 81 466 81 242 l 81 532 q 131 777 81 669 q 275 943 181 884 q 494 1001 369 1001 q 735 950 638 1001 l 744 987 l 844 987 l 844 -62 q 865 -158 844 -129 q 936 -188 886 -188 q 981 -182 963 -188 l 983 -284 q 904 -296 946 -296 q 713 -58 713 -296 l 713 26 m 494 97 q 625 114 571 97 q 713 170 678 131 l 713 817 q 622 874 674 858 q 494 890 569 890 q 285 796 357 890 q 210 539 212 702 l 210 455 q 284 192 210 286 q 494 97 357 97 z "},"ɋ":{"ha":821,"x_min":64,"x_max":829,"o":"m 64 373 q 144 647 64 546 q 357 747 223 747 q 562 660 487 747 l 568 734 l 683 734 l 683 -99 q 787 -205 686 -205 q 828 -201 814 -205 l 829 -288 q 761 -296 793 -296 q 614 -240 671 -296 q 557 -90 557 -184 l 557 68 q 355 -14 481 -14 q 143 90 222 -14 q 64 364 64 193 l 64 373 m 190 359 q 243 161 190 233 q 387 89 296 89 q 557 188 498 89 l 557 547 q 388 644 498 644 q 243 572 297 644 q 190 359 190 500 z "},"Ɍ":{"ha":897,"x_min":25,"x_max":874,"o":"m 520 399 l 288 399 l 288 0 l 157 0 l 157 399 l 25 399 l 25 506 l 157 506 l 157 987 l 484 987 q 741 911 651 987 q 830 690 830 836 q 781 529 830 598 q 642 427 731 460 l 874 8 l 874 0 l 734 0 l 520 399 m 288 506 l 488 506 q 643 556 585 506 q 700 690 700 606 q 645 831 700 782 q 488 880 591 880 l 288 880 l 288 506 z "},"ɍ":{"ha":532,"x_min":22,"x_max":511,"o":"m 511 621 q 449 626 482 626 q 281 521 326 626 l 281 0 l 156 0 l 156 734 l 278 734 l 280 649 q 455 747 342 747 q 511 738 492 747 l 511 621 m 453 334 l 22 334 l 22 437 l 453 437 l 453 334 z "},"Ɏ":{"ha":937,"x_min":21,"x_max":916,"o":"m 309 799 l 627 799 l 725 987 l 873 987 l 770 799 l 916 799 l 916 722 l 727 722 l 533 368 l 533 0 l 402 0 l 402 368 l 208 722 l 21 722 l 21 799 l 165 799 l 62 987 l 211 987 l 309 799 m 467 492 l 587 722 l 349 722 l 467 492 z "},"ɏ":{"ha":711,"x_min":21,"x_max":690,"o":"m 258 512 l 469 512 l 538 734 l 672 734 l 595 512 l 690 512 l 690 434 l 568 434 l 378 -113 q 160 -296 309 -296 l 136 -294 l 90 -286 l 89 -184 l 123 -186 q 223 -161 187 -186 q 281 -66 258 -135 l 309 7 l 155 434 l 21 434 l 21 512 l 127 512 l 47 734 l 184 734 l 258 512 m 368 184 l 445 434 l 284 434 l 368 184 z "},"ɐ":{"ha":755,"x_min":76,"x_max":682,"o":"m 207 734 q 224 656 218 709 q 433 747 312 747 q 612 686 542 747 q 682 530 682 624 q 594 352 682 416 q 348 288 507 288 l 227 288 l 227 231 q 266 126 227 165 q 382 87 305 87 q 495 121 449 87 q 541 203 541 155 l 666 203 q 627 97 666 148 q 522 16 588 45 q 374 -14 455 -14 q 174 51 247 -14 q 101 233 101 116 l 101 564 q 76 722 101 664 l 76 734 l 207 734 m 415 637 q 302 606 355 637 q 227 528 250 575 l 227 377 l 326 377 q 555 512 555 377 q 516 604 555 571 q 415 637 477 637 z "},"ɑ":{"ha":817,"x_min":66,"x_max":774,"o":"m 681 734 l 681 193 q 735 98 682 98 q 758 102 748 98 l 774 9 q 690 -14 741 -14 q 566 98 591 -14 q 351 -14 493 -14 q 143 82 220 -14 q 66 344 66 178 l 66 353 q 143 640 66 532 q 353 747 220 747 q 563 637 490 747 l 574 734 l 681 734 m 192 339 q 241 154 192 220 q 382 88 291 88 q 555 215 500 88 l 555 516 q 384 644 499 644 q 242 567 293 644 q 192 339 192 490 z "},"ɒ":{"ha":817,"x_min":43,"x_max":751,"o":"m 136 -1 l 136 539 q 82 634 135 634 q 58 631 70 634 l 43 724 q 126 747 75 747 q 252 635 224 747 q 465 747 325 747 q 667 659 591 747 q 750 419 743 570 l 751 379 q 674 93 751 200 q 464 -14 598 -14 q 254 94 326 -14 l 242 -1 l 136 -1 m 625 393 q 575 579 625 513 q 435 644 525 644 q 262 518 319 644 l 262 216 q 433 88 318 88 q 574 164 524 88 q 625 393 625 240 z "},"ɓ":{"ha":781,"x_min":95,"x_max":716,"o":"m 298 1059 q 366 1048 336 1059 l 366 962 q 325 967 351 967 q 220 861 223 967 l 220 653 q 430 747 296 747 q 640 646 564 747 q 716 370 716 545 l 716 359 q 639 89 716 191 q 431 -14 562 -14 q 216 85 292 -14 l 210 0 l 95 0 l 95 852 q 152 1003 95 947 q 298 1059 208 1059 m 591 373 q 541 571 591 501 q 399 641 492 641 q 220 526 275 641 l 220 208 q 400 93 278 93 q 541 163 490 93 q 591 373 591 233 z "},"ɔ":{"ha":727,"x_min":45,"x_max":664,"o":"m 164 231 q 220 130 170 171 q 338 89 270 89 q 486 157 433 89 q 538 357 538 225 l 538 381 q 486 575 538 507 q 338 644 433 644 q 218 598 267 644 q 164 481 170 553 l 45 481 q 133 673 51 600 q 338 747 214 747 q 576 647 488 747 q 664 373 664 547 l 664 353 q 624 161 664 245 q 511 32 585 77 q 338 -14 438 -14 q 197 20 263 -14 q 90 111 130 54 q 45 231 49 168 l 164 231 z "},"ɕ":{"ha":734,"x_min":27,"x_max":689,"o":"m 196 353 q 217 215 196 273 q 360 335 295 298 q 500 371 426 371 q 640 328 591 371 q 689 211 689 284 q 605 51 689 115 q 400 -14 522 -14 q 212 39 288 -14 l 115 -87 l 27 -17 l 134 119 q 71 356 71 213 l 71 381 q 110 573 71 489 q 223 702 150 656 q 397 747 296 747 q 602 673 520 747 q 689 481 684 600 l 570 481 q 516 598 565 553 q 397 644 468 644 q 249 575 301 644 q 196 376 196 507 l 196 353 m 571 198 q 551 248 571 229 q 494 267 532 267 q 396 231 447 267 q 282 123 345 195 q 399 89 328 89 q 521 120 471 89 q 571 198 571 151 z "},"ɖ":{"ha":820,"x_min":62,"x_max":828,"o":"m 62 373 q 142 645 62 542 q 353 747 222 747 q 557 659 481 747 l 557 1042 l 682 1042 l 682 -99 q 787 -205 685 -205 q 827 -201 814 -205 l 828 -288 q 760 -296 791 -296 q 613 -240 670 -296 q 557 -90 557 -184 l 557 73 q 351 -14 481 -14 q 202 34 268 -14 q 99 166 136 81 q 62 373 62 252 m 189 359 q 240 163 189 234 q 382 93 292 93 q 557 200 502 93 l 557 536 q 384 641 500 641 q 240 570 292 641 q 189 359 189 498 z "},"ɗ":{"ha":820,"x_min":62,"x_max":828,"o":"m 62 373 q 142 645 62 542 q 353 747 222 747 q 557 659 481 747 l 557 852 q 613 1003 557 947 q 760 1059 669 1059 q 828 1048 798 1059 l 827 962 q 787 967 812 967 q 682 861 685 967 l 682 0 l 573 0 l 564 82 q 351 -14 489 -14 q 202 34 268 -14 q 99 166 136 81 q 62 373 62 252 m 189 359 q 240 163 189 235 q 382 92 291 92 q 557 200 501 92 l 557 536 q 384 641 500 641 q 240 570 292 641 q 189 359 189 498 z "},"ɘ":{"ha":736,"x_min":50,"x_max":673,"o":"m 336 -14 q 60 128 152 -14 l 136 188 q 330 89 212 89 q 485 157 425 89 q 547 331 545 224 l 50 331 l 50 387 q 130 653 50 559 q 352 747 209 747 q 513 700 438 747 q 629 568 587 652 q 673 378 671 484 l 673 341 q 631 158 673 239 q 512 32 589 77 q 336 -14 435 -14 m 176 434 l 543 434 q 479 590 530 536 q 352 644 428 644 q 227 592 273 644 q 176 444 181 539 l 176 434 z "},"ə":{"ha":732,"x_min":66,"x_max":679,"o":"m 347 748 q 587 646 496 748 q 679 376 679 545 l 679 351 q 637 166 679 250 q 522 34 595 82 q 366 -13 448 -14 q 145 73 224 -13 q 66 317 66 159 l 66 396 l 553 396 q 493 578 548 510 q 347 646 439 646 q 137 572 220 646 l 87 657 q 347 748 182 748 m 366 90 q 483 145 432 90 q 549 294 534 201 l 193 294 l 193 276 q 239 140 193 191 q 366 90 286 90 z "},"ɚ":{"ha":965,"x_min":50,"x_max":951,"o":"m 336 747 q 539 684 454 747 q 657 509 625 621 l 786 534 q 825 375 802 414 q 892 336 849 336 q 936 340 911 336 l 951 262 q 865 240 908 240 q 759 280 798 240 q 703 413 720 321 l 672 407 l 673 363 q 631 168 673 254 q 514 34 589 82 q 352 -14 439 -14 q 129 81 208 -14 q 50 349 50 175 l 50 389 l 534 484 q 458 601 513 557 q 330 644 404 644 q 136 545 212 644 l 60 605 q 177 712 106 677 q 336 747 248 747 m 352 89 q 493 160 441 89 q 547 354 545 232 l 547 382 l 176 310 l 176 290 q 223 144 176 199 q 352 89 270 89 z "},"ɛ":{"ha":749,"x_min":67,"x_max":681,"o":"m 194 206 q 244 121 194 154 q 374 87 294 87 q 503 125 450 87 q 555 217 555 162 l 681 217 q 594 49 681 112 q 374 -14 508 -14 q 151 46 235 -14 q 67 206 67 106 q 206 377 67 332 q 113 443 146 401 q 80 534 80 484 q 158 690 80 634 q 374 747 237 747 q 584 686 500 747 q 669 529 669 625 l 543 529 q 495 611 543 576 q 374 645 446 645 q 252 614 298 645 q 206 533 206 583 q 372 425 206 425 l 505 425 l 505 324 l 353 324 q 194 206 194 320 z "},"ɜ":{"ha":749,"x_min":68,"x_max":682,"o":"m 543 533 q 497 614 543 583 q 375 645 451 645 q 254 611 302 645 q 205 529 205 576 l 80 529 q 164 686 80 625 q 375 747 249 747 q 590 690 512 747 q 669 534 669 634 q 635 443 669 484 q 543 377 602 401 q 682 206 682 332 q 597 46 682 106 q 375 -14 513 -14 q 154 49 241 -14 q 68 217 68 112 l 193 217 q 246 125 193 162 q 375 87 298 87 q 505 121 455 87 q 555 206 555 154 q 396 324 555 320 l 243 324 l 243 425 l 377 425 q 543 533 543 425 z "},"ɝ":{"ha":987,"x_min":68,"x_max":974,"o":"m 543 533 q 497 614 543 583 q 375 645 451 645 q 254 611 302 645 q 205 529 205 576 l 80 529 q 164 686 80 625 q 375 747 249 747 q 556 710 483 747 q 656 607 630 674 l 808 636 q 847 478 823 517 q 913 439 871 439 q 958 443 933 439 l 974 364 q 888 342 933 342 q 782 382 821 342 q 726 515 743 421 l 665 503 q 543 377 644 418 q 682 206 682 332 q 597 46 682 106 q 375 -14 513 -14 q 154 49 241 -14 q 68 217 68 112 l 193 217 q 246 125 193 162 q 375 87 298 87 q 505 121 455 87 q 555 206 555 154 q 396 324 555 320 l 243 324 l 243 425 l 377 425 q 543 533 543 425 z "},"ɞ":{"ha":724,"x_min":65,"x_max":657,"o":"m 644 534 q 614 443 644 484 q 529 377 584 401 q 657 206 657 334 q 579 46 657 105 q 373 -13 501 -13 q 144 87 224 -13 q 65 376 65 186 q 145 653 65 559 q 373 747 226 747 q 572 691 501 747 q 644 534 644 635 m 373 645 q 237 577 284 645 q 191 376 191 509 q 236 161 191 234 q 373 87 281 87 q 487 120 444 87 q 530 206 530 153 q 493 295 530 268 q 378 321 456 321 l 302 321 l 302 427 l 389 427 q 517 533 517 431 q 479 614 517 584 q 373 645 440 645 z "},"ɟ":{"ha":452,"x_min":46,"x_max":446,"o":"m 315 734 l 315 102 l 446 102 l 446 0 l 315 0 l 315 -85 q 123 -296 315 -296 q 46 -284 81 -296 l 46 -184 q 104 -189 68 -189 q 168 -166 146 -189 q 190 -87 190 -144 l 190 0 l 47 0 l 47 102 l 190 102 l 190 734 l 315 734 z "},"ɠ":{"ha":823,"x_min":65,"x_max":831,"o":"m 65 373 q 144 646 65 545 q 355 747 224 747 q 559 659 484 747 l 559 726 q 616 877 559 821 q 762 932 673 932 q 831 922 799 932 l 829 836 q 789 841 812 841 q 685 735 688 841 l 685 18 q 601 -207 685 -125 q 374 -289 516 -289 q 218 -255 294 -289 q 102 -162 142 -221 l 168 -87 q 365 -186 248 -186 q 508 -135 456 -186 q 559 10 559 -83 l 559 73 q 353 -14 484 -14 q 145 90 224 -14 q 65 373 65 194 m 191 359 q 242 164 191 235 q 385 93 293 93 q 559 201 503 93 l 559 536 q 386 641 501 641 q 243 570 294 641 q 191 359 191 498 z "},"ɡ":{"ha":780,"x_min":65,"x_max":685,"o":"m 65 373 q 144 646 65 545 q 355 747 224 747 q 564 652 489 747 l 570 734 l 685 734 l 685 18 q 601 -207 685 -125 q 374 -289 516 -289 q 218 -255 294 -289 q 102 -162 142 -221 l 168 -87 q 365 -186 248 -186 q 508 -135 456 -186 q 559 10 559 -83 l 559 73 q 353 -14 484 -14 q 145 90 224 -14 q 65 373 65 194 m 191 359 q 242 164 191 235 q 385 93 293 93 q 559 201 503 93 l 559 536 q 386 641 501 641 q 243 570 294 641 q 191 359 191 498 z "},"ɢ":{"ha":834,"x_min":77,"x_max":755,"o":"m 755 106 q 706 61 739 84 q 628 22 673 39 q 427 -13 535 -13 q 175 77 273 -13 q 77 317 77 168 l 77 423 q 121 591 77 517 q 245 706 165 665 q 424 747 325 747 q 646 683 564 747 q 740 500 728 619 l 614 500 q 559 609 605 572 q 424 646 513 646 q 265 582 327 646 q 203 420 203 519 l 203 313 q 266 151 203 214 q 427 88 328 88 q 542 102 490 88 q 618 138 593 115 l 618 269 l 439 269 l 439 371 l 755 371 l 755 106 z "},"ɣ":{"ha":756,"x_min":20,"x_max":736,"o":"m 204 -132 q 231 -29 204 -85 l 315 146 l 20 734 l 157 734 l 379 278 l 600 734 l 736 734 l 444 146 l 529 -28 q 551 -132 551 -76 q 506 -249 551 -208 q 378 -291 460 -291 q 250 -249 296 -291 q 204 -132 204 -208 m 426 -132 q 379 17 426 -81 q 330 -132 330 -87 q 378 -184 330 -184 q 426 -132 426 -184 z "},"ɤ":{"ha":881,"x_min":20,"x_max":861,"o":"m 781 566 q 697 622 738 622 q 635 597 662 622 q 568 503 609 572 l 511 405 l 563 313 q 618 147 618 209 q 573 29 618 72 q 440 -14 527 -14 q 308 29 353 -14 q 262 147 262 72 q 315 307 262 206 l 369 405 l 307 510 q 244 597 270 572 q 184 622 218 622 q 100 566 143 622 l 20 644 q 111 724 68 701 q 203 747 153 747 q 315 701 261 747 q 440 532 370 654 q 564 700 510 653 q 677 747 618 747 q 770 725 728 747 q 861 644 812 702 l 781 566 m 493 147 q 440 279 493 185 q 401 202 415 233 q 388 147 388 171 q 440 93 388 93 q 493 147 493 93 z "},"ɥ":{"ha":765,"x_min":92,"x_max":669,"o":"m 544 88 q 328 -13 460 -13 q 92 243 96 -13 l 92 734 l 218 734 l 218 252 q 254 131 218 169 q 365 92 290 92 q 472 125 426 92 q 544 210 517 157 l 544 734 l 669 734 l 669 -282 l 544 -282 l 544 88 z "},"ɦ":{"ha":765,"x_min":95,"x_max":672,"o":"m 220 645 q 437 747 304 747 q 672 485 670 747 l 672 0 l 547 0 l 547 486 q 510 603 546 565 q 399 641 475 641 q 292 608 338 641 q 220 523 246 576 l 220 0 l 95 0 l 95 852 q 152 1003 95 947 q 298 1059 208 1059 q 366 1048 336 1059 l 366 962 q 325 967 351 967 q 220 861 223 967 l 220 645 z "},"ɧ":{"ha":765,"x_min":95,"x_max":672,"o":"m 547 482 q 511 602 547 564 q 399 641 475 641 q 292 608 338 641 q 220 523 246 576 l 220 0 l 95 0 l 95 852 q 152 1003 95 947 q 298 1059 208 1059 q 366 1048 336 1059 l 366 962 q 325 967 351 967 q 220 861 223 967 l 220 645 q 437 747 304 747 q 672 485 670 747 l 672 -43 q 615 -192 672 -136 q 469 -248 559 -248 q 401 -237 429 -248 l 401 -151 q 442 -157 420 -157 q 547 -51 544 -157 l 547 482 z "},"ɨ":{"ha":461,"x_min":16,"x_max":447,"o":"m 292 0 l 167 0 l 167 734 l 292 734 l 292 0 m 157 928 q 175 980 157 959 q 231 1001 194 1001 q 286 980 267 1001 q 305 928 305 959 q 286 878 305 898 q 231 857 267 857 q 175 878 194 857 q 157 928 157 898 m 447 360 l 16 360 l 16 463 l 447 463 l 447 360 z "},"ɩ":{"ha":394,"x_min":92,"x_max":363,"o":"m 218 734 l 218 183 q 322 77 220 77 q 363 81 349 77 l 363 -5 q 296 -14 328 -14 q 148 42 204 -14 q 92 192 92 98 l 92 734 l 218 734 z "},"ɪ":{"ha":466,"x_min":68,"x_max":397,"o":"m 397 0 l 68 0 l 68 103 l 169 103 l 169 630 l 68 630 l 68 734 l 397 734 l 397 630 l 294 630 l 294 103 l 397 103 l 397 0 z "},"ɫ":{"ha":497,"x_min":9,"x_max":488,"o":"m 307 0 l 182 0 l 182 1042 l 307 1042 l 307 0 m 488 612 q 447 494 488 539 q 342 448 405 448 q 294 455 315 448 q 241 483 274 462 q 194 508 208 504 q 160 513 179 513 q 113 491 132 513 q 93 437 93 470 l 9 441 q 50 562 9 514 q 154 609 91 609 q 197 602 178 609 q 248 576 216 595 q 298 550 281 556 q 336 544 315 544 q 385 567 366 544 q 404 621 404 590 l 488 612 z "},"ɬ":{"ha":602,"x_min":21,"x_max":587,"o":"m 432 492 l 587 492 l 587 390 l 432 390 l 432 0 l 307 0 l 307 390 l 213 390 q 73 438 125 390 q 21 568 21 486 q 77 696 21 646 q 221 747 132 747 q 307 734 268 747 l 307 1042 l 432 1042 l 432 492 m 146 568 q 168 514 146 536 q 226 492 189 492 l 307 492 l 307 555 q 220 644 307 644 q 166 622 186 644 q 146 568 146 600 z "},"ɭ":{"ha":451,"x_min":145,"x_max":416,"o":"m 271 1042 l 271 -99 q 375 -205 273 -205 q 415 -201 402 -205 l 416 -288 q 348 -296 379 -296 q 202 -240 258 -296 q 145 -90 145 -184 l 145 1042 l 271 1042 z "},"ɮ":{"ha":842,"x_min":106,"x_max":755,"o":"m 231 734 l 724 734 l 725 654 l 442 292 q 674 208 593 285 q 755 -6 755 130 q 665 -217 755 -138 q 424 -296 575 -296 q 207 -235 290 -296 q 106 -62 124 -174 l 231 -62 q 294 -160 245 -126 q 424 -193 344 -193 q 574 -143 517 -193 q 630 -9 630 -92 q 573 145 630 98 q 409 193 517 193 l 312 193 l 312 295 l 576 631 l 231 631 l 231 0 l 106 0 l 106 1042 l 231 1042 l 231 734 z "},"ɯ":{"ha":1217,"x_min":94,"x_max":1123,"o":"m 783 -14 q 573 104 629 -14 q 478 19 536 52 q 340 -14 419 -14 q 94 238 99 -14 l 94 734 l 220 734 l 220 250 q 255 132 220 171 q 376 92 291 92 q 493 135 448 92 q 546 245 538 178 l 546 734 l 671 734 l 671 250 q 829 92 672 92 q 997 195 951 92 l 997 734 l 1123 734 l 1123 0 l 1004 0 l 1000 80 q 783 -14 922 -14 z "},"ɰ":{"ha":1217,"x_min":94,"x_max":1123,"o":"m 997 -282 l 997 76 q 783 -14 919 -14 q 573 104 629 -14 q 478 19 536 52 q 340 -14 419 -14 q 94 238 99 -14 l 94 734 l 220 734 l 220 250 q 255 132 220 171 q 376 92 291 92 q 493 135 448 92 q 546 245 538 178 l 546 734 l 671 734 l 671 250 q 829 92 672 92 q 997 195 951 92 l 997 734 l 1123 734 l 1123 -282 l 997 -282 z "},"ɱ":{"ha":1217,"x_min":94,"x_max":1123,"o":"m 893 -205 q 998 -99 995 -205 l 998 483 q 962 602 998 563 q 841 641 926 641 q 725 599 771 641 q 671 487 679 557 l 671 0 l 545 0 l 545 481 q 389 641 545 641 q 220 536 265 641 l 220 0 l 94 0 l 94 734 l 213 734 l 216 652 q 434 747 297 747 q 644 629 588 747 q 739 715 680 682 q 878 747 798 747 q 1123 492 1119 747 l 1123 -92 q 1066 -240 1123 -184 q 920 -296 1010 -296 q 852 -286 884 -296 l 852 -199 q 893 -205 871 -205 z "},"ɲ":{"ha":809,"x_min":-8,"x_max":715,"o":"m 256 734 l 260 642 q 479 747 345 747 q 715 490 711 747 l 715 0 l 589 0 l 589 483 q 553 603 589 564 q 442 641 517 641 q 335 608 381 641 q 263 524 289 576 l 263 -91 q 206 -240 263 -184 q 60 -296 149 -296 q -8 -286 24 -296 l -7 -199 q 33 -205 9 -205 q 137 -99 134 -205 l 137 734 l 256 734 z "},"ɳ":{"ha":810,"x_min":95,"x_max":818,"o":"m 547 482 q 511 602 547 564 q 399 641 475 641 q 292 608 338 641 q 220 523 246 576 l 220 0 l 95 0 l 95 734 l 214 734 l 218 642 q 437 747 302 747 q 672 485 670 747 l 672 -99 q 777 -205 675 -205 q 817 -201 803 -205 l 818 -288 q 750 -296 783 -296 q 603 -240 660 -296 q 547 -90 547 -184 l 547 482 z "},"ɴ":{"ha":779,"x_min":95,"x_max":684,"o":"m 220 0 l 95 0 l 95 734 l 220 734 l 559 196 l 559 734 l 684 734 l 684 0 l 559 0 l 220 538 l 220 0 z "},"ɶ":{"ha":1166,"x_min":83,"x_max":1107,"o":"m 1048 320 l 705 320 l 705 101 l 1107 101 l 1107 0 l 644 0 l 604 -1 l 454 -13 l 418 -14 q 175 91 267 -14 q 83 365 83 195 l 83 374 q 125 567 83 481 q 243 700 167 653 q 416 747 319 747 q 534 741 458 747 q 664 734 609 734 l 1107 734 l 1107 632 l 705 632 l 705 422 l 1048 422 l 1048 320 m 418 89 l 462 90 l 578 98 l 578 635 q 416 644 460 644 q 266 570 323 644 q 209 359 209 496 q 266 163 209 237 q 418 89 322 89 z "},"ɷ":{"ha":1143,"x_min":83,"x_max":1059,"o":"m 83 335 q 145 553 83 456 q 317 698 208 650 q 570 747 426 747 q 828 697 720 747 q 998 552 937 648 q 1059 337 1059 456 q 987 83 1059 181 q 791 -14 916 -14 q 571 146 627 -14 q 352 -14 513 -14 q 154 84 224 -14 q 83 335 83 182 m 634 452 l 634 315 q 673 147 635 205 q 785 88 711 88 q 893 159 853 88 q 933 337 933 229 q 840 566 933 488 q 571 644 746 644 q 302 566 395 644 q 209 337 209 488 q 249 159 209 229 q 358 88 289 88 q 469 146 431 88 q 508 315 507 203 l 508 452 l 634 452 z "},"ɸ":{"ha":792,"x_min":62,"x_max":730,"o":"m 333 -8 q 135 113 208 14 q 62 363 62 213 l 62 374 q 136 620 62 519 q 333 742 210 721 l 333 1042 l 458 1042 l 458 742 q 656 620 583 720 q 730 369 730 519 l 730 359 q 656 113 730 213 q 458 -8 583 14 l 458 -282 l 333 -282 l 333 -8 m 604 374 q 565 541 604 471 q 458 634 526 612 l 458 98 q 565 189 526 119 q 604 374 604 259 m 188 359 q 225 192 188 262 q 333 98 263 121 l 333 635 q 226 541 264 612 q 188 359 188 471 z "},"ɹ":{"ha":470,"x_min":20,"x_max":375,"o":"m 76 -14 q 20 -4 39 -14 l 20 112 q 82 107 49 107 q 250 212 205 107 l 250 734 l 375 734 l 375 0 l 253 0 l 250 84 q 76 -14 191 -14 z "},"ɺ":{"ha":470,"x_min":20,"x_max":375,"o":"m 20 112 q 82 107 49 107 q 250 212 205 107 l 250 1042 l 375 1042 l 375 0 l 253 0 l 250 84 q 76 -14 191 -14 q 20 -4 39 -14 l 20 112 z "},"ɻ":{"ha":513,"x_min":20,"x_max":521,"o":"m 20 112 q 82 107 49 107 q 250 212 205 107 l 250 734 l 375 734 l 375 -99 q 479 -205 378 -205 q 520 -201 506 -205 l 521 -288 q 453 -296 486 -296 q 306 -240 363 -296 q 250 -90 250 -184 l 250 82 q 76 -14 189 -14 q 20 -4 39 -14 l 20 112 z "},"ɼ":{"ha":470,"x_min":95,"x_max":450,"o":"m 450 621 q 388 626 421 626 q 220 521 264 626 l 220 -282 l 95 -282 l 95 734 l 217 734 l 219 649 q 394 747 281 747 q 450 738 431 747 l 450 621 z "},"ɽ":{"ha":470,"x_min":95,"x_max":450,"o":"m 450 621 q 388 626 421 626 q 220 521 264 626 l 220 -92 q 325 -205 220 -205 q 366 -201 351 -205 l 366 -288 q 298 -296 331 -296 q 152 -240 208 -296 q 95 -90 95 -184 l 95 734 l 217 734 l 219 649 q 394 747 281 747 q 450 738 431 747 l 450 621 z "},"ɾ":{"ha":387,"x_min":95,"x_max":366,"o":"m 95 0 l 95 540 q 152 691 95 635 q 298 747 208 747 q 366 736 336 747 l 366 650 q 325 655 349 655 q 220 549 223 655 l 220 0 l 95 0 z "},"ɿ":{"ha":387,"x_min":20,"x_max":292,"o":"m 165 -282 l 165 550 q 61 656 163 656 q 21 652 34 656 l 20 739 q 88 747 56 747 q 234 692 177 747 q 292 541 292 636 l 292 -282 l 165 -282 z "},"ʀ":{"ha":760,"x_min":77,"x_max":701,"o":"m 383 734 q 586 672 510 734 q 662 510 662 611 q 624 384 662 438 q 515 304 587 330 l 701 0 l 565 0 l 391 286 l 202 286 l 202 0 l 77 0 l 77 734 l 383 734 m 202 389 l 398 389 q 498 421 460 389 q 536 509 536 454 q 496 596 536 562 q 389 632 456 631 l 202 632 l 202 389 z "},"ʁ":{"ha":760,"x_min":77,"x_max":701,"o":"m 77 0 l 77 734 l 202 734 l 202 448 l 391 448 l 565 734 l 701 734 l 515 429 q 624 349 587 403 q 662 223 662 295 q 587 62 662 123 q 385 0 511 1 l 77 0 m 202 345 l 202 101 l 383 101 q 494 135 453 101 q 536 224 536 170 q 498 312 536 279 q 399 345 460 345 l 202 345 z "},"ʂ":{"ha":716,"x_min":64,"x_max":648,"o":"m 522 195 q 484 274 522 245 q 350 322 446 302 q 199 371 255 342 q 116 439 143 399 q 90 532 90 478 q 166 685 90 623 q 361 747 242 747 q 563 683 486 747 q 641 518 641 618 l 515 518 q 471 607 515 570 q 361 644 427 644 q 254 614 292 644 q 215 536 215 585 q 251 468 215 491 q 381 424 287 445 q 533 374 475 403 q 620 303 591 345 q 648 203 648 262 q 569 46 648 105 q 365 -14 490 -14 q 190 27 262 -14 l 190 -99 q 294 -205 193 -205 q 335 -199 316 -205 l 336 -286 q 268 -296 303 -296 q 121 -240 178 -296 q 64 -90 64 -184 l 64 226 l 190 226 q 240 126 193 163 q 365 89 288 89 q 479 118 436 89 q 522 195 522 146 z "},"ʃ":{"ha":570,"x_min":20,"x_max":549,"o":"m 222 811 q 285 991 222 927 q 463 1056 348 1056 q 549 1044 507 1056 l 543 943 q 475 949 511 949 q 381 913 414 949 q 347 811 347 878 l 347 -50 q 284 -232 347 -167 q 106 -296 222 -296 q 20 -285 63 -296 l 26 -183 q 94 -189 58 -189 q 189 -154 155 -189 q 222 -52 222 -118 l 222 811 z "},"ʄ":{"ha":570,"x_min":20,"x_max":549,"o":"m 222 811 q 285 991 222 927 q 463 1056 348 1056 q 549 1044 507 1056 l 543 943 q 475 949 511 949 q 381 913 414 949 q 347 811 347 878 l 347 -50 q 284 -232 347 -167 q 106 -296 222 -296 q 20 -285 63 -296 l 26 -183 q 94 -189 58 -189 q 189 -154 155 -189 q 222 -52 222 -118 l 222 811 m 503 0 l 71 0 l 71 102 l 503 102 l 503 0 z "},"ʅ":{"ha":570,"x_min":20,"x_max":549,"o":"m 475 -189 q 543 -183 511 -189 l 549 -285 q 463 -296 507 -296 q 285 -232 349 -296 q 222 -50 222 -168 l 222 503 q 189 605 222 569 q 94 640 155 640 q 26 634 58 640 l 20 736 q 106 747 63 747 q 284 683 222 747 q 347 501 347 618 l 347 -52 q 381 -154 347 -118 q 475 -189 414 -189 z "},"ʆ":{"ha":634,"x_min":19,"x_max":633,"o":"m 579 -192 l 505 -267 l 417 -171 q 221 -296 372 -296 q 75 -246 131 -296 q 19 -117 19 -195 q 71 12 19 -36 q 209 60 123 60 q 305 41 257 60 l 305 809 q 368 991 305 927 q 547 1056 431 1056 q 633 1044 590 1056 l 626 943 q 558 949 594 949 q 464 913 497 949 q 431 811 431 878 l 431 -39 l 579 -192 m 220 -193 q 305 -104 305 -193 l 305 -69 q 224 -42 263 -42 q 166 -64 187 -42 q 145 -117 145 -85 q 165 -172 145 -150 q 220 -193 185 -193 z "},"ʇ":{"ha":454,"x_min":47,"x_max":448,"o":"m 51 274 l 188 274 l 188 730 q 170 795 188 773 q 107 817 151 817 q 48 809 83 817 l 47 911 q 144 925 90 925 q 271 874 229 925 q 314 730 314 823 l 314 274 l 448 274 l 448 178 l 314 178 l 314 0 l 188 0 l 188 178 l 51 178 l 51 274 z "},"ʈ":{"ha":459,"x_min":6,"x_max":411,"o":"m 265 911 l 265 734 l 402 734 l 402 637 l 265 637 l 265 -92 q 293 -179 265 -153 q 370 -205 320 -205 q 410 -201 396 -205 l 411 -288 q 343 -296 376 -296 q 196 -240 253 -296 q 140 -90 140 -184 l 140 637 l 6 637 l 6 734 l 140 734 l 140 911 l 265 911 z "},"ʉ":{"ha":878,"x_min":15,"x_max":863,"o":"m 863 334 l 728 334 l 728 0 l 608 0 l 605 73 q 391 -14 532 -14 q 213 54 274 -14 q 150 253 151 121 l 150 334 l 15 334 l 15 437 l 150 437 l 150 734 l 275 734 l 275 437 l 602 437 l 602 734 l 728 734 l 728 437 l 863 437 l 863 334 m 410 93 q 602 199 553 93 l 602 334 l 275 334 l 275 258 q 410 93 275 93 z "},"ʊ":{"ha":846,"x_min":72,"x_max":774,"o":"m 422 88 q 590 142 532 88 q 648 292 648 195 q 637 368 648 332 q 595 467 627 404 q 559 550 564 530 q 553 588 553 570 q 610 707 553 667 q 772 747 666 747 l 772 645 q 679 572 679 645 q 688 527 679 550 q 726 452 697 504 q 774 267 774 366 q 683 58 774 131 q 422 -14 592 -14 q 161 59 250 -14 q 72 267 72 133 q 120 452 72 366 q 158 526 149 503 q 168 572 168 550 q 75 645 168 645 l 75 747 q 237 707 180 747 q 293 588 293 667 q 278 525 293 557 q 244 454 264 493 q 212 378 225 416 q 197 296 198 340 l 197 292 q 257 141 197 194 q 422 88 317 88 z "},"ʋ":{"ha":743,"x_min":92,"x_max":650,"o":"m 372 -14 q 164 67 235 -14 q 92 298 93 147 l 92 734 l 218 734 l 218 294 q 256 142 218 193 q 372 92 294 92 q 488 143 451 92 q 525 294 524 194 l 525 546 q 463 632 525 632 q 378 618 430 632 l 362 717 q 513 747 446 747 q 648 608 635 747 l 650 559 l 650 301 q 579 67 650 148 q 372 -14 507 -14 z "},"ʌ":{"ha":673,"x_min":24,"x_max":649,"o":"m 334 562 l 153 0 l 24 0 l 288 734 l 383 734 l 649 0 l 521 0 l 334 562 z "},"ʍ":{"ha":1040,"x_min":29,"x_max":1011,"o":"m 154 0 l 29 0 l 242 734 l 344 734 l 488 283 l 519 148 l 551 283 l 696 734 l 798 734 l 1011 0 l 886 0 l 768 467 l 744 584 l 719 467 l 570 0 l 469 0 l 321 467 l 298 574 l 278 467 l 154 0 z "},"ʎ":{"ha":657,"x_min":15,"x_max":640,"o":"m 319 549 l 149 0 l 15 0 l 309 847 q 527 1030 378 1030 l 551 1028 l 597 1019 l 597 918 l 564 920 q 462 893 498 920 q 406 800 427 866 l 378 726 l 640 0 l 503 0 l 319 549 z "},"ʏ":{"ha":724,"x_min":9,"x_max":715,"o":"m 361 357 l 574 733 l 715 733 l 422 246 l 422 0 l 297 0 l 297 252 l 9 733 l 150 733 l 361 357 z "},"ʐ":{"ha":759,"x_min":60,"x_max":767,"o":"m 213 102 l 622 102 l 622 -100 q 726 -204 625 -204 q 766 -199 751 -204 l 767 -286 q 699 -296 736 -296 q 534 -98 537 -296 l 534 0 l 60 0 l 60 92 l 465 630 l 66 630 l 66 734 l 622 734 l 622 645 l 213 102 z "},"ʑ":{"ha":831,"x_min":60,"x_max":810,"o":"m 213 102 l 316 102 q 456 290 412 243 q 542 359 499 336 q 637 382 585 382 q 764 339 718 382 q 810 222 810 296 q 729 64 810 127 q 525 0 648 0 l 378 0 l 284 -137 l 195 -70 l 245 0 l 60 0 l 60 92 l 465 630 l 66 630 l 66 734 l 622 734 l 622 645 l 213 102 m 630 278 q 553 241 593 278 q 445 102 513 204 l 527 102 q 645 133 597 102 q 692 213 692 164 q 675 262 692 245 q 630 278 658 278 z "},"ʒ":{"ha":783,"x_min":59,"x_max":709,"o":"m 377 -296 q 156 -229 236 -296 q 59 -31 77 -161 l 185 -31 q 246 -148 195 -103 q 377 -193 296 -193 q 527 -143 471 -193 q 583 -9 583 -92 q 527 145 583 98 q 362 193 470 193 l 266 193 l 266 295 l 530 631 l 88 631 l 88 734 l 677 734 l 678 654 l 394 291 l 420 290 q 634 203 558 280 q 709 -6 709 127 q 619 -217 709 -138 q 377 -296 528 -296 z "},"ʓ":{"ha":764,"x_min":59,"x_max":749,"o":"m 360 -296 q 141 -238 224 -296 q 59 -83 59 -180 q 118 42 59 -9 q 270 92 178 92 q 418 62 347 92 q 578 -47 489 31 q 584 -8 584 -29 q 527 145 584 98 q 362 193 470 193 l 266 193 l 266 295 l 530 631 l 88 631 l 88 734 l 677 734 l 678 654 l 394 291 l 422 290 q 635 202 560 280 q 709 -5 709 125 q 677 -143 709 -81 l 749 -214 l 669 -296 l 604 -228 q 360 -296 512 -296 m 359 -193 q 522 -146 461 -193 q 383 -41 441 -71 q 273 -10 325 -10 q 207 -33 229 -10 q 185 -90 185 -55 q 230 -167 185 -140 q 359 -193 274 -193 z "},"ʔ":{"ha":726,"x_min":45,"x_max":664,"o":"m 538 689 q 485 884 538 816 q 337 953 433 953 q 220 912 270 953 q 164 810 170 871 l 45 810 q 89 931 48 874 q 196 1022 130 989 q 337 1056 263 1056 q 576 955 488 1056 q 664 682 664 854 l 664 633 q 592 389 664 488 q 395 271 521 290 l 395 0 l 264 0 l 264 370 l 342 370 q 486 440 434 372 q 538 637 538 509 l 538 689 z "},"ʕ":{"ha":726,"x_min":62,"x_max":681,"o":"m 321 272 q 132 390 201 293 q 62 636 62 488 l 62 690 q 102 881 62 798 q 215 1010 141 964 q 389 1057 288 1057 q 594 983 512 1057 q 681 791 675 909 l 562 791 q 508 908 557 863 q 389 954 460 954 q 241 886 294 954 q 188 686 188 817 l 188 632 q 232 448 188 516 q 359 370 277 380 l 447 370 l 447 0 l 321 0 l 321 272 z "},"ʖ":{"ha":726,"x_min":45,"x_max":664,"o":"m 405 771 q 594 653 525 750 q 664 406 664 555 l 664 353 q 624 161 664 245 q 511 32 585 77 q 337 -14 437 -14 q 132 60 214 -14 q 45 252 50 134 l 164 252 q 218 135 170 180 q 337 89 267 89 q 485 157 432 89 q 538 357 538 226 l 538 411 q 493 595 538 528 q 368 673 448 663 l 279 673 l 279 1041 l 405 1041 l 405 771 z "},"ʗ":{"ha":726,"x_min":62,"x_max":681,"o":"m 389 -193 q 507 -153 456 -193 q 562 -51 557 -112 l 681 -51 q 636 -172 677 -115 q 529 -263 595 -230 q 389 -296 463 -296 q 151 -196 239 -296 q 62 77 62 -96 l 62 381 q 102 572 62 488 q 215 701 141 655 q 389 747 288 747 q 594 673 512 747 q 681 481 675 600 l 562 481 q 508 598 557 553 q 389 644 460 644 q 240 575 293 644 q 188 376 188 507 l 188 70 q 240 -125 188 -56 q 389 -193 292 -193 z "},"ʘ":{"ha":955,"x_min":80,"x_max":874,"o":"m 401 496 q 420 550 401 528 q 478 572 439 572 q 536 550 517 572 q 556 496 556 528 q 536 443 556 465 q 478 422 517 422 q 420 443 439 422 q 401 496 401 465 m 874 462 q 825 209 874 317 q 687 43 777 100 q 478 -14 597 -14 q 271 44 361 -14 q 131 207 181 101 q 80 453 81 313 l 80 524 q 130 776 80 667 q 270 943 179 885 q 477 1001 360 1001 q 686 944 595 1001 q 825 778 777 886 q 874 524 874 669 l 874 462 m 745 526 q 674 795 745 701 q 477 889 604 889 q 282 795 353 889 q 210 534 212 701 l 210 462 q 281 194 210 292 q 478 97 353 97 q 673 189 604 97 q 745 452 743 281 l 745 526 z "},"ʚ":{"ha":724,"x_min":67,"x_max":659,"o":"m 351 747 q 578 653 498 747 q 659 376 659 559 q 580 87 659 188 q 351 -13 501 -13 q 145 46 223 -13 q 67 206 67 104 q 195 377 67 333 q 110 443 140 401 q 81 534 81 484 q 153 691 81 636 q 351 747 224 747 m 422 321 l 346 321 q 231 295 268 321 q 194 206 194 268 q 237 120 194 153 q 351 87 280 87 q 488 161 443 87 q 534 376 534 234 q 487 577 534 509 q 351 645 440 645 q 245 615 283 645 q 207 533 207 585 q 335 427 207 431 l 422 427 l 422 321 z "},"ʛ":{"ha":862,"x_min":62,"x_max":870,"o":"m 740 106 q 691 61 724 84 q 613 22 658 39 q 412 -13 520 -13 q 160 78 257 -13 q 62 317 62 168 l 62 423 q 106 591 62 516 q 230 706 151 665 q 409 747 310 747 q 648 667 566 747 q 802 781 680 781 q 870 771 840 781 l 869 684 q 829 690 850 690 q 724 584 727 690 l 724 500 l 600 500 q 544 609 590 572 q 409 646 498 646 q 250 583 313 646 q 188 420 188 519 l 188 313 q 250 151 188 214 q 412 88 313 88 q 527 102 475 88 q 603 138 578 115 l 603 269 l 424 269 l 424 371 l 740 371 l 740 106 z "},"ʝ":{"ha":574,"x_min":19,"x_max":560,"o":"m 431 60 l 560 60 l 560 -42 l 431 -42 l 431 -79 q 375 -240 431 -184 q 220 -296 319 -296 q 75 -246 131 -296 q 19 -117 19 -195 q 71 12 19 -37 q 212 60 123 60 l 305 60 l 305 734 l 431 734 l 431 60 m 218 -193 q 305 -105 305 -193 l 305 -42 l 224 -42 q 166 -64 187 -42 q 145 -117 145 -85 q 165 -172 145 -150 q 218 -193 184 -193 m 296 928 q 314 980 296 958 q 369 1001 333 1001 q 425 980 406 1001 q 444 928 444 959 q 425 878 444 898 q 369 857 406 857 q 314 878 332 857 q 296 928 296 898 z "},"ʞ":{"ha":704,"x_min":1,"x_max":608,"o":"m 403 393 l 482 475 l 482 734 l 608 734 l 608 -282 l 482 -282 l 482 321 l 415 241 l 187 0 l 34 0 l 319 305 l 1 734 l 149 734 l 403 393 z "},"ʟ":{"ha":610,"x_min":95,"x_max":582,"o":"m 220 101 l 582 101 l 582 0 l 95 0 l 95 734 l 220 734 l 220 101 z "},"ʠ":{"ha":821,"x_min":64,"x_max":829,"o":"m 64 373 q 144 647 64 546 q 357 747 223 747 q 557 665 481 747 l 557 726 q 614 877 557 821 q 761 932 670 932 q 829 922 798 932 l 828 836 q 787 841 809 841 q 683 735 686 841 l 683 -282 l 557 -282 l 557 68 q 355 -14 481 -14 q 143 90 222 -14 q 64 364 64 193 l 64 373 m 190 359 q 243 161 190 233 q 387 89 296 89 q 557 188 498 89 l 557 547 q 388 644 498 644 q 243 572 297 644 q 190 359 190 500 z "},"ʡ":{"ha":726,"x_min":45,"x_max":664,"o":"m 543 102 l 395 102 l 395 0 l 264 0 l 264 102 l 111 102 l 111 205 l 264 205 l 264 370 l 342 370 q 486 440 434 372 q 538 637 538 509 l 538 689 q 485 884 538 816 q 337 953 433 953 q 220 912 270 953 q 164 810 170 871 l 45 810 q 89 931 48 874 q 196 1022 130 989 q 337 1056 263 1056 q 576 955 488 1056 q 664 682 664 854 l 664 633 q 592 389 664 488 q 395 271 521 290 l 395 205 l 543 205 l 543 102 z "},"ʢ":{"ha":727,"x_min":62,"x_max":681,"o":"m 321 272 q 132 390 201 293 q 62 636 62 488 l 62 690 q 102 881 62 798 q 215 1010 141 964 q 389 1057 288 1057 q 594 983 512 1057 q 681 791 675 909 l 562 791 q 508 908 557 863 q 389 954 460 954 q 241 886 294 954 q 188 686 188 817 l 188 632 q 232 448 188 516 q 359 370 277 380 l 447 370 l 447 0 l 321 0 l 321 272 m 600 104 l 168 104 l 168 206 l 600 206 l 600 104 z "},"ʣ":{"ha":1312,"x_min":64,"x_max":1265,"o":"m 837 102 l 1265 102 l 1265 0 l 568 0 l 562 79 q 353 -14 487 -14 q 145 91 225 -14 q 64 363 64 195 l 64 373 q 144 645 64 542 q 354 747 224 747 q 558 659 483 747 l 558 1042 l 684 1042 l 684 734 l 1246 734 l 1246 645 l 837 102 m 190 359 q 241 163 190 234 q 384 93 293 93 q 558 200 503 93 l 558 537 q 385 641 502 641 q 241 570 293 641 q 190 359 190 498 m 684 630 l 684 92 l 1088 630 l 684 630 z "},"ʤ":{"ha":1282,"x_min":64,"x_max":1208,"o":"m 1029 631 l 684 631 l 684 0 l 568 0 l 562 79 q 353 -14 487 -14 q 145 91 225 -14 q 64 363 64 195 l 64 373 q 144 645 64 542 q 354 747 224 747 q 558 659 483 747 l 558 1042 l 684 1042 l 684 734 l 1176 734 l 1177 654 l 894 292 q 1126 208 1044 285 q 1208 -6 1208 130 q 1118 -217 1208 -138 q 876 -296 1027 -296 q 658 -236 741 -296 q 558 -63 575 -176 l 684 -63 q 742 -158 695 -123 q 876 -193 789 -193 q 1026 -143 970 -193 q 1082 -9 1082 -92 q 1026 145 1082 98 q 861 193 969 193 l 764 193 l 764 295 l 1029 631 m 190 359 q 241 163 190 234 q 384 93 293 93 q 558 200 503 93 l 558 537 q 385 641 502 641 q 241 570 293 641 q 190 359 190 498 z "},"ʥ":{"ha":1454,"x_min":64,"x_max":1434,"o":"m 836 102 l 939 102 l 1019 217 q 1164 359 1096 322 q 1261 382 1207 382 q 1387 339 1341 382 q 1434 222 1434 296 q 1352 63 1434 127 q 1147 0 1270 0 l 998 0 l 907 -137 l 818 -70 l 867 0 l 568 0 l 562 79 q 353 -14 487 -14 q 145 91 225 -14 q 64 363 64 195 l 64 373 q 144 645 64 542 q 354 747 224 747 q 558 659 483 747 l 558 1042 l 684 1042 l 684 734 l 1245 734 l 1245 645 l 836 102 m 190 359 q 241 163 190 234 q 384 93 293 93 q 558 200 503 93 l 558 537 q 385 641 502 641 q 241 570 293 641 q 190 359 190 498 m 684 630 l 684 93 l 1088 630 l 684 630 m 1253 278 q 1174 240 1216 278 q 1066 102 1132 201 l 1149 102 q 1270 135 1223 102 q 1316 219 1316 167 q 1298 262 1316 247 q 1253 278 1281 278 z "},"ʦ":{"ha":973,"x_min":6,"x_max":905,"o":"m 265 911 l 265 734 l 518 734 q 618 747 564 747 q 820 683 743 747 q 898 518 898 618 l 772 518 q 728 607 772 570 q 618 644 684 644 q 511 614 549 644 q 472 536 472 585 q 506 469 472 493 q 629 426 541 445 q 842 341 779 393 q 905 203 905 290 q 829 54 905 109 q 618 0 753 0 l 309 0 q 184 56 229 0 q 140 215 140 113 l 140 637 l 6 637 l 6 734 l 140 734 l 140 911 l 265 911 m 779 195 q 737 276 779 248 q 614 321 695 304 q 411 399 475 348 q 347 532 347 451 q 378 637 347 589 l 265 637 l 265 215 q 347 107 265 107 l 622 107 q 779 195 779 107 z "},"ʧ":{"ha":740,"x_min":6,"x_max":720,"o":"m 633 1056 q 720 1044 677 1056 l 713 943 q 645 949 681 949 q 551 913 585 949 q 517 811 517 878 l 517 -50 q 455 -232 517 -167 q 277 -296 392 -296 q 191 -285 233 -296 l 197 -183 q 264 -189 229 -189 q 359 -154 326 -189 q 392 -52 392 -118 l 392 -7 q 317 -14 354 -14 q 183 37 227 -14 q 140 197 140 87 l 140 637 l 6 637 l 6 734 l 140 734 l 140 911 l 265 911 l 265 734 l 392 734 l 392 809 q 455 991 392 927 q 633 1056 518 1056 m 348 94 l 392 96 l 392 637 l 265 637 l 265 201 q 283 117 265 141 q 348 94 300 94 z "},"ʨ":{"ha":1073,"x_min":6,"x_max":1027,"o":"m 402 637 l 265 637 l 265 201 q 346 94 265 94 q 458 140 392 94 q 408 355 408 229 l 408 381 q 448 573 408 489 q 561 702 488 656 q 734 747 634 747 q 940 673 858 747 q 1027 481 1021 600 l 908 481 q 854 598 903 553 q 734 644 806 644 q 586 575 639 644 q 534 376 534 507 l 534 353 q 554 216 534 271 l 623 272 q 857 371 748 371 q 981 328 935 371 q 1027 212 1027 285 q 943 51 1027 115 q 738 -14 859 -14 q 522 61 607 -14 q 309 -14 413 -14 q 184 43 229 -14 q 140 201 140 99 l 140 637 l 6 637 l 6 734 l 140 734 l 140 911 l 265 911 l 265 734 l 402 734 l 402 637 m 737 89 q 859 120 809 89 q 909 199 909 151 q 890 249 909 231 q 836 267 870 267 q 694 201 777 267 l 611 130 q 737 89 660 89 z "},"ʩ":{"ha":1154,"x_min":41,"x_max":1059,"o":"m 157 0 l 157 637 l 41 637 l 41 734 l 157 734 l 157 809 q 220 991 157 927 q 398 1056 283 1056 q 484 1044 441 1056 l 477 943 q 410 949 446 949 q 315 913 349 949 q 282 811 282 878 l 282 734 l 608 734 l 608 645 q 825 747 691 747 q 999 675 939 747 q 1059 463 1059 603 l 1059 -43 q 1003 -192 1059 -136 q 856 -248 946 -248 q 788 -237 817 -248 l 789 -151 q 829 -157 808 -157 q 934 -51 931 -157 l 934 461 q 787 641 934 641 q 680 608 726 641 q 608 523 633 576 l 608 0 l 482 0 l 482 637 l 282 637 l 282 0 l 157 0 z "},"ʪ":{"ha":913,"x_min":106,"x_max":844,"o":"m 231 204 q 390 119 304 149 q 562 89 475 89 q 675 118 632 89 q 718 195 718 146 q 679 274 718 246 q 546 322 640 301 q 395 371 451 342 q 313 439 340 399 q 286 532 286 478 q 362 685 286 623 q 557 747 439 747 q 760 683 683 747 q 837 518 837 618 l 711 518 q 667 607 711 570 q 557 644 624 644 q 450 615 489 644 q 411 536 411 585 q 445 469 411 494 q 577 423 479 444 q 732 372 674 402 q 817 301 790 342 q 844 203 844 260 q 766 46 844 106 q 562 -14 688 -14 q 231 73 372 -14 l 231 0 l 106 0 l 106 1042 l 231 1042 l 231 204 z "},"ʫ":{"ha":861,"x_min":106,"x_max":814,"o":"m 354 102 l 814 102 l 814 0 l 106 0 l 106 1042 l 231 1042 l 231 734 l 794 734 l 794 645 l 354 102 m 231 630 l 231 133 l 635 630 l 231 630 z "},"ʬ":{"ha":626,"x_min":31,"x_max":595,"o":"m 439 711 l 497 987 l 595 987 l 479 591 l 398 591 l 313 867 l 228 591 l 146 591 l 31 987 l 129 987 l 189 711 l 273 987 l 354 987 l 439 711 m 439 121 l 497 397 l 595 397 l 479 0 l 398 0 l 313 276 l 228 0 l 146 0 l 31 397 l 129 397 l 189 121 l 273 397 l 354 397 l 439 121 z "},"ʭ":{"ha":656,"x_min":57,"x_max":600,"o":"m 600 0 l 504 0 l 504 314 l 153 314 l 153 0 l 57 0 l 57 394 l 600 394 l 600 0 m 600 593 l 504 593 l 504 907 l 153 907 l 153 593 l 57 593 l 57 987 l 600 987 l 600 593 z "},"ʮ":{"ha":871,"x_min":20,"x_max":764,"o":"m 639 84 q 427 -14 566 -14 q 249 64 310 -14 q 186 292 188 142 l 186 519 q 66 640 183 640 q 21 634 37 640 l 20 734 q 98 747 56 747 q 255 684 198 747 q 312 509 312 621 l 312 294 q 447 92 313 92 q 572 132 524 92 q 639 243 621 171 l 639 734 l 764 734 l 764 -282 l 639 -282 l 639 84 z "},"ʯ":{"ha":882,"x_min":20,"x_max":890,"o":"m 618 84 q 406 -14 545 -14 q 229 64 290 -14 q 166 292 168 142 l 166 401 l 165 401 l 165 550 q 61 656 163 656 q 21 652 34 656 l 20 739 q 88 747 56 747 q 235 691 178 747 q 292 541 292 635 l 292 290 q 427 92 295 92 q 552 132 503 92 q 618 243 600 171 l 618 734 l 744 734 l 744 -99 q 849 -205 747 -205 q 889 -201 875 -205 l 890 -288 q 822 -296 854 -296 q 675 -240 732 -296 q 618 -90 618 -184 l 618 84 z "},"ʰ":{"ha":572,"x_min":69,"x_max":503,"o":"m 184 913 q 326 994 236 994 q 503 781 503 994 l 503 441 l 387 441 l 387 771 q 289 897 385 897 q 184 823 214 897 l 184 441 l 69 441 l 69 1224 l 184 1224 l 184 913 z "},"ʱ":{"ha":572,"x_min":69,"x_max":503,"o":"m 184 913 q 326 994 236 994 q 503 781 503 994 l 503 441 l 387 441 l 387 771 q 289 897 385 897 q 184 823 214 897 l 184 441 l 69 441 l 69 1072 q 94 1189 69 1154 q 171 1224 119 1224 q 270 1211 218 1224 l 270 1102 q 220 1109 243 1109 q 184 1067 186 1109 l 184 913 z "},"ʲ":{"ha":309,"x_min":21,"x_max":240,"o":"m 233 985 l 233 427 q 79 222 233 222 q 21 231 46 222 l 22 331 q 55 326 32 326 q 104 348 90 326 q 117 422 117 369 l 117 985 l 233 985 m 104 1128 q 122 1176 104 1157 q 172 1195 139 1195 q 223 1176 205 1195 q 240 1128 240 1157 q 223 1082 240 1101 q 172 1064 205 1064 q 122 1082 139 1064 q 104 1128 104 1101 z "},"ʳ":{"ha":375,"x_min":69,"x_max":348,"o":"m 348 868 q 280 884 315 884 q 184 819 212 884 l 184 441 l 69 441 l 69 984 l 156 984 l 175 905 q 300 994 221 994 q 348 989 332 994 l 348 868 z "},"ʴ":{"ha":375,"x_min":27,"x_max":306,"o":"m 27 557 q 94 541 60 541 q 191 608 163 541 l 191 984 l 306 984 l 306 441 l 218 441 l 199 520 q 75 431 153 431 q 27 437 41 431 l 27 557 z "},"ʵ":{"ha":418,"x_min":27,"x_max":391,"o":"m 391 237 q 293 224 337 224 q 216 259 241 224 q 191 372 191 293 l 191 504 q 75 431 145 431 q 27 437 41 431 l 27 557 q 94 541 60 541 q 191 608 163 541 l 191 984 l 306 984 l 306 385 q 342 340 306 340 q 391 346 355 340 l 391 237 z "},"ʶ":{"ha":593,"x_min":69,"x_max":551,"o":"m 69 441 l 69 984 l 184 984 l 184 798 l 302 798 l 418 984 l 551 984 l 421 774 q 491 709 467 751 q 515 619 515 668 q 459 494 515 545 q 315 441 404 444 l 69 441 m 184 699 l 184 540 l 288 540 q 370 561 340 540 q 399 621 399 581 q 376 676 399 654 q 298 699 352 699 l 184 699 z "},"ʷ":{"ha":773,"x_min":27,"x_max":746,"o":"m 151 984 l 224 656 l 232 594 l 243 656 l 340 984 l 433 984 l 530 656 l 541 594 l 549 656 l 623 984 l 746 984 l 601 441 l 494 441 l 389 774 l 386 787 l 384 774 l 279 441 l 172 441 l 27 984 l 151 984 z "},"ʸ":{"ha":553,"x_min":33,"x_max":526,"o":"m 283 611 l 403 984 l 526 984 l 311 365 q 145 222 261 222 q 89 230 112 222 l 89 321 l 127 320 q 178 336 159 320 q 212 397 197 351 l 228 443 l 33 984 l 162 984 l 283 611 z "},"ʹ":{"ha":224,"x_min":12,"x_max":212,"o":"m 96 1059 l 212 1059 l 89 815 l 12 815 l 96 1059 z "},"ʺ":{"ha":418,"x_min":12,"x_max":407,"o":"m 96 1059 l 212 1059 l 89 815 l 12 815 l 96 1059 m 291 1059 l 407 1059 l 283 815 l 206 815 l 291 1059 z "},"ʻ":{"ha":298,"x_min":54,"x_max":243,"o":"m 172 1058 l 243 1009 q 178 810 180 914 l 178 676 l 54 676 l 54 798 q 87 942 54 870 q 172 1058 121 1014 z "},"ʽ":{"ha":298,"x_min":54,"x_max":243,"o":"m 54 1058 l 178 1058 l 178 922 q 243 725 180 820 l 172 676 q 88 791 121 720 q 54 937 54 863 l 54 1058 z "},"ʾ":{"ha":194,"x_min":30,"x_max":164,"o":"m 30 818 q 78 838 58 818 q 97 888 97 857 q 77 940 97 920 q 30 960 58 960 l 30 1021 q 125 983 87 1021 q 164 888 164 945 q 125 794 164 831 q 30 758 87 758 l 30 818 z "},"ʿ":{"ha":194,"x_min":30,"x_max":164,"o":"m 164 758 q 68 794 107 758 q 30 888 30 831 q 68 983 30 945 q 164 1021 107 1021 l 164 960 q 117 940 136 960 q 97 888 97 920 q 116 838 97 857 q 164 818 136 818 l 164 758 z "},"ˀ":{"ha":519,"x_min":15,"x_max":477,"o":"m 361 954 q 231 1125 361 1125 q 117 1027 132 1125 l 15 1027 q 79 1169 19 1114 q 231 1224 140 1224 q 409 1149 342 1224 q 477 947 477 1074 l 477 890 q 431 700 477 773 q 303 606 385 627 l 303 441 l 188 441 l 188 694 l 236 694 q 330 741 299 696 q 361 890 361 786 l 361 954 z "},"ˁ":{"ha":519,"x_min":42,"x_max":504,"o":"m 402 1027 q 288 1125 386 1125 q 157 958 159 1125 l 157 890 q 188 740 157 784 q 279 694 219 696 l 330 694 l 330 441 l 215 441 l 215 606 q 87 701 132 627 q 42 892 42 774 l 42 954 q 109 1149 42 1074 q 288 1224 176 1224 q 439 1169 379 1224 q 504 1027 500 1114 l 402 1027 z "},"˂":{"ha":565,"x_min":36,"x_max":529,"o":"m 214 666 l 160 652 l 214 637 l 529 516 l 529 404 l 36 609 l 36 696 l 529 901 l 529 789 l 214 666 z "},"˃":{"ha":562,"x_min":32,"x_max":525,"o":"m 347 637 l 400 652 l 347 666 l 32 789 l 32 901 l 525 696 l 525 609 l 32 404 l 32 516 l 347 637 z "},"˄":{"ha":541,"x_min":22,"x_max":519,"o":"m 133 395 l 22 395 l 228 888 l 314 888 l 519 395 l 409 395 l 284 708 l 270 762 l 256 708 l 133 395 z "},"˅":{"ha":543,"x_min":22,"x_max":519,"o":"m 256 575 l 270 521 l 284 575 l 409 888 l 519 888 l 314 395 l 228 395 l 22 888 l 133 888 l 256 575 z "},"ˆ":{"ha":654,"x_min":115,"x_max":525,"o":"m 525 856 l 525 849 l 421 849 l 319 964 l 218 849 l 115 849 l 115 857 l 281 1042 l 357 1042 l 525 856 z "},"ˇ":{"ha":616,"x_min":96,"x_max":515,"o":"m 304 926 l 406 1041 l 515 1041 l 515 1034 l 342 848 l 266 848 l 96 1034 l 96 1041 l 202 1041 l 304 926 z "},"ˈ":{"ha":167,"x_min":36,"x_max":131,"o":"m 131 781 l 36 781 l 36 1057 l 131 1057 l 131 781 z "},"ˉ":{"ha":637,"x_min":96,"x_max":552,"o":"m 552 883 l 96 883 l 96 980 l 552 980 l 552 883 z "},"ˊ":{"ha":389,"x_min":51,"x_max":334,"o":"m 182 1042 l 334 1042 l 152 842 l 51 842 l 182 1042 z "},"ˋ":{"ha":384,"x_min":39,"x_max":322,"o":"m 322 842 l 214 842 l 39 1042 l 191 1042 l 322 842 z "},"ˌ":{"ha":167,"x_min":36,"x_max":131,"o":"m 131 -334 l 36 -334 l 36 -58 l 131 -58 l 131 -334 z "},"ˍ":{"ha":555,"x_min":51,"x_max":507,"o":"m 507 -201 l 51 -201 l 51 -104 l 507 -104 l 507 -201 z "},"ˎ":{"ha":384,"x_min":39,"x_max":322,"o":"m 322 -243 l 214 -243 l 39 -44 l 191 -44 l 322 -243 z "},"ˏ":{"ha":389,"x_min":51,"x_max":334,"o":"m 182 -44 l 334 -44 l 152 -243 l 51 -243 l 182 -44 z "},"ː":{"ha":295,"x_min":57,"x_max":238,"o":"m 238 732 l 153 589 l 140 589 l 57 732 l 238 732 m 140 143 l 153 143 l 238 0 l 57 0 l 140 143 z "},"ˑ":{"ha":295,"x_min":57,"x_max":238,"o":"m 238 732 l 153 589 l 140 589 l 57 732 l 238 732 z "},"˒":{"ha":195,"x_min":30,"x_max":164,"o":"m 30 151 q 78 171 58 151 q 97 221 97 191 q 77 273 97 253 q 30 293 58 293 l 30 354 q 125 316 87 354 q 164 221 164 278 q 125 127 164 164 q 30 91 87 91 l 30 151 z "},"˓":{"ha":194,"x_min":30,"x_max":164,"o":"m 164 90 q 68 127 107 90 q 30 220 30 163 q 68 315 30 276 q 164 353 106 353 l 164 292 q 117 272 136 292 q 97 220 97 252 q 116 170 97 190 q 164 151 136 151 l 164 90 z "},"˔":{"ha":385,"x_min":54,"x_max":331,"o":"m 144 206 l 144 345 l 240 345 l 240 206 l 331 206 l 331 116 l 54 116 l 54 206 l 144 206 z "},"˕":{"ha":385,"x_min":54,"x_max":331,"o":"m 54 273 l 54 363 l 331 363 l 331 273 l 240 273 l 240 116 l 144 116 l 144 273 l 54 273 z "},"˖":{"ha":385,"x_min":54,"x_max":331,"o":"m 144 283 l 144 374 l 240 374 l 240 283 l 331 283 l 331 193 l 240 193 l 240 102 l 144 102 l 144 193 l 54 193 l 54 283 l 144 283 z "},"˗":{"ha":376,"x_min":36,"x_max":340,"o":"m 340 283 l 340 193 l 36 193 l 36 283 l 340 283 z "},"˘":{"ha":593,"x_min":87,"x_max":494,"o":"m 494 1014 q 438 882 494 932 q 291 832 382 832 q 144 882 200 832 q 87 1014 87 932 l 190 1014 q 216 940 190 966 q 291 913 241 913 q 365 939 338 913 q 392 1014 392 966 l 494 1014 z "},"˙":{"ha":337,"x_min":96,"x_max":244,"o":"m 96 927 q 114 979 96 958 q 170 1000 133 1000 q 225 979 206 1000 q 244 927 244 958 q 225 876 244 897 q 170 856 206 856 q 114 876 133 856 q 96 927 96 897 z "},"˚":{"ha":465,"x_min":82,"x_max":374,"o":"m 374 955 q 332 856 374 896 q 228 817 290 817 q 124 857 165 817 q 82 955 82 897 q 124 1055 82 1013 q 228 1096 165 1096 q 332 1055 290 1096 q 374 955 374 1013 m 149 955 q 172 900 149 923 q 228 877 195 877 q 283 899 260 877 q 307 955 307 922 q 284 1011 307 988 q 228 1035 261 1035 q 172 1011 194 1035 q 149 955 149 987 z "},"˛":{"ha":376,"x_min":34,"x_max":273,"o":"m 259 0 l 220 -31 q 143 -151 143 -92 q 196 -199 143 -199 q 264 -182 229 -199 l 273 -264 q 164 -294 225 -294 q 69 -258 104 -294 q 34 -165 34 -223 q 79 -52 34 -104 q 208 38 125 0 l 259 0 z "},"˜":{"ha":655,"x_min":83,"x_max":563,"o":"m 563 1017 q 521 899 563 944 q 417 853 479 853 q 369 860 389 853 q 316 888 349 867 q 268 913 283 909 q 235 918 254 918 q 187 896 207 918 q 168 842 168 875 l 83 846 q 124 966 83 919 q 229 1014 165 1014 q 271 1007 252 1014 q 323 981 290 1000 q 373 955 355 961 q 411 949 390 949 q 459 972 440 949 q 479 1025 479 995 l 563 1017 z "},"˝":{"ha":518,"x_min":64,"x_max":551,"o":"m 410 1041 l 551 1041 l 368 836 l 254 836 l 410 1041 m 180 1041 l 313 1041 l 165 836 l 64 836 l 180 1041 z "},"˞":{"ha":291,"x_min":-137,"x_max":255,"o":"m -137 490 l 113 538 l 123 464 q 148 386 130 408 q 200 364 165 364 l 234 367 l 255 262 q 168 240 213 240 q 52 293 88 240 q 11 404 29 325 l -137 374 l -137 490 z "},"˟":{"ha":437,"x_min":54,"x_max":382,"o":"m 54 850 l 155 951 l 55 1054 l 118 1119 l 218 1016 l 320 1118 l 382 1053 l 281 951 l 382 849 l 319 784 l 218 887 l 117 785 l 54 850 z "},"ˠ":{"ha":581,"x_min":39,"x_max":541,"o":"m 284 619 l 290 587 l 296 619 l 414 984 l 541 984 l 349 458 l 402 336 q 416 266 416 300 q 382 178 416 209 q 286 148 348 148 q 190 178 224 148 q 156 266 156 209 q 171 328 156 290 l 228 463 l 39 984 l 165 984 l 284 619 m 316 272 q 288 369 316 293 l 265 312 q 256 272 256 289 q 286 240 256 240 q 316 272 316 240 z "},"ˡ":{"ha":254,"x_min":69,"x_max":184,"o":"m 184 441 l 69 441 l 69 1224 l 184 1224 l 184 441 z "},"ˢ":{"ha":528,"x_min":42,"x_max":486,"o":"m 370 585 q 342 634 370 615 q 246 668 313 652 q 139 707 179 684 q 79 761 99 729 q 60 838 60 793 q 115 951 60 907 q 259 994 171 994 q 418 946 357 994 q 480 825 480 898 l 368 825 q 339 877 366 859 q 267 895 312 895 q 199 880 222 895 q 175 838 175 865 q 195 798 175 812 q 289 766 216 783 q 405 724 361 748 q 467 668 448 700 q 486 592 486 636 q 432 472 486 513 q 277 431 378 431 q 106 481 170 431 q 42 609 42 532 l 154 609 q 281 530 168 530 q 346 545 322 530 q 370 585 370 559 z "},"ˣ":{"ha":547,"x_min":27,"x_max":520,"o":"m 272 796 l 379 984 l 514 984 l 349 716 l 520 441 l 386 441 l 274 635 l 161 441 l 27 441 l 197 716 l 32 984 l 166 984 l 272 796 z "},"ˤ":{"ha":569,"x_min":49,"x_max":520,"o":"m 222 441 l 222 517 q 94 594 138 534 q 49 748 49 654 q 114 927 49 860 q 285 994 178 994 q 454 937 387 994 q 520 792 520 880 l 401 792 q 367 866 398 837 q 284 895 336 895 q 163 750 163 895 q 193 643 163 677 q 283 608 222 609 l 338 608 l 338 441 l 222 441 z "},"˥":{"ha":452,"x_min":27,"x_max":334,"o":"m 334 0 l 209 0 l 209 884 l 27 884 l 27 987 l 334 987 l 334 0 z "},"˦":{"ha":452,"x_min":27,"x_max":334,"o":"m 334 0 l 209 0 l 209 690 l 27 690 l 27 792 l 209 792 l 209 987 l 334 987 l 334 0 z "},"˧":{"ha":452,"x_min":27,"x_max":334,"o":"m 334 0 l 209 0 l 209 442 l 27 442 l 27 545 l 209 545 l 209 987 l 334 987 l 334 0 z "},"˨":{"ha":452,"x_min":27,"x_max":334,"o":"m 334 0 l 209 0 l 209 195 l 27 195 l 27 297 l 209 297 l 209 987 l 334 987 l 334 0 z "},"˩":{"ha":452,"x_min":27,"x_max":334,"o":"m 334 0 l 27 0 l 27 102 l 209 102 l 209 987 l 334 987 l 334 0 z "},"˪":{"ha":511,"x_min":97,"x_max":484,"o":"m 222 102 l 484 102 l 484 0 l 97 0 l 97 616 l 222 616 l 222 102 z "},"˫":{"ha":474,"x_min":97,"x_max":447,"o":"m 222 362 l 447 362 l 447 259 l 222 259 l 222 0 l 97 0 l 97 616 l 222 616 l 222 362 z "},"ˬ":{"ha":528,"x_min":54,"x_max":473,"o":"m 262 -205 l 365 -90 l 473 -90 l 473 -96 l 301 -282 l 224 -282 l 54 -96 l 54 -90 l 161 -90 l 262 -205 z "},"˭":{"ha":541,"x_min":42,"x_max":498,"o":"m 498 942 l 42 942 l 42 1029 l 498 1029 l 498 942 m 498 808 l 42 808 l 42 895 l 498 895 l 498 808 z "},"ˮ":{"ha":510,"x_min":54,"x_max":456,"o":"m 125 675 l 54 725 q 119 922 117 820 l 119 1058 l 243 1058 l 243 936 q 210 791 243 863 q 125 675 177 720 m 337 675 l 266 725 q 331 922 329 818 l 331 1058 l 456 1058 l 456 936 q 423 792 456 864 q 337 675 390 721 z "},"˯":{"ha":420,"x_min":36,"x_max":384,"o":"m 200 -252 l 209 -285 l 218 -252 l 306 -49 l 384 -49 l 240 -370 l 179 -370 l 36 -49 l 113 -49 l 200 -252 z "},"˰":{"ha":420,"x_min":36,"x_max":384,"o":"m 113 -370 l 36 -370 l 179 -49 l 240 -49 l 384 -370 l 306 -370 l 218 -165 l 209 -132 l 200 -165 l 113 -370 z "},"˱":{"ha":417,"x_min":36,"x_max":381,"o":"m 161 -201 l 125 -210 l 161 -218 l 381 -298 l 381 -371 l 36 -237 l 36 -181 l 381 -48 l 381 -121 l 161 -201 z "},"˲":{"ha":417,"x_min":36,"x_max":381,"o":"m 256 -218 l 291 -210 l 256 -201 l 36 -121 l 36 -48 l 381 -181 l 381 -237 l 36 -371 l 36 -298 l 256 -218 z "},"˳":{"ha":408,"x_min":85,"x_max":318,"o":"m 85 -164 q 119 -84 85 -117 q 203 -51 153 -51 q 285 -83 252 -51 q 318 -164 318 -116 q 286 -243 318 -212 q 203 -275 253 -275 q 119 -243 152 -275 q 85 -164 85 -211 m 144 -164 q 162 -204 144 -188 q 203 -220 180 -220 q 243 -204 227 -220 q 260 -164 260 -188 q 243 -123 260 -140 q 203 -106 227 -106 q 161 -123 178 -106 q 144 -164 144 -141 z "},"˴":{"ha":384,"x_min":39,"x_max":322,"o":"m 322 152 l 214 152 l 39 351 l 191 351 l 322 152 z "},"˵":{"ha":629,"x_min":39,"x_max":568,"o":"m 322 152 l 214 152 l 39 351 l 191 351 l 322 152 m 568 152 l 460 152 l 285 351 l 436 351 l 568 152 z "},"˶":{"ha":634,"x_min":51,"x_max":578,"o":"m 182 351 l 334 351 l 152 152 l 51 152 l 182 351 m 427 351 l 578 351 l 397 152 l 296 152 l 427 351 z "},"˷":{"ha":576,"x_min":49,"x_max":528,"o":"m 528 -120 q 486 -239 528 -193 q 382 -284 444 -284 q 334 -277 355 -284 q 281 -250 314 -271 q 234 -224 248 -229 q 201 -220 219 -220 q 153 -241 172 -220 q 133 -295 133 -262 l 49 -291 q 91 -171 49 -218 q 195 -123 132 -123 q 234 -129 216 -123 q 289 -157 252 -135 q 342 -183 327 -178 q 376 -188 357 -188 q 425 -165 405 -188 q 444 -112 444 -143 l 528 -120 z "},"˸":{"ha":245,"x_min":45,"x_max":201,"o":"m 45 337 q 65 391 45 370 q 123 413 84 413 q 181 391 161 413 q 201 337 201 370 q 181 285 201 306 q 123 264 161 264 q 65 285 84 264 q 45 337 45 306 m 45 936 q 65 990 45 968 q 123 1012 84 1012 q 181 990 161 1012 q 201 936 201 968 q 181 884 201 905 q 123 863 161 863 q 65 884 84 863 q 45 936 45 905 z "},"˹":{"ha":378,"x_min":54,"x_max":324,"o":"m 324 951 l 149 951 l 149 780 l 54 780 l 54 1042 l 324 1042 l 324 951 z "},"˺":{"ha":378,"x_min":54,"x_max":324,"o":"m 324 1042 l 324 780 l 229 780 l 229 951 l 54 951 l 54 1042 l 324 1042 z "},"˻":{"ha":378,"x_min":54,"x_max":324,"o":"m 54 -321 l 54 -59 l 149 -59 l 149 -231 l 324 -231 l 324 -321 l 54 -321 z "},"˼":{"ha":378,"x_min":54,"x_max":324,"o":"m 54 -231 l 229 -231 l 229 -59 l 324 -59 l 324 -321 l 54 -321 l 54 -231 z "},"˽":{"ha":566,"x_min":54,"x_max":511,"o":"m 511 -307 l 54 -307 l 54 -66 l 150 -66 l 150 -227 l 416 -227 l 416 -66 l 511 -66 l 511 -307 z "},"˾":{"ha":558,"x_min":54,"x_max":504,"o":"m 150 -241 l 504 -241 l 504 -321 l 54 -321 l 54 -59 l 150 -59 l 150 -241 z "},"˿":{"ha":616,"x_min":42,"x_max":562,"o":"m 357 115 l 193 -50 l 562 -50 l 562 -130 l 193 -130 l 357 -295 l 246 -295 l 42 -90 l 246 115 l 357 115 z "},"̀":{"ha":0,"x_min":-581,"x_max":-298,"o":"m -298 842 l -406 842 l -581 1042 l -429 1042 l -298 842 z "},"́":{"ha":0,"x_min":-446,"x_max":-163,"o":"m -315 1042 l -163 1042 l -345 842 l -446 842 l -315 1042 z "},"̂":{"ha":0,"x_min":-604,"x_max":-193,"o":"m -193 856 l -193 849 l -297 849 l -399 964 l -500 849 l -604 849 l -604 857 l -437 1042 l -361 1042 l -193 856 z "},"̃":{"ha":0,"x_min":-600,"x_max":-121,"o":"m -121 1017 q -162 899 -121 944 q -267 853 -204 853 q -315 860 -294 853 q -368 888 -335 867 q -415 913 -401 909 q -449 918 -430 918 q -496 896 -477 918 q -516 842 -516 875 l -600 846 q -559 966 -600 919 q -455 1014 -518 1014 q -412 1007 -431 1014 q -361 981 -393 1000 q -311 955 -328 961 q -273 949 -294 949 q -224 972 -243 949 q -205 1025 -205 995 l -121 1017 z "},"̄":{"ha":0,"x_min":-624,"x_max":-169,"o":"m -169 883 l -624 883 l -624 980 l -169 980 l -169 883 z "},"̅":{"ha":0,"x_min":-707,"x_max":-86,"o":"m -86 1078 l -707 1078 l -707 1181 l -86 1181 l -86 1078 z "},"̆":{"ha":0,"x_min":-600,"x_max":-194,"o":"m -194 1014 q -250 882 -194 932 q -397 832 -306 832 q -544 882 -488 832 q -600 1014 -600 932 l -498 1014 q -472 940 -498 966 q -397 913 -446 913 q -322 939 -349 913 q -296 1014 -296 966 l -194 1014 z "},"̇":{"ha":0,"x_min":-471,"x_max":-322,"o":"m -471 928 q -452 980 -471 959 q -397 1001 -433 1001 q -341 980 -360 1001 q -322 928 -322 959 q -341 878 -322 898 q -397 857 -360 857 q -452 878 -433 857 q -471 928 -471 898 z "},"̈":{"ha":0,"x_min":-675,"x_max":-235,"o":"m -675 930 q -656 981 -675 960 q -601 1002 -637 1002 q -545 981 -564 1002 q -526 930 -526 960 q -545 879 -526 899 q -601 859 -564 859 q -656 879 -637 859 q -675 930 -675 899 m -383 928 q -365 980 -383 959 q -309 1001 -346 1001 q -254 980 -273 1001 q -235 928 -235 959 q -254 878 -235 898 q -309 857 -273 857 q -365 878 -346 857 q -383 928 -383 898 z "},"̉":{"ha":0,"x_min":-457,"x_max":-247,"o":"m -442 842 l -443 945 q -368 959 -392 949 q -345 996 -345 969 q -375 1035 -345 1022 q -457 1048 -406 1048 l -452 1120 q -299 1085 -351 1120 q -247 993 -247 1050 q -273 924 -247 951 q -352 890 -300 897 l -353 842 l -442 842 z "},"̊":{"ha":0,"x_min":-545,"x_max":-253,"o":"m -253 955 q -295 856 -253 896 q -399 817 -337 817 q -503 857 -461 817 q -545 955 -545 897 q -503 1055 -545 1013 q -399 1096 -461 1096 q -295 1055 -336 1096 q -253 955 -253 1013 m -477 955 q -455 900 -477 923 q -399 877 -432 877 q -343 899 -366 877 q -320 955 -320 922 q -343 1011 -320 988 q -399 1035 -366 1035 q -455 1011 -433 1035 q -477 955 -477 987 z "},"̋":{"ha":0,"x_min":-668,"x_max":-127,"o":"m -537 1042 l -385 1042 l -567 842 l -668 842 l -537 1042 m -279 1042 l -127 1042 l -309 842 l -410 842 l -279 1042 z "},"̌":{"ha":0,"x_min":-603,"x_max":-193,"o":"m -361 849 l -437 849 l -603 1034 l -603 1042 l -500 1042 l -399 927 l -297 1042 l -193 1042 l -193 1035 l -361 849 z "},"̍":{"ha":0,"x_min":-444,"x_max":-349,"o":"m -349 781 l -444 781 l -444 1057 l -349 1057 l -349 781 z "},"̎":{"ha":0,"x_min":-526,"x_max":-269,"o":"m -431 781 l -526 781 l -526 1057 l -431 1057 l -431 781 m -269 781 l -364 781 l -364 1057 l -269 1057 l -269 781 z "},"̏":{"ha":0,"x_min":-668,"x_max":-169,"o":"m -346 849 l -460 849 l -668 1029 l -515 1029 l -346 849 m -169 849 l -271 849 l -437 1029 l -298 1029 l -169 849 z "},"̐":{"ha":0,"x_min":-600,"x_max":-194,"o":"m -194 1008 q -249 876 -194 926 q -397 826 -304 826 q -545 876 -489 826 q -600 1008 -600 926 l -498 1008 q -472 933 -498 960 q -397 907 -446 907 q -323 933 -349 907 q -296 1008 -296 960 l -194 1008 m -470 1057 q -451 1108 -470 1087 q -396 1129 -433 1129 q -340 1108 -359 1129 q -321 1057 -321 1087 q -340 1006 -321 1026 q -396 985 -359 985 q -451 1006 -433 985 q -470 1057 -470 1026 z "},"̑":{"ha":0,"x_min":-600,"x_max":-193,"o":"m -296 806 q -322 880 -296 854 q -396 907 -349 907 q -471 880 -445 907 q -498 806 -498 854 l -600 806 q -543 937 -600 887 q -396 987 -487 987 q -249 938 -305 987 q -193 806 -193 888 l -296 806 z "},"̒":{"ha":0,"x_min":-461,"x_max":-271,"o":"m -342 1058 l -271 1009 q -336 810 -334 916 l -336 676 l -461 676 l -461 799 q -428 941 -461 869 q -342 1058 -395 1013 z "},"̓":{"ha":0,"x_min":-491,"x_max":-301,"o":"m -420 677 l -491 726 q -426 924 -428 819 l -426 1059 l -301 1059 l -301 936 q -334 794 -301 865 q -420 677 -367 722 z "},"̔":{"ha":0,"x_min":-488,"x_max":-298,"o":"m -488 1058 l -364 1058 l -364 920 q -298 725 -361 818 l -370 676 q -455 793 -422 722 q -488 937 -488 863 l -488 1058 z "},"̕":{"ha":0,"x_min":-134,"x_max":56,"o":"m -63 677 l -134 726 q -69 924 -71 819 l -69 1059 l 56 1059 l 56 936 q 23 794 56 865 q -63 677 -10 722 z "},"̖":{"ha":0,"x_min":-550,"x_max":-267,"o":"m -267 -262 l -375 -262 l -550 -63 l -399 -63 l -267 -262 z "},"̗":{"ha":0,"x_min":-541,"x_max":-258,"o":"m -410 -63 l -258 -63 l -440 -262 l -541 -262 l -410 -63 z "},"̘":{"ha":0,"x_min":-535,"x_max":-272,"o":"m -367 -126 l -367 -41 l -272 -41 l -272 -302 l -367 -302 l -367 -216 l -535 -216 l -535 -126 l -367 -126 z "},"̙":{"ha":0,"x_min":-528,"x_max":-264,"o":"m -264 -126 l -264 -216 l -433 -216 l -433 -302 l -528 -302 l -528 -41 l -433 -41 l -433 -126 l -264 -126 z "},"̚":{"ha":0,"x_min":-510,"x_max":-54,"o":"m -510 1122 l -54 1122 l -54 870 l -151 870 l -151 1042 l -510 1042 l -510 1122 z "},"̛":{"ha":0,"x_min":-259,"x_max":-69,"o":"m -188 669 l -259 719 q -218 804 -231 763 q -200 904 -205 846 q -194 1051 -194 962 l -69 1051 q -97 813 -69 903 q -188 669 -125 723 z "},"̜":{"ha":0,"x_min":-427,"x_max":-292,"o":"m -292 -320 q -388 -283 -349 -320 q -427 -190 -427 -246 q -389 -96 -427 -135 q -292 -57 -350 -57 l -292 -118 q -340 -138 -321 -118 q -360 -190 -360 -159 q -340 -240 -360 -221 q -292 -260 -320 -260 l -292 -320 z "},"̝":{"ha":0,"x_min":-535,"x_max":-258,"o":"m -445 -201 l -445 -62 l -349 -62 l -349 -201 l -258 -201 l -258 -291 l -535 -291 l -535 -201 l -445 -201 z "},"̞":{"ha":0,"x_min":-535,"x_max":-258,"o":"m -535 -152 l -535 -62 l -258 -62 l -258 -152 l -349 -152 l -349 -291 l -444 -291 l -444 -152 l -535 -152 z "},"̟":{"ha":0,"x_min":-535,"x_max":-258,"o":"m -445 -132 l -445 -41 l -349 -41 l -349 -132 l -258 -132 l -258 -222 l -349 -222 l -349 -313 l -445 -313 l -445 -222 l -535 -222 l -535 -132 l -445 -132 z "},"̠":{"ha":0,"x_min":-549,"x_max":-241,"o":"m -241 -132 l -241 -222 l -549 -222 l -549 -132 l -241 -132 z "},"̡":{"ha":0,"x_min":-399,"x_max":-131,"o":"m -131 98 l -131 -58 q -320 -296 -131 -296 q -399 -284 -362 -296 l -398 -184 q -352 -189 -382 -189 q -281 -160 -304 -189 q -257 -60 -257 -132 l -257 98 l -131 98 z "},"̢":{"ha":0,"x_min":-201,"x_max":66,"o":"m -75 98 l -75 -60 q -52 -160 -75 -132 q 19 -189 -28 -189 q 65 -184 49 -189 l 66 -284 q -12 -296 29 -296 q -201 -58 -201 -296 l -201 98 l -75 98 z "},"̣":{"ha":0,"x_min":-483,"x_max":-334,"o":"m -483 -166 q -464 -115 -483 -136 q -409 -94 -446 -94 q -353 -115 -372 -94 q -334 -166 -334 -136 q -353 -217 -334 -197 q -409 -237 -372 -237 q -464 -217 -446 -237 q -483 -166 -483 -197 z "},"̤":{"ha":0,"x_min":-675,"x_max":-235,"o":"m -675 -166 q -656 -115 -675 -136 q -601 -94 -637 -94 q -545 -115 -564 -94 q -526 -166 -526 -136 q -545 -217 -526 -197 q -601 -237 -564 -237 q -656 -217 -637 -237 q -675 -166 -675 -197 m -383 -168 q -365 -116 -383 -137 q -309 -95 -346 -95 q -254 -116 -273 -95 q -235 -168 -235 -137 q -254 -218 -235 -198 q -309 -239 -273 -239 q -365 -218 -346 -239 q -383 -168 -383 -198 z "},"̥":{"ha":0,"x_min":-545,"x_max":-254,"o":"m -254 -176 q -296 -274 -254 -235 q -399 -314 -338 -314 q -504 -274 -462 -314 q -545 -176 -545 -234 q -504 -76 -545 -117 q -399 -35 -462 -35 q -295 -76 -337 -35 q -254 -176 -254 -117 m -478 -176 q -455 -231 -478 -208 q -399 -254 -433 -254 q -344 -231 -367 -254 q -321 -176 -321 -209 q -343 -119 -321 -142 q -399 -96 -366 -96 q -456 -119 -433 -96 q -478 -176 -478 -143 z "},"̦":{"ha":0,"x_min":-479,"x_max":-310,"o":"m -408 -372 l -479 -323 q -429 -162 -431 -248 l -429 -100 l -310 -100 l -310 -151 q -337 -275 -310 -214 q -408 -372 -364 -336 z "},"̧":{"ha":0,"x_min":-477,"x_max":-267,"o":"m -362 0 l -370 -35 q -267 -153 -267 -54 q -321 -257 -267 -218 q -472 -295 -375 -295 l -477 -222 q -394 -205 -423 -222 q -364 -155 -364 -187 q -386 -111 -364 -125 q -474 -91 -408 -97 l -452 0 l -362 0 z "},"̨":{"ha":0,"x_min":-550,"x_max":-311,"o":"m -325 0 l -364 -31 q -441 -151 -441 -92 q -388 -199 -441 -199 q -320 -182 -353 -199 l -311 -264 q -420 -294 -359 -294 q -515 -258 -480 -294 q -550 -165 -550 -223 q -507 -57 -550 -110 q -372 38 -465 -5 l -325 0 z "},"̩":{"ha":0,"x_min":-444,"x_max":-349,"o":"m -349 -332 l -444 -332 l -444 -55 l -349 -55 l -349 -332 z "},"̪":{"ha":0,"x_min":-626,"x_max":-168,"o":"m -168 -315 l -264 -315 l -264 -154 l -530 -154 l -530 -315 l -626 -315 l -626 -74 l -168 -74 l -168 -315 z "},"̫":{"ha":0,"x_min":-656,"x_max":-136,"o":"m -593 -77 q -570 -137 -593 -115 q -512 -159 -547 -159 q -448 -137 -469 -159 q -427 -77 -427 -115 l -365 -77 l -365 -81 q -280 -159 -362 -159 q -222 -137 -245 -159 q -199 -77 -199 -115 l -136 -77 q -176 -189 -136 -144 q -280 -234 -216 -234 q -396 -182 -355 -234 q -512 -234 -435 -234 q -616 -189 -576 -234 q -656 -77 -656 -144 l -593 -77 z "},"̬":{"ha":0,"x_min":-602,"x_max":-192,"o":"m -359 -280 l -435 -280 l -602 -96 l -602 -87 l -498 -87 l -397 -203 l -296 -87 l -192 -87 l -192 -94 l -359 -280 z "},"̭":{"ha":0,"x_min":-603,"x_max":-193,"o":"m -193 -267 l -193 -274 l -296 -274 l -398 -159 l -499 -274 l -603 -274 l -603 -266 l -436 -81 l -360 -81 l -193 -267 z "},"̮":{"ha":0,"x_min":-600,"x_max":-193,"o":"m -193 -64 q -249 -196 -193 -146 q -396 -246 -305 -246 q -543 -196 -487 -246 q -600 -64 -600 -146 l -497 -64 q -471 -139 -497 -112 q -396 -165 -446 -165 q -322 -139 -349 -165 q -296 -64 -296 -113 l -193 -64 z "},"̯":{"ha":0,"x_min":-600,"x_max":-193,"o":"m -296 -252 q -322 -178 -296 -204 q -396 -151 -349 -151 q -471 -178 -446 -151 q -497 -252 -497 -205 l -600 -252 q -544 -121 -600 -171 q -396 -71 -488 -71 q -249 -120 -304 -71 q -193 -252 -193 -170 l -296 -252 z "},"̰":{"ha":0,"x_min":-643,"x_max":-163,"o":"m -163 -81 q -205 -199 -163 -154 q -309 -245 -247 -245 q -357 -238 -337 -245 q -411 -210 -378 -231 q -458 -185 -444 -189 q -492 -180 -473 -180 q -539 -202 -519 -180 q -559 -256 -559 -223 l -643 -252 q -602 -132 -643 -179 q -498 -84 -561 -84 q -455 -91 -474 -84 q -404 -117 -436 -98 q -354 -143 -371 -137 q -315 -149 -336 -149 q -267 -126 -286 -149 q -248 -73 -248 -103 l -163 -81 z "},"̱":{"ha":0,"x_min":-638,"x_max":-154,"o":"m -154 -202 l -638 -202 l -638 -105 l -154 -105 l -154 -202 z "},"̲":{"ha":0,"x_min":-707,"x_max":-86,"o":"m -86 -202 l -707 -202 l -707 -100 l -86 -100 l -86 -202 z "},"̳":{"ha":0,"x_min":-707,"x_max":-85,"o":"m -86 -161 l -707 -161 l -707 -58 l -86 -58 l -86 -161 m -85 -330 l -707 -330 l -707 -227 l -85 -227 l -85 -330 z "},"̴":{"ha":0,"x_min":-635,"x_max":-155,"o":"m -155 444 q -197 326 -155 371 q -301 280 -239 280 q -349 287 -329 280 q -402 315 -370 294 q -450 340 -435 336 q -484 345 -465 345 q -531 323 -511 345 q -551 269 -551 302 l -635 273 q -594 393 -635 346 q -490 441 -553 441 q -447 434 -466 441 q -395 408 -428 427 q -346 382 -363 388 q -307 376 -328 376 q -259 399 -278 376 q -239 452 -239 422 l -155 444 z "},"̵":{"ha":0,"x_min":-612,"x_max":-181,"o":"m -181 314 l -612 314 l -612 416 l -181 416 l -181 314 z "},"̶":{"ha":0,"x_min":-819,"x_max":25,"o":"m 25 313 l -819 313 l -819 416 l 25 416 l 25 313 z "},"̷":{"ha":0,"x_min":-669,"x_max":-136,"o":"m -585 -91 l -669 -91 l -220 819 l -136 819 l -585 -91 z "},"̸":{"ha":0,"x_min":-865,"x_max":-119,"o":"m -800 -63 l -865 -63 l -184 1028 l -119 1028 l -800 -63 z "},"̹":{"ha":0,"x_min":-465,"x_max":-330,"o":"m -465 -260 q -417 -241 -436 -260 q -397 -191 -397 -221 q -417 -139 -397 -159 q -465 -119 -437 -119 l -465 -58 q -369 -96 -408 -58 q -330 -191 -330 -134 q -369 -284 -330 -248 q -465 -321 -408 -321 l -465 -260 z "},"̺":{"ha":0,"x_min":-626,"x_max":-169,"o":"m -169 -321 l -626 -321 l -626 -81 l -530 -81 l -530 -241 l -264 -241 l -264 -81 l -169 -81 l -169 -321 z "},"̻":{"ha":0,"x_min":-531,"x_max":-261,"o":"m -531 -54 l -261 -54 l -261 -325 l -531 -325 l -531 -54 m -461 -254 l -331 -254 l -331 -125 l -461 -125 l -461 -254 z "},"̼":{"ha":0,"x_min":-656,"x_max":-136,"o":"m -427 -233 l -427 -229 q -512 -151 -430 -151 q -570 -174 -547 -151 q -593 -234 -593 -196 l -656 -234 q -616 -122 -656 -167 q -512 -77 -576 -77 q -396 -129 -434 -77 q -280 -77 -357 -77 q -176 -122 -216 -77 q -136 -234 -136 -167 l -199 -234 q -222 -174 -199 -196 q -280 -151 -245 -151 q -365 -229 -362 -151 l -365 -233 l -427 -233 z "},"̽":{"ha":0,"x_min":-506,"x_max":-177,"o":"m -506 904 l -405 1006 l -505 1107 l -441 1173 l -341 1069 l -240 1172 l -177 1107 l -277 1005 l -178 903 l -241 838 l -341 941 l -443 839 l -506 904 z "},"̾":{"ha":0,"x_min":-467,"x_max":-326,"o":"m -465 842 q -428 854 -441 842 q -415 882 -415 867 q -424 913 -415 897 l -441 946 q -467 1022 -467 994 q -429 1093 -467 1067 q -328 1118 -391 1118 l -328 1041 q -373 1006 -373 1041 q -366 978 -373 994 q -350 943 -359 963 q -326 866 -326 894 q -362 792 -326 819 q -465 764 -399 764 l -465 842 z "},"̿":{"ha":0,"x_min":-708,"x_max":-86,"o":"m -86 1009 l -707 1009 l -707 1112 l -86 1112 l -86 1009 m -87 1181 l -708 1181 l -708 1284 l -87 1284 l -87 1181 z "},"̀":{"ha":0,"x_min":-152,"x_max":131,"o":"m 131 842 l 23 842 l -152 1042 l -1 1042 l 131 842 z "},"́":{"ha":0,"x_min":-144,"x_max":139,"o":"m -13 1042 l 139 1042 l -43 842 l -144 842 l -13 1042 z "},"͂":{"ha":0,"x_min":-635,"x_max":-156,"o":"m -156 1017 q -198 899 -156 944 q -302 853 -239 853 q -350 860 -330 853 q -403 888 -370 867 q -451 913 -436 909 q -484 918 -465 918 q -532 896 -512 918 q -551 842 -551 875 l -635 846 q -594 966 -635 919 q -490 1014 -553 1014 q -448 1007 -467 1014 q -396 981 -429 1000 q -346 955 -363 961 q -308 949 -329 949 q -259 972 -279 949 q -240 1025 -240 995 l -156 1017 z "},"̓":{"ha":0,"x_min":-479,"x_max":-309,"o":"m -408 836 l -479 884 q -429 1044 -431 958 l -429 1107 l -309 1107 l -309 1055 q -336 933 -309 994 q -408 836 -363 872 z "},"̈́":{"ha":0,"x_min":-666,"x_max":-133,"o":"m -416 1134 l -289 1134 l -357 955 l -449 955 l -416 1134 m -666 930 q -647 981 -666 960 q -592 1002 -629 1002 q -536 981 -555 1002 q -517 930 -517 960 q -536 879 -517 899 q -592 859 -555 859 q -647 879 -629 859 q -666 930 -666 899 m -281 928 q -263 980 -281 959 q -208 1001 -244 1001 q -152 980 -171 1001 q -133 928 -133 959 q -152 878 -133 898 q -208 857 -171 857 q -263 878 -244 857 q -281 928 -281 898 z "},"ͅ":{"ha":0,"x_min":-446,"x_max":-286,"o":"m -351 -47 l -351 -235 q -316 -286 -350 -286 q -286 -283 -298 -286 l -286 -349 q -336 -357 -307 -357 q -446 -231 -446 -357 l -446 -47 l -351 -47 z "},"͆":{"ha":0,"x_min":-626,"x_max":-168,"o":"m -168 830 l -264 830 l -264 1013 l -530 1013 l -530 830 l -626 830 l -626 1092 l -168 1092 l -168 830 z "},"͇":{"ha":0,"x_min":-549,"x_max":-241,"o":"m -241 -76 l -241 -166 l -549 -166 l -549 -76 l -241 -76 m -241 -222 l -241 -313 l -549 -313 l -549 -222 l -241 -222 z "},"͈":{"ha":0,"x_min":-534,"x_max":-258,"o":"m -439 -331 l -534 -331 l -534 -54 l -439 -54 l -439 -331 m -258 -331 l -353 -331 l -353 -54 l -258 -54 l -258 -331 z "},"͉":{"ha":0,"x_min":-517,"x_max":-248,"o":"m -248 -81 l -248 -343 l -342 -343 l -342 -172 l -517 -172 l -517 -81 l -248 -81 z "},"͊":{"ha":0,"x_min":-635,"x_max":-155,"o":"m -155 1017 q -197 898 -155 943 q -302 853 -239 853 q -386 877 -347 853 l -428 804 l -490 844 l -450 913 q -484 918 -468 918 q -531 896 -511 918 q -551 842 -551 875 l -635 846 q -594 967 -635 920 q -490 1014 -552 1014 q -407 987 -453 1014 l -361 1066 l -300 1026 l -342 954 q -308 949 -326 949 q -259 972 -279 949 q -240 1025 -240 995 l -155 1017 z "},"͋":{"ha":0,"x_min":-664,"x_max":-184,"o":"m -184 1094 q -226 975 -184 1021 q -330 930 -268 930 q -377 936 -358 930 q -430 964 -397 943 q -478 990 -464 985 q -512 994 -493 994 q -560 973 -541 994 q -580 918 -580 951 l -664 923 q -622 1043 -664 996 q -518 1090 -581 1090 q -478 1085 -496 1090 q -424 1057 -460 1079 q -372 1030 -388 1036 q -336 1025 -356 1025 q -288 1048 -307 1025 q -269 1102 -269 1072 l -184 1094 m -498 1180 q -479 1231 -498 1211 q -424 1252 -460 1252 q -368 1231 -387 1252 q -349 1180 -349 1211 q -368 1129 -349 1149 q -424 1109 -387 1109 q -479 1129 -460 1109 q -498 1180 -498 1149 m -498 844 q -479 896 -498 875 q -424 917 -460 917 q -368 896 -387 917 q -349 844 -349 875 q -368 793 -349 814 q -424 773 -387 773 q -479 793 -460 773 q -498 844 -498 814 z "},"͌":{"ha":0,"x_min":-625,"x_max":-145,"o":"m -145 981 q -186 890 -145 926 q -292 855 -228 855 q -339 860 -319 855 q -392 882 -359 865 q -440 901 -425 898 q -473 905 -454 905 q -521 888 -502 905 q -541 846 -541 871 l -625 850 q -584 942 -625 905 q -479 978 -542 978 q -387 953 -440 978 q -298 928 -333 928 q -250 944 -269 928 q -230 987 -230 961 l -145 981 m -145 1122 q -186 1031 -145 1067 q -292 996 -228 996 q -339 1001 -319 996 q -392 1023 -359 1006 q -440 1042 -425 1039 q -473 1046 -454 1046 q -521 1029 -502 1046 q -541 987 -541 1013 l -625 991 q -584 1083 -625 1046 q -479 1119 -542 1119 q -387 1094 -440 1119 q -298 1069 -333 1069 q -250 1085 -269 1069 q -230 1128 -230 1102 l -145 1122 z "},"͍":{"ha":0,"x_min":-671,"x_max":-122,"o":"m -343 -374 l -231 -254 l -562 -254 l -450 -374 l -528 -374 l -671 -222 l -528 -71 l -450 -71 l -562 -189 l -231 -189 l -343 -71 l -265 -71 l -122 -222 l -265 -374 l -343 -374 z "},"͎":{"ha":0,"x_min":-562,"x_max":-231,"o":"m -429 -372 l -429 -170 l -562 -287 l -562 -208 l -397 -64 l -231 -208 l -231 -287 l -365 -170 l -365 -372 l -429 -372 z "},"͏":{"ha":0,"x_min":0,"x_max":0,"o":""},"͐":{"ha":0,"x_min":-614,"x_max":-121,"o":"m -300 1033 l -247 1047 l -300 1061 l -614 1184 l -614 1296 l -121 1092 l -121 1004 l -614 799 l -614 911 l -300 1033 z "},"͑":{"ha":0,"x_min":-429,"x_max":-294,"o":"m -294 758 q -390 794 -351 758 q -429 888 -429 831 q -390 982 -429 944 q -294 1021 -351 1021 l -294 960 q -342 939 -323 960 q -362 888 -362 919 q -342 837 -362 857 q -294 818 -322 818 l -294 758 z "},"͒":{"ha":0,"x_min":-600,"x_max":-195,"o":"m -296 955 q -323 1029 -296 1003 q -397 1056 -350 1056 q -473 1029 -447 1056 q -498 955 -498 1002 l -600 955 q -545 1086 -600 1037 q -397 1136 -489 1136 q -250 1086 -306 1136 q -195 955 -195 1037 l -296 955 m -472 865 q -453 916 -472 895 q -398 937 -435 937 q -342 916 -361 937 q -323 865 -323 895 q -342 814 -323 834 q -398 793 -361 793 q -453 814 -435 793 q -472 865 -472 834 z "},"͓":{"ha":0,"x_min":-505,"x_max":-191,"o":"m -505 -294 l -409 -197 l -505 -100 l -444 -38 l -348 -136 l -251 -39 l -191 -101 l -288 -198 l -193 -296 l -252 -358 l -349 -259 l -446 -357 l -505 -294 z "},"͔":{"ha":0,"x_min":-557,"x_max":-212,"o":"m -432 -201 l -467 -210 l -432 -218 l -212 -298 l -212 -371 l -557 -237 l -557 -181 l -212 -48 l -212 -121 l -432 -201 z "},"͕":{"ha":0,"x_min":-533,"x_max":-188,"o":"m -313 -218 l -278 -210 l -313 -201 l -533 -121 l -533 -48 l -188 -181 l -188 -237 l -533 -371 l -533 -298 l -313 -218 z "},"͖":{"ha":0,"x_min":-661,"x_max":35,"o":"m -441 -218 l -406 -210 l -441 -201 l -661 -121 l -661 -48 l -315 -181 l -315 -237 l -661 -371 l -661 -298 l -441 -218 m -235 -370 l -313 -370 l -170 -49 l -109 -49 l 35 -370 l -43 -370 l -130 -165 l -140 -132 l -149 -165 l -235 -370 z "},"͗":{"ha":0,"x_min":-464,"x_max":-330,"o":"m -464 818 q -416 838 -435 818 q -397 888 -397 857 q -416 940 -397 920 q -464 960 -436 960 l -464 1021 q -368 983 -407 1021 q -330 888 -330 945 q -368 794 -330 831 q -464 758 -407 758 l -464 818 z "},"͘":{"ha":271,"x_min":50,"x_max":198,"o":"m 50 884 q 68 936 50 915 q 123 957 87 957 q 179 936 160 957 q 198 884 198 915 q 179 833 198 854 q 123 813 160 813 q 68 833 87 813 q 50 884 50 854 z "},"͙":{"ha":0,"x_min":-547,"x_max":-248,"o":"m -438 -219 l -547 -188 l -530 -133 l -422 -172 l -425 -49 l -368 -49 l -372 -174 l -264 -135 l -248 -191 l -359 -223 l -286 -321 l -332 -355 l -400 -252 l -465 -353 l -511 -319 l -438 -219 z "},"͚":{"ha":0,"x_min":-648,"x_max":-127,"o":"m -502 -38 q -388 -90 -431 -38 q -273 -38 -345 -38 q -169 -79 -210 -38 q -127 -179 -127 -121 q -169 -278 -127 -238 q -273 -317 -211 -317 q -388 -267 -346 -317 q -502 -317 -430 -317 q -606 -277 -564 -317 q -648 -179 -648 -237 q -606 -79 -648 -121 q -502 -38 -564 -38 m -352 -179 q -329 -234 -352 -211 q -273 -257 -307 -257 q -218 -235 -242 -257 q -194 -179 -194 -213 q -217 -122 -194 -145 q -273 -99 -241 -99 q -330 -123 -307 -99 q -352 -179 -352 -146 m -581 -179 q -558 -234 -581 -211 q -502 -257 -535 -257 q -447 -235 -471 -257 q -422 -179 -422 -213 q -446 -122 -422 -145 q -502 -99 -469 -99 q -558 -123 -536 -99 q -581 -179 -581 -146 z "},"͛":{"ha":0,"x_min":-505,"x_max":-257,"o":"m -361 1126 l -402 1002 l -257 1002 l -324 801 l -401 801 l -360 924 l -505 924 l -438 1126 l -361 1126 z "},"͜":{"ha":0,"x_min":-474,"x_max":473,"o":"m 473 -71 q 279 -217 409 -161 q 0 -273 150 -273 q -280 -217 -151 -273 q -474 -71 -410 -161 l -372 -71 q -211 -156 -318 -121 q 0 -192 -104 -192 q 212 -156 105 -192 q 371 -71 318 -120 l 473 -71 z "},"͝":{"ha":0,"x_min":-474,"x_max":473,"o":"m 473 1008 q 279 861 409 917 q 0 806 150 806 q -280 862 -151 806 q -474 1008 -410 918 l -372 1008 q -211 922 -318 958 q 0 886 -104 886 q 212 922 105 886 q 371 1008 318 958 l 473 1008 z "},"͞":{"ha":0,"x_min":-399,"x_max":398,"o":"m 398 872 l -399 872 l -399 968 l 398 968 l 398 872 z "},"͟":{"ha":0,"x_min":-399,"x_max":398,"o":"m 398 -196 l -399 -196 l -399 -100 l 398 -100 l 398 -196 z "},"͠":{"ha":0,"x_min":-640,"x_max":640,"o":"m 640 1011 q 573 901 629 942 q 431 859 517 859 q 144 878 321 859 l -215 916 q -432 930 -353 930 q -570 848 -540 930 l -640 865 q -571 977 -628 933 q -432 1020 -513 1020 q -267 1011 -372 1020 q -1 985 -162 1002 q 266 958 160 967 q 431 949 372 949 q 569 1032 546 949 l 640 1011 z "},"͡":{"ha":0,"x_min":-474,"x_max":473,"o":"m 371 804 q 213 889 319 852 q 0 926 106 926 q -213 889 -106 926 q -372 804 -319 853 l -474 804 q -280 950 -410 894 q 0 1006 -151 1006 q 279 950 150 1006 q 473 804 409 895 l 371 804 z "},"͢":{"ha":0,"x_min":-474,"x_max":568,"o":"m 252 -375 l 416 -252 l -474 -252 l -474 -193 l 416 -193 l 252 -71 l 363 -71 l 568 -222 l 363 -375 l 252 -375 z "},"ͣ":{"ha":0,"x_min":-547,"x_max":-215,"o":"m -299 815 q -310 861 -308 841 q -422 808 -348 808 q -514 838 -481 808 q -547 919 -547 868 q -504 1003 -547 973 q -380 1032 -461 1032 l -312 1032 l -312 1059 q -374 1124 -312 1124 q -427 1110 -408 1124 q -446 1073 -446 1097 l -524 1079 q -482 1161 -524 1128 q -374 1193 -439 1193 q -268 1158 -307 1193 q -229 1058 -229 1122 l -229 902 q -215 815 -229 852 l -299 815 m -404 875 q -349 889 -376 875 q -312 923 -322 904 l -312 977 l -380 977 q -442 961 -420 977 q -464 921 -464 944 q -404 875 -464 875 z "},"ͤ":{"ha":0,"x_min":-548,"x_max":-218,"o":"m -370 805 q -499 854 -450 805 q -548 989 -548 903 l -548 1000 q -501 1141 -548 1088 q -378 1193 -454 1193 q -261 1144 -304 1193 q -218 1007 -218 1095 l -218 978 l -465 978 q -437 901 -463 928 q -367 874 -412 874 q -269 919 -303 874 l -226 877 q -370 805 -276 805 m -378 1124 q -463 1033 -452 1124 l -295 1033 l -295 1038 q -378 1124 -301 1124 z "},"ͥ":{"ha":0,"x_min":-429,"x_max":-332,"o":"m -338 814 l -421 814 l -421 1189 l -338 1189 l -338 814 m -429 1280 q -417 1314 -429 1300 q -380 1328 -404 1328 q -344 1314 -357 1328 q -332 1280 -332 1300 q -344 1247 -332 1261 q -380 1234 -357 1234 q -417 1247 -404 1234 q -429 1280 -429 1261 z "},"ͦ":{"ha":0,"x_min":-557,"x_max":-205,"o":"m -557 1002 q -509 1140 -557 1086 q -382 1193 -461 1193 q -253 1141 -301 1193 q -205 994 -205 1088 q -253 857 -205 908 q -381 805 -302 805 q -509 857 -460 805 q -557 1002 -557 909 m -381 874 q -288 1002 -288 874 q -382 1124 -288 1124 q -474 994 -474 1124 q -381 874 -474 874 z "},"ͧ":{"ha":0,"x_min":-541,"x_max":-228,"o":"m -301 859 q -412 808 -338 808 q -541 962 -539 808 l -541 1189 l -458 1189 l -458 958 q -391 876 -456 876 q -311 922 -331 876 l -311 1189 l -228 1189 l -228 814 l -291 814 l -301 859 z "},"ͨ":{"ha":0,"x_min":-553,"x_max":-222,"o":"m -380 804 q -506 854 -458 804 q -553 995 -553 904 l -553 1006 q -507 1141 -553 1090 q -380 1193 -460 1193 q -269 1155 -312 1193 q -222 1057 -225 1116 l -302 1057 q -324 1104 -303 1085 q -380 1124 -345 1124 q -446 1092 -422 1124 q -469 991 -469 1060 q -445 905 -469 937 q -380 873 -421 873 q -326 890 -345 873 q -302 930 -307 906 l -222 930 q -271 841 -225 878 q -380 804 -317 804 z "},"ͩ":{"ha":0,"x_min":-561,"x_max":-220,"o":"m -408 805 q -519 859 -477 805 q -561 1002 -561 912 q -519 1140 -561 1086 q -407 1193 -478 1193 q -303 1154 -340 1193 l -303 1352 l -220 1352 l -220 814 l -292 814 l -298 849 q -408 805 -334 805 m -392 873 q -303 930 -330 873 l -303 1069 q -391 1124 -329 1124 q -477 995 -477 1124 q -456 906 -477 939 q -392 873 -435 873 z "},"ͪ":{"ha":0,"x_min":-541,"x_max":-228,"o":"m -458 1153 q -357 1193 -421 1193 q -228 1040 -231 1193 l -228 814 l -311 814 l -311 1042 q -379 1124 -314 1124 q -458 1078 -439 1124 l -458 814 l -541 814 l -541 1351 l -458 1351 l -458 1153 z "},"ͫ":{"ha":0,"x_min":-653,"x_max":-110,"o":"m -591 1189 l -579 1141 q -469 1193 -542 1193 q -357 1128 -387 1193 q -239 1193 -321 1193 q -110 1039 -113 1193 l -110 814 l -193 814 l -193 1033 q -209 1102 -193 1081 q -260 1124 -225 1124 q -342 1073 -322 1124 l -340 1044 l -340 814 l -423 814 l -423 1033 q -439 1102 -423 1081 q -491 1124 -455 1124 q -570 1079 -549 1124 l -570 814 l -653 814 l -653 1189 l -591 1189 z "},"ͬ":{"ha":0,"x_min":-467,"x_max":-267,"o":"m -267 1112 q -306 1122 -283 1122 q -384 1070 -364 1122 l -384 814 l -467 814 l -467 1189 l -405 1189 l -393 1143 q -296 1193 -360 1193 q -267 1190 -277 1193 l -267 1112 z "},"ͭ":{"ha":0,"x_min":-512,"x_max":-292,"o":"m -361 1284 l -361 1193 l -292 1193 l -292 1124 l -361 1124 l -361 938 q -326 882 -361 882 q -296 885 -308 882 l -296 819 q -346 811 -317 811 q -420 840 -396 811 q -444 935 -444 869 l -444 1124 l -512 1124 l -512 1193 l -444 1193 l -444 1284 l -361 1284 z "},"ͮ":{"ha":0,"x_min":-553,"x_max":-210,"o":"m -386 945 l -380 916 l -375 945 l -300 1189 l -210 1189 l -345 814 l -418 814 l -553 1189 l -463 1189 l -386 945 z "},"ͯ":{"ha":0,"x_min":-523,"x_max":-177,"o":"m -351 1069 l -281 1189 l -181 1189 l -297 1004 l -177 814 l -276 814 l -350 938 l -423 814 l -523 814 l -403 1004 l -519 1189 l -420 1189 l -351 1069 z "},"Ͱ":{"ha":777,"x_min":115,"x_max":749,"o":"m 245 563 l 749 563 l 749 456 l 245 456 l 245 0 l 115 0 l 115 987 l 245 987 l 245 563 z "},"ͱ":{"ha":667,"x_min":20,"x_max":646,"o":"m 165 0 l 165 550 q 61 656 163 656 q 21 652 34 656 l 20 739 q 88 747 56 747 q 234 692 177 747 q 292 541 292 636 l 292 416 l 646 416 l 646 313 l 292 313 l 292 0 l 165 0 z "},"Ͳ":{"ha":829,"x_min":33,"x_max":797,"o":"m 797 617 l 692 617 l 692 880 l 479 880 l 479 0 l 350 0 l 350 880 l 138 880 l 138 617 l 33 617 l 33 987 l 797 987 l 797 617 z "},"ͳ":{"ha":643,"x_min":34,"x_max":608,"o":"m 608 680 l 507 680 l 507 884 l 383 884 l 383 0 l 259 0 l 259 884 l 135 884 l 135 680 l 34 680 l 34 987 l 608 987 l 608 680 z "},"ʹ":{"ha":309,"x_min":54,"x_max":255,"o":"m 139 1059 l 255 1059 l 132 815 l 54 815 l 139 1059 z "},"͵":{"ha":309,"x_min":54,"x_max":255,"o":"m 170 -288 l 54 -288 l 177 -44 l 255 -44 l 170 -288 z "},"Ͷ":{"ha":991,"x_min":120,"x_max":867,"o":"m 737 987 l 867 987 l 867 0 l 737 0 l 737 761 l 251 0 l 120 0 l 120 987 l 251 987 l 251 227 l 737 987 z "},"ͷ":{"ha":826,"x_min":106,"x_max":788,"o":"m 106 734 l 231 734 l 231 196 l 570 734 l 695 734 l 695 193 q 749 98 696 98 q 772 102 762 98 l 788 9 q 705 -14 755 -14 q 570 185 574 -14 l 570 538 l 231 0 l 106 0 l 106 734 z "},"ͻ":{"ha":727,"x_min":45,"x_max":664,"o":"m 164 231 q 220 130 170 171 q 338 89 270 89 q 486 157 433 89 q 538 357 538 225 l 538 381 q 486 575 538 507 q 338 644 433 644 q 218 598 267 644 q 164 481 170 553 l 45 481 q 133 673 51 600 q 338 747 214 747 q 576 647 488 747 q 664 373 664 547 l 664 353 q 624 161 664 245 q 511 32 585 77 q 338 -14 438 -14 q 197 20 263 -14 q 90 111 130 54 q 45 231 49 168 l 164 231 z "},"ͼ":{"ha":727,"x_min":62,"x_max":681,"o":"m 297 364 q 316 415 297 395 q 371 436 334 436 q 427 415 408 436 q 446 364 446 395 q 427 313 446 334 q 371 293 408 293 q 316 313 334 293 q 297 364 297 334 m 389 -14 q 151 86 239 -14 q 62 360 62 186 l 62 381 q 102 572 62 488 q 215 701 141 655 q 389 747 288 747 q 594 673 512 747 q 681 481 675 600 l 562 481 q 508 598 557 553 q 389 644 460 644 q 240 575 293 644 q 188 376 188 507 l 188 353 q 240 157 188 226 q 389 89 292 89 q 507 130 456 89 q 562 231 557 170 l 681 231 q 637 111 677 168 q 531 20 597 54 q 389 -14 464 -14 z "},"ͽ":{"ha":727,"x_min":45,"x_max":664,"o":"m 164 231 q 220 130 170 171 q 338 89 270 89 q 486 157 433 89 q 538 357 538 225 l 538 381 q 486 575 538 507 q 338 644 433 644 q 218 598 267 644 q 164 481 170 553 l 45 481 q 133 673 51 600 q 338 747 214 747 q 576 647 488 747 q 664 373 664 547 l 664 353 q 624 161 664 245 q 511 32 585 77 q 338 -14 438 -14 q 197 20 263 -14 q 90 111 130 54 q 45 231 49 168 l 164 231 m 340 293 q 284 313 303 293 q 266 364 266 334 q 284 415 266 395 q 340 436 303 436 q 395 415 376 436 q 414 364 414 395 q 395 313 414 334 q 340 293 376 293 z "},";":{"ha":347,"x_min":50,"x_max":254,"o":"m 98 665 q 117 719 98 697 q 175 741 136 741 q 234 719 214 741 q 254 665 254 697 q 234 612 254 633 q 175 591 214 591 q 117 612 136 591 q 98 665 98 633 m 121 -197 l 50 -148 q 117 35 114 -59 l 117 149 l 239 149 l 239 50 q 206 -87 239 -18 q 121 -197 172 -155 z "},"΄":{"ha":356,"x_min":124,"x_max":279,"o":"m 161 1084 l 279 1084 l 200 856 l 124 856 l 161 1084 z "},"΅":{"ha":702,"x_min":77,"x_max":610,"o":"m 326 1134 l 454 1134 l 385 955 l 294 955 l 326 1134 m 77 930 q 95 981 77 960 q 151 1002 114 1002 q 206 981 187 1002 q 225 930 225 960 q 206 879 225 899 q 151 859 187 859 q 95 879 114 859 q 77 930 77 899 m 461 928 q 480 980 461 959 q 535 1001 498 1001 q 591 980 572 1001 q 610 928 610 959 q 591 878 610 898 q 535 857 572 857 q 480 878 498 857 q 461 928 461 898 z "},"·":{"ha":363,"x_min":100,"x_max":256,"o":"m 100 494 q 119 549 100 527 q 177 570 138 570 q 236 549 216 570 q 256 494 256 527 q 236 441 256 463 q 177 420 216 420 q 119 441 138 420 q 100 494 100 463 z "},"Γ":{"ha":772,"x_min":120,"x_max":727,"o":"m 727 880 l 251 880 l 251 0 l 120 0 l 120 987 l 727 987 l 727 880 z "},"Δ":{"ha":979,"x_min":21,"x_max":946,"o":"m 438 987 l 553 987 l 946 0 l 21 0 l 438 987 m 199 106 l 771 106 l 494 828 l 199 106 z "},"Θ":{"ha":945,"x_min":70,"x_max":864,"o":"m 651 447 l 300 447 l 300 550 l 651 550 l 651 447 m 864 462 q 815 210 864 317 q 677 44 767 102 q 468 -14 588 -14 q 261 44 351 -14 q 121 207 171 101 q 70 453 71 313 l 70 524 q 119 776 70 667 q 259 943 169 885 q 467 1001 350 1001 q 675 944 585 1001 q 813 780 764 887 q 864 533 863 673 l 864 462 m 734 526 q 664 795 734 701 q 467 889 593 889 q 272 795 343 889 q 199 534 201 701 l 199 462 q 270 195 199 292 q 468 97 341 97 q 663 189 594 97 q 734 452 732 281 l 734 526 z "},"Λ":{"ha":910,"x_min":34,"x_max":870,"o":"m 452 787 l 174 0 l 34 0 l 393 987 l 510 987 l 870 0 l 730 0 l 452 787 z "},"Ξ":{"ha":793,"x_min":81,"x_max":717,"o":"m 81 106 l 717 106 l 717 0 l 81 0 l 81 106 m 140 564 l 652 564 l 652 457 l 140 457 l 140 564 m 84 987 l 705 987 l 705 880 l 84 880 l 84 987 z "},"Π":{"ha":991,"x_min":121,"x_max":869,"o":"m 869 0 l 738 0 l 738 880 l 251 880 l 251 0 l 121 0 l 121 987 l 869 987 l 869 0 z "},"Σ":{"ha":793,"x_min":47,"x_max":741,"o":"m 511 487 l 210 106 l 741 106 l 741 0 l 47 0 l 47 97 l 373 494 l 47 890 l 47 987 l 707 987 l 707 880 l 211 880 l 511 503 l 511 487 z "},"Φ":{"ha":995,"x_min":52,"x_max":947,"o":"m 566 862 q 762 813 675 860 q 898 682 849 766 q 947 491 947 597 q 898 299 947 384 q 763 168 850 214 q 566 119 677 121 l 566 0 l 434 0 l 434 119 q 158 224 264 121 q 52 490 52 327 q 95 671 52 590 q 216 801 137 751 q 434 862 310 860 l 434 987 l 566 987 l 566 862 m 182 490 q 248 297 182 365 q 434 227 313 229 l 434 753 q 247 682 312 751 q 182 490 182 614 m 817 491 q 752 682 817 614 q 566 753 686 751 l 566 227 q 752 298 688 229 q 817 491 817 367 z "},"Ψ":{"ha":961,"x_min":61,"x_max":890,"o":"m 536 355 q 701 443 642 370 q 760 631 760 516 l 760 987 l 890 987 l 890 629 q 847 438 890 522 q 724 306 804 355 q 536 245 644 256 l 536 0 l 405 0 l 405 245 q 156 362 248 261 q 61 624 63 463 l 61 987 l 191 987 l 191 629 q 248 445 192 518 q 405 355 304 372 l 405 987 l 536 987 l 536 355 z "},"Ω":{"ha":924,"x_min":77,"x_max":832,"o":"m 500 110 q 646 224 593 128 q 700 479 698 321 l 700 570 q 634 810 700 727 q 454 894 568 894 q 274 809 339 894 q 209 569 209 724 l 209 492 q 262 229 209 330 q 414 110 315 129 l 414 0 l 80 0 l 80 106 l 230 106 q 117 280 158 176 q 77 494 77 384 l 77 569 q 124 794 77 695 q 258 947 172 893 q 454 1001 345 1001 q 648 948 562 1001 q 782 799 734 895 q 832 581 830 703 l 832 492 q 791 280 832 384 q 679 106 751 176 l 828 106 l 828 0 l 500 0 l 500 110 z "},"α":{"ha":785,"x_min":68,"x_max":775,"o":"m 682 734 l 682 193 q 736 98 684 98 q 760 102 749 98 l 775 9 q 692 -14 743 -14 q 567 98 593 -14 q 353 -14 494 -14 q 145 82 222 -14 q 68 343 68 178 l 68 353 q 144 640 68 532 q 354 747 221 747 q 564 638 492 747 l 576 734 l 682 734 m 193 339 q 243 154 193 220 q 384 88 292 88 q 557 214 501 88 l 557 517 q 385 644 499 644 q 244 567 294 644 q 193 339 193 490 z "},"β":{"ha":823,"x_min":109,"x_max":747,"o":"m 410 1001 q 621 927 541 1001 q 701 734 701 852 q 667 621 701 673 q 574 538 634 570 q 702 442 658 508 q 747 288 747 376 q 662 67 747 149 q 439 -14 578 -14 q 235 51 316 -14 l 235 -260 l 109 -260 l 109 728 q 150 865 109 801 q 261 965 191 928 q 410 1001 332 1001 m 575 737 q 529 852 575 806 q 410 898 483 898 q 286 850 337 898 q 235 729 235 802 l 235 167 q 313 110 264 132 q 426 89 362 89 q 569 143 517 89 q 621 285 621 197 q 574 421 621 365 q 452 479 526 477 l 351 479 l 351 582 l 408 582 q 532 622 490 582 q 575 737 575 663 z "},"γ":{"ha":696,"x_min":31,"x_max":672,"o":"m 354 187 l 544 734 l 672 734 l 415 39 l 415 -282 l 289 -282 l 289 43 l 31 734 l 159 734 l 354 187 z "},"δ":{"ha":787,"x_min":65,"x_max":721,"o":"m 150 861 q 219 1007 150 953 q 406 1061 288 1061 q 591 1023 500 1061 l 590 915 q 404 955 488 955 q 311 930 345 955 q 277 864 277 906 q 427 739 277 791 q 647 596 577 687 q 721 372 718 505 l 721 345 q 681 159 721 241 q 567 32 641 77 q 394 -14 492 -14 q 154 86 243 -14 q 65 351 65 186 l 65 359 q 129 561 65 471 q 290 674 193 650 l 290 677 q 186 751 222 704 q 150 861 150 799 m 192 345 q 247 157 192 226 q 394 88 301 88 q 541 157 486 88 q 595 359 595 225 q 537 526 595 452 q 395 617 480 600 q 248 548 303 617 q 192 345 192 478 z "},"ε":{"ha":749,"x_min":67,"x_max":681,"o":"m 194 206 q 244 121 194 154 q 374 87 294 87 q 503 125 450 87 q 555 217 555 162 l 681 217 q 594 49 681 112 q 374 -14 508 -14 q 151 46 235 -14 q 67 206 67 106 q 206 377 67 332 q 113 443 146 401 q 80 534 80 484 q 158 690 80 634 q 374 747 237 747 q 584 686 500 747 q 669 529 669 625 l 543 529 q 495 611 543 576 q 374 645 446 645 q 252 614 298 645 q 206 533 206 583 q 372 425 206 425 l 505 425 l 505 324 l 353 324 q 194 206 194 320 z "},"ζ":{"ha":720,"x_min":74,"x_max":653,"o":"m 653 987 l 653 906 l 416 616 q 288 430 322 507 q 253 262 253 352 q 276 168 253 201 q 354 118 298 135 l 522 69 q 601 23 576 53 q 625 -60 625 -7 q 587 -165 623 -106 q 505 -260 550 -223 l 438 -203 q 487 -138 470 -167 q 505 -79 505 -109 q 400 -6 505 -33 q 259 37 296 20 q 158 119 189 67 q 127 258 127 171 q 177 455 127 347 q 313 665 227 564 l 506 884 l 74 884 l 74 987 l 653 987 z "},"η":{"ha":787,"x_min":98,"x_max":684,"o":"m 212 734 l 219 642 q 436 747 300 747 q 624 681 565 747 q 684 475 683 614 l 684 -281 l 558 -281 l 558 468 q 522 602 558 560 q 398 644 485 644 q 292 615 336 644 q 224 532 248 585 l 224 0 l 98 0 l 98 734 l 212 734 z "},"θ":{"ha":791,"x_min":83,"x_max":707,"o":"m 707 434 q 627 101 707 216 q 395 -14 547 -14 q 166 99 247 -14 q 83 420 85 212 l 83 559 q 163 888 83 774 q 394 1001 243 1001 q 624 891 545 1001 q 707 573 704 781 l 707 434 m 208 543 l 581 543 l 581 581 q 533 816 581 734 q 394 898 486 898 q 256 816 303 898 q 208 581 208 734 l 208 543 m 581 440 l 208 440 l 208 414 q 258 174 208 258 q 395 89 307 89 q 531 170 484 89 q 581 406 579 252 l 581 440 z "},"ι":{"ha":450,"x_min":132,"x_max":398,"o":"m 258 734 l 258 185 q 276 121 258 142 q 338 99 295 99 q 397 107 371 99 l 398 5 q 301 -8 351 -8 q 132 191 132 -8 l 132 734 l 258 734 z "},"λ":{"ha":769,"x_min":25,"x_max":734,"o":"m 177 1029 q 284 1002 243 1029 q 347 911 325 975 l 637 159 q 666 111 650 124 q 705 98 681 98 l 730 100 l 734 -3 q 682 -12 710 -12 q 603 1 629 -12 q 555 43 576 14 q 515 126 534 72 l 359 528 l 165 0 l 25 0 l 292 698 l 227 857 q 194 911 212 895 q 145 926 176 926 l 113 925 l 113 1021 q 177 1029 141 1029 z "},"ξ":{"ha":681,"x_min":68,"x_max":635,"o":"m 598 873 q 443 898 509 898 q 293 863 347 898 q 239 770 239 828 q 465 622 239 622 l 555 622 l 555 519 l 453 519 q 262 465 330 517 q 195 301 195 412 q 243 172 195 225 q 384 97 292 119 q 518 62 476 75 q 582 36 560 50 q 635 -68 635 3 q 600 -169 635 -112 q 516 -267 565 -225 l 444 -210 l 482 -166 q 515 -83 515 -125 q 490 -41 515 -57 q 386 -8 464 -26 q 251 31 308 9 q 153 89 193 54 q 91 177 113 125 q 68 304 68 229 q 124 471 68 402 q 281 571 180 540 q 157 651 201 600 q 113 768 113 703 q 200 938 113 876 q 442 1001 288 1001 q 616 975 541 1001 l 598 873 z "},"π":{"ha":827,"x_min":28,"x_max":806,"o":"m 771 630 l 665 630 l 665 186 q 684 121 665 143 q 746 99 702 99 q 805 107 779 99 l 806 5 q 709 -8 758 -8 q 540 191 540 -8 l 540 630 l 268 630 l 268 0 l 142 0 l 142 630 l 28 630 l 28 734 l 771 734 l 771 630 z "},"ρ":{"ha":787,"x_min":98,"x_max":715,"o":"m 401 747 q 625 652 542 747 q 715 384 707 556 l 715 339 q 640 81 715 176 q 434 -14 564 -14 q 224 71 302 -14 l 224 -282 l 98 -282 l 98 393 q 137 581 98 500 q 244 704 175 661 q 401 747 314 747 m 224 189 q 397 89 281 89 q 539 155 488 89 q 590 353 590 221 q 541 568 590 492 q 401 644 492 644 q 273 571 322 644 q 224 383 224 498 l 224 189 z "},"ς":{"ha":747,"x_min":68,"x_max":673,"o":"m 389 747 q 595 675 517 747 q 673 481 673 603 l 555 481 q 509 600 555 555 q 389 644 464 644 q 247 570 299 644 q 194 374 194 496 l 194 353 q 411 109 194 176 l 502 83 q 595 31 568 64 q 623 -56 623 -1 q 588 -155 621 -98 q 504 -254 554 -212 l 437 -196 l 469 -159 q 503 -71 503 -119 q 479 -27 503 -42 q 397 0 455 -13 q 153 122 237 35 q 68 353 68 210 l 68 381 q 109 569 68 484 q 222 701 149 654 q 389 747 295 747 z "},"σ":{"ha":787,"x_min":65,"x_max":778,"o":"m 778 630 l 585 630 q 721 345 721 530 l 721 333 q 680 158 721 238 q 563 33 638 79 q 393 -14 488 -14 q 155 89 245 -14 q 65 365 65 192 l 65 374 q 105 559 65 477 q 219 687 145 641 q 387 734 292 733 l 778 734 l 778 630 m 191 359 q 245 162 191 235 q 393 89 300 89 q 542 162 488 89 q 595 374 595 236 q 541 560 595 490 q 392 630 486 630 q 245 561 299 630 q 191 359 191 492 z "},"τ":{"ha":724,"x_min":55,"x_max":668,"o":"m 668 632 l 416 632 l 416 182 q 488 92 416 92 q 550 110 517 92 l 578 22 q 455 -14 527 -14 q 331 36 370 -14 q 290 185 291 86 l 290 632 l 55 632 l 55 734 l 668 734 l 668 632 z "},"υ":{"ha":758,"x_min":97,"x_max":688,"o":"m 223 734 l 223 295 q 359 88 223 88 q 505 173 447 88 q 562 381 562 258 q 479 734 559 538 l 611 734 q 688 381 688 570 q 601 95 688 203 q 366 -14 513 -14 q 166 62 234 -14 q 97 284 98 138 l 97 734 l 223 734 z "},"φ":{"ha":979,"x_min":59,"x_max":920,"o":"m 420 -12 q 153 108 247 4 q 59 382 59 212 q 103 586 59 496 q 233 734 146 675 l 301 644 q 185 382 192 549 q 247 188 185 265 q 420 92 308 110 l 420 578 q 467 691 420 649 q 591 734 514 734 q 755 686 679 734 q 876 554 831 638 q 920 369 920 470 q 821 103 920 204 q 546 -12 723 3 l 546 -324 l 420 -324 l 420 -12 m 546 92 q 728 182 661 107 q 794 369 794 258 q 735 557 791 484 q 591 630 679 630 q 546 574 546 630 l 546 92 z "},"ψ":{"ha":972,"x_min":64,"x_max":913,"o":"m 540 734 l 540 92 q 722 186 656 109 q 788 385 788 264 q 702 734 785 542 l 833 734 q 913 385 913 574 q 817 106 913 209 q 540 -12 720 3 l 540 -320 l 414 -320 l 414 -10 q 153 113 241 7 q 64 404 64 218 l 64 734 l 191 734 l 191 396 q 248 187 192 264 q 414 93 304 110 l 414 734 l 540 734 z "},"ω":{"ha":1144,"x_min":83,"x_max":1059,"o":"m 307 734 q 208 380 213 542 q 247 165 208 242 q 357 88 286 88 q 469 147 431 88 q 507 318 507 205 l 507 522 l 634 522 l 634 315 q 673 146 635 203 q 784 88 711 88 q 895 165 856 88 q 933 380 933 241 q 835 734 928 542 l 967 734 q 1059 380 1059 568 q 988 90 1059 193 q 791 -14 918 -14 q 570 148 628 -14 q 487 27 543 68 q 351 -14 431 -14 q 153 90 223 -14 q 83 380 83 193 q 174 734 83 574 l 307 734 z "},"Ϗ":{"ha":871,"x_min":115,"x_max":871,"o":"m 585 -249 l 517 -168 l 714 1 l 366 459 l 245 334 l 245 0 l 115 0 l 115 987 l 245 987 l 245 499 l 684 987 l 841 987 l 452 551 l 871 0 l 585 -249 z "},"ϐ":{"ha":780,"x_min":62,"x_max":718,"o":"m 417 639 q 635 555 553 639 q 718 324 718 471 q 628 76 718 166 q 390 -14 539 -14 q 147 105 231 -14 q 62 452 63 224 l 62 507 q 155 911 62 766 q 417 1056 249 1056 q 573 1005 513 1056 q 633 870 633 955 q 573 739 633 790 q 409 688 513 688 q 193 730 296 688 q 170 524 172 647 q 274 607 212 574 q 417 639 337 639 m 395 536 q 251 477 308 536 q 194 324 194 418 q 244 150 194 212 q 390 88 294 88 q 539 151 487 88 q 592 324 592 214 q 395 536 592 536 m 402 953 q 227 829 288 953 q 395 791 321 791 q 476 812 446 791 q 507 867 507 834 q 479 929 507 905 q 402 953 450 953 z "},"ϑ":{"ha":804,"x_min":82,"x_max":777,"o":"m 777 425 q 680 404 736 410 l 680 291 q 601 67 678 148 q 387 -14 523 -14 q 166 70 250 -14 q 82 300 82 154 l 82 522 l 208 523 l 208 295 q 256 145 208 198 q 387 93 303 93 q 510 142 466 93 q 554 295 554 192 l 554 408 q 316 524 407 429 q 224 767 224 620 q 287 939 224 876 q 451 1002 349 1002 q 619 936 559 1002 q 680 748 680 869 l 680 510 q 771 526 722 513 l 777 425 m 351 755 q 406 601 351 665 q 554 517 460 537 l 554 761 q 451 895 551 895 q 351 762 351 895 l 351 755 z "},"ϒ":{"ha":739,"x_min":-26,"x_max":769,"o":"m 372 525 l 524 869 q 590 966 553 936 q 685 996 626 996 q 769 977 734 996 l 745 875 q 709 880 736 880 q 637 827 662 880 l 436 387 l 436 0 l 307 0 l 307 388 l 106 827 q 34 880 79 880 q -1 875 7 880 l -26 977 q 58 996 9 996 q 154 967 117 996 q 218 876 190 939 l 372 525 z "},"ϕ":{"ha":1008,"x_min":68,"x_max":939,"o":"m 68 353 q 139 642 68 537 q 334 747 210 747 q 435 728 392 747 l 435 1042 l 561 1042 l 561 724 q 672 747 608 747 q 868 642 797 747 q 939 339 939 537 q 868 81 939 177 q 673 -14 798 -14 q 561 7 608 -14 l 561 -282 l 435 -282 l 435 5 q 333 -14 391 -14 q 139 81 210 -14 q 68 343 68 177 l 68 353 m 814 353 q 766 568 814 492 q 635 644 719 644 q 561 631 593 644 l 561 100 q 637 88 591 88 q 767 153 721 88 q 814 353 814 218 m 193 339 q 237 152 193 216 q 364 88 281 88 q 435 100 404 88 l 435 633 q 366 644 407 644 q 238 570 283 644 q 193 339 193 496 z "},"ϖ":{"ha":1090,"x_min":50,"x_max":1060,"o":"m 1060 630 l 968 630 q 1011 380 1011 513 q 947 91 1011 195 q 768 -14 884 -14 q 548 149 604 -14 q 329 -14 492 -14 q 150 90 214 -14 q 85 380 85 193 q 129 630 85 509 l 50 630 l 50 734 l 1060 734 l 1060 630 m 885 380 q 832 630 882 495 l 264 630 q 211 380 214 494 q 243 165 211 242 q 336 88 276 88 q 445 145 407 88 q 485 311 484 201 l 485 490 l 612 490 l 612 311 q 651 145 613 201 q 762 88 690 88 q 852 165 820 88 q 885 380 885 241 z "},"ϗ":{"ha":904,"x_min":20,"x_max":884,"o":"m 112 0 l 186 100 l 186 511 q 157 608 186 576 q 66 640 128 640 q 21 634 37 640 l 20 734 q 98 747 56 747 q 255 684 198 747 q 312 509 312 621 l 312 268 l 660 734 l 795 734 l 710 621 q 797 269 731 425 l 843 161 q 884 -35 884 62 q 825 -207 884 -144 q 665 -269 766 -269 q 585 -258 618 -269 l 585 -157 q 633 -163 606 -163 q 758 -35 758 -163 q 747 51 758 11 q 689 199 736 90 q 610 486 634 326 l 247 0 l 112 0 z "},"Ϙ":{"ha":955,"x_min":80,"x_max":874,"o":"m 874 462 q 785 137 874 262 q 543 -9 695 13 l 543 -282 l 412 -282 l 412 -8 q 170 141 260 16 q 80 465 80 267 l 80 524 q 130 776 80 667 q 270 943 179 885 q 477 1001 360 1001 q 686 944 595 1001 q 825 778 777 886 q 874 524 874 669 l 874 462 m 745 526 q 674 795 745 701 q 477 889 604 889 q 282 795 353 889 q 210 534 212 701 l 210 462 q 281 194 210 292 q 478 97 353 97 q 673 189 604 97 q 745 452 743 281 l 745 526 z "},"ϙ":{"ha":792,"x_min":62,"x_max":730,"o":"m 62 374 q 104 568 62 481 q 222 701 146 654 q 395 747 298 747 q 637 644 545 747 q 730 368 730 540 l 730 359 q 656 113 730 213 q 458 -8 583 14 l 458 -282 l 333 -282 l 333 -8 q 135 113 208 14 q 62 363 62 213 l 62 374 m 188 359 q 244 163 188 237 q 396 89 301 89 q 548 164 492 89 q 604 374 604 239 q 547 569 604 494 q 395 644 490 644 q 245 570 302 644 q 188 359 188 496 z "},"Ϛ":{"ha":904,"x_min":81,"x_max":841,"o":"m 600 -158 q 682 -96 682 -151 q 668 -53 682 -68 q 623 -28 654 -39 l 395 45 q 160 195 236 98 q 81 435 84 292 l 81 544 q 129 784 81 680 q 268 944 178 888 q 479 1001 359 1001 q 730 913 635 1001 q 841 670 825 825 l 710 670 q 637 840 694 786 q 479 894 579 894 q 282 803 353 894 q 212 542 212 711 l 212 449 q 262 268 212 340 q 422 159 313 196 l 666 77 q 813 -86 813 24 q 759 -209 813 -161 q 600 -266 705 -256 l 600 -158 z "},"ϛ":{"ha":727,"x_min":62,"x_max":684,"o":"m 467 -147 q 559 -83 559 -147 q 484 -12 559 -28 l 306 30 q 123 139 181 61 q 62 343 64 216 l 62 382 q 151 647 62 547 q 389 747 239 747 q 594 673 512 747 q 681 481 675 600 l 562 481 q 508 598 557 553 q 389 644 460 644 q 241 576 294 644 q 188 379 188 508 l 188 354 q 357 131 188 179 l 553 75 q 653 17 622 54 q 684 -79 684 -20 q 628 -208 684 -162 q 467 -253 572 -253 l 467 -147 z "},"Ϝ":{"ha":768,"x_min":115,"x_max":726,"o":"m 659 291 l 554 291 l 554 436 l 245 436 l 245 0 l 115 0 l 115 987 l 726 987 l 726 880 l 245 880 l 245 543 l 659 543 l 659 291 z "},"ϝ":{"ha":713,"x_min":104,"x_max":656,"o":"m 496 160 l 496 285 l 231 285 l 231 -282 l 104 -282 l 104 734 l 656 734 l 656 632 l 231 632 l 231 387 l 597 387 l 597 160 l 496 160 z "},"Ϟ":{"ha":852,"x_min":20,"x_max":831,"o":"m 117 204 l 171 762 l 172 783 q 52 907 172 905 l 34 907 l 20 905 l 31 1006 q 82 1010 56 1010 q 240 949 182 1010 q 297 778 297 888 l 295 730 l 266 473 l 728 866 l 750 858 l 683 256 l 680 203 q 708 120 680 151 q 798 88 737 88 l 831 90 l 821 -9 q 770 -14 795 -14 q 613 43 672 -14 q 554 192 554 100 q 564 322 554 237 l 595 583 l 136 197 l 117 204 z "},"ϟ":{"ha":724,"x_min":50,"x_max":673,"o":"m 476 0 l 340 0 l 511 437 l 50 437 l 50 475 l 247 987 l 382 987 l 211 540 l 673 540 l 673 504 l 476 0 z "},"Ϡ":{"ha":1046,"x_min":17,"x_max":966,"o":"m 756 743 q 473 894 660 894 q 253 816 334 894 q 148 595 173 739 l 17 595 q 97 813 35 720 q 255 954 159 907 q 473 1001 351 1001 q 836 840 706 1001 q 966 387 966 680 l 966 312 q 906 -11 966 128 q 735 -223 846 -149 q 475 -296 624 -296 l 475 -176 q 737 -54 640 -176 q 839 285 833 68 l 430 49 l 379 138 l 840 404 q 801 650 838 543 l 290 357 l 240 446 l 756 743 z "},"ϡ":{"ha":941,"x_min":37,"x_max":892,"o":"m 151 1059 q 582 770 421 936 q 818 367 743 604 q 892 -232 892 130 l 778 -296 q 765 2 778 -135 q 723 258 753 140 l 252 -14 l 202 75 l 692 359 q 581 578 648 481 l 99 300 l 49 390 l 517 661 q 315 838 433 755 q 37 995 197 920 l 151 1059 z "},"ϰ":{"ha":893,"x_min":20,"x_max":873,"o":"m 112 0 l 186 100 l 186 511 q 157 608 186 576 q 66 640 128 640 q 21 634 37 640 l 20 734 q 98 747 56 747 q 255 684 198 747 q 312 509 312 621 l 312 268 l 660 734 l 795 734 l 706 614 l 706 222 q 735 124 706 156 q 826 93 764 93 q 871 98 855 93 l 873 -1 q 794 -14 836 -14 q 637 50 693 -14 q 581 224 581 113 l 581 447 l 247 0 l 112 0 z "},"ϱ":{"ha":780,"x_min":62,"x_max":718,"o":"m 413 40 q 280 70 342 40 q 170 155 218 100 q 245 -14 187 49 q 422 -103 303 -77 l 486 -117 q 587 -153 547 -130 q 646 -218 626 -176 q 665 -320 665 -259 l 562 -320 q 531 -255 562 -279 q 397 -212 500 -231 q 149 -49 233 -180 q 62 302 65 83 l 62 388 q 102 574 62 492 q 218 701 143 656 q 390 747 292 747 q 627 648 536 747 q 718 382 718 549 l 718 372 q 634 133 718 225 q 413 40 551 40 m 389 143 q 537 205 482 143 q 592 377 592 268 l 592 388 q 538 574 592 505 q 390 644 484 644 q 243 575 298 644 q 188 384 188 507 l 188 372 q 242 205 188 268 q 389 143 296 143 z "},"ϵ":{"ha":624,"x_min":62,"x_max":597,"o":"m 469 315 l 189 315 q 246 158 196 212 q 385 102 296 103 l 597 102 l 597 0 l 389 0 q 150 94 237 0 q 62 359 62 189 l 62 381 q 148 636 62 540 q 385 734 234 732 l 596 734 l 596 631 l 384 631 q 245 573 295 629 q 189 418 195 517 l 469 418 l 469 315 z "},"϶":{"ha":624,"x_min":27,"x_max":562,"o":"m 155 418 l 435 418 q 377 575 427 521 q 242 631 327 629 l 28 631 l 28 734 l 234 734 q 474 639 387 734 q 562 375 562 544 l 562 353 q 477 98 562 193 q 243 0 392 3 l 27 0 l 27 102 l 233 102 q 435 315 418 102 l 155 315 l 155 418 z "},"ϻ":{"ha":1007,"x_min":95,"x_max":912,"o":"m 506 166 l 755 734 l 912 734 l 912 0 l 786 0 l 786 532 l 549 0 l 462 0 l 220 545 l 220 -282 l 95 -282 l 95 734 l 258 734 l 506 166 z "},"ϼ":{"ha":833,"x_min":16,"x_max":762,"o":"m 448 747 q 671 652 588 747 q 761 384 753 556 l 762 339 q 686 81 762 176 q 480 -14 610 -14 q 271 71 348 -14 l 271 -282 l 144 -282 l 144 393 q 183 581 144 500 q 291 704 221 661 q 448 747 360 747 m 271 189 q 443 89 327 89 q 585 155 534 89 q 636 353 636 221 q 587 568 636 492 q 448 644 538 644 q 319 571 368 644 q 271 383 271 498 l 271 189 m 447 -169 l 16 -169 l 16 -66 l 447 -66 l 447 -169 z "},"Ͻ":{"ha":904,"x_min":62,"x_max":823,"o":"m 193 317 q 267 146 210 199 q 426 93 323 93 q 622 186 551 93 q 692 446 692 279 l 692 543 q 625 799 692 705 q 437 894 557 894 q 270 844 327 894 q 193 673 212 794 l 62 673 q 179 916 81 831 q 437 1001 277 1001 q 637 946 550 1001 q 773 787 725 890 q 823 547 822 683 l 823 444 q 773 201 823 307 q 634 41 724 96 q 426 -14 544 -14 q 172 74 267 -14 q 62 317 78 162 l 193 317 z "},"Ͼ":{"ha":904,"x_min":81,"x_max":841,"o":"m 841 313 q 725 72 823 157 q 467 -14 628 -14 q 186 112 292 -14 q 81 448 81 237 l 81 543 q 130 785 81 680 q 269 945 179 889 q 478 1001 359 1001 q 730 913 635 1001 q 841 670 825 825 l 710 670 q 636 841 693 788 q 478 894 580 894 q 282 802 353 894 q 212 539 212 709 l 212 444 q 279 188 212 283 q 467 93 346 93 q 633 142 575 93 q 710 313 691 191 l 841 313 m 387 493 q 406 544 387 524 q 461 565 425 565 q 517 544 498 565 q 536 493 536 524 q 517 442 536 463 q 461 422 498 422 q 406 442 425 422 q 387 493 387 463 z "},"Ͽ":{"ha":904,"x_min":62,"x_max":823,"o":"m 193 317 q 267 146 210 199 q 426 93 323 93 q 622 186 551 93 q 692 446 692 279 l 692 543 q 625 799 692 705 q 437 894 557 894 q 270 844 327 894 q 193 673 212 794 l 62 673 q 179 916 81 831 q 437 1001 277 1001 q 637 946 550 1001 q 773 787 725 890 q 823 547 822 683 l 823 444 q 773 201 823 307 q 634 41 724 96 q 426 -14 544 -14 q 172 74 267 -14 q 62 317 78 162 l 193 317 m 420 422 q 365 442 384 422 q 347 493 347 463 q 365 544 347 524 q 420 565 384 565 q 476 544 457 565 q 495 493 495 524 q 476 442 495 463 q 420 422 457 422 z "},"Ђ":{"ha":1041,"x_min":28,"x_max":988,"o":"m 795 880 l 441 880 l 441 572 q 637 604 547 604 q 895 523 802 604 q 988 294 988 441 q 900 70 988 146 q 651 -7 812 -7 l 650 94 q 806 143 755 94 q 858 293 858 193 q 801 440 857 389 q 636 491 746 491 q 441 460 534 491 l 441 0 l 310 0 l 310 880 l 28 880 l 28 987 l 795 987 l 795 880 z "},"Є":{"ha":936,"x_min":83,"x_max":844,"o":"m 844 313 q 728 72 825 157 q 469 -14 631 -14 q 189 112 294 -14 q 83 448 83 237 l 83 542 q 132 783 83 678 q 271 944 180 888 q 481 1001 361 1001 q 733 913 638 1001 q 844 670 828 825 l 713 670 q 640 840 696 787 q 481 894 583 894 q 286 802 355 894 q 214 551 216 710 l 601 551 l 601 445 l 214 445 l 214 444 q 281 188 214 283 q 469 93 349 93 q 636 142 578 93 q 713 313 694 191 l 844 313 z "},"Љ":{"ha":1487,"x_min":33,"x_max":1429,"o":"m 856 987 l 856 604 l 1101 604 q 1340 521 1251 602 q 1429 302 1429 439 q 1341 85 1429 168 q 1103 0 1254 3 l 726 0 l 726 880 l 378 880 l 361 489 q 320 193 351 292 q 232 48 290 94 q 76 0 174 1 l 33 0 l 33 106 l 60 108 q 157 149 123 113 q 209 264 191 185 q 234 509 227 344 l 254 987 l 856 987 m 856 497 l 856 106 l 1094 106 q 1244 160 1189 106 q 1299 303 1299 214 q 1245 443 1299 390 q 1099 497 1192 496 l 856 497 z "},"Њ":{"ha":1500,"x_min":120,"x_max":1441,"o":"m 251 559 l 738 559 l 738 987 l 868 987 l 868 574 l 1114 574 q 1354 495 1267 572 q 1441 290 1441 418 q 1354 82 1441 161 q 1116 0 1267 3 l 738 0 l 738 453 l 251 453 l 251 0 l 120 0 l 120 987 l 251 987 l 251 559 m 868 467 l 868 113 l 1106 113 q 1257 161 1202 113 q 1311 292 1311 209 q 1259 418 1311 370 q 1114 467 1208 465 l 868 467 z "},"Ћ":{"ha":1130,"x_min":42,"x_max":1012,"o":"m 807 880 l 449 880 l 449 587 q 676 614 557 614 q 928 541 846 614 q 1012 317 1010 467 l 1012 0 l 881 0 l 881 313 q 834 462 880 416 q 676 507 787 507 q 449 479 562 507 l 449 0 l 319 0 l 319 880 l 42 880 l 42 987 l 807 987 l 807 880 z "},"Џ":{"ha":990,"x_min":119,"x_max":867,"o":"m 119 987 l 250 987 l 250 106 l 737 106 l 737 987 l 867 987 l 867 0 l 564 0 l 564 -243 l 433 -243 l 433 0 l 119 0 l 119 987 z "},"Б":{"ha":876,"x_min":110,"x_max":814,"o":"m 717 880 l 241 880 l 241 585 l 486 585 q 728 505 641 583 q 814 295 814 428 q 727 82 814 161 q 488 0 640 3 l 110 0 l 110 987 l 717 987 l 717 880 m 241 477 l 241 106 l 479 106 q 630 158 576 106 q 684 296 684 210 q 632 428 684 380 q 484 477 580 476 l 241 477 z "},"Д":{"ha":1044,"x_min":34,"x_max":1004,"o":"m 1003 -242 l 873 -242 l 873 0 l 165 0 l 165 -243 l 35 -243 l 34 106 l 115 106 q 216 299 178 178 q 263 565 254 420 l 285 987 l 876 987 l 876 106 l 1004 106 l 1003 -242 m 263 106 l 745 106 l 745 880 l 410 880 l 396 590 q 351 300 387 420 q 263 106 315 180 z "},"Ж":{"ha":1261,"x_min":18,"x_max":1251,"o":"m 808 450 l 703 450 l 703 0 l 572 0 l 572 450 l 460 450 l 181 0 l 18 0 l 351 521 l 44 987 l 198 987 l 460 559 l 572 559 l 572 987 l 703 987 l 703 559 l 810 559 l 1072 987 l 1225 987 l 919 522 l 1251 0 l 1089 0 l 808 450 z "},"З":{"ha":824,"x_min":54,"x_max":766,"o":"m 621 722 q 564 847 621 801 q 403 894 507 894 q 257 846 316 894 q 199 728 199 798 l 68 728 q 112 869 68 806 q 232 966 155 931 q 403 1001 309 1001 q 660 927 568 1001 q 751 720 751 852 q 709 595 751 652 q 592 507 667 539 q 766 275 766 448 q 667 64 766 142 q 403 -14 568 -14 q 224 21 304 -14 q 99 121 144 56 q 54 274 54 185 l 184 274 q 246 144 184 196 q 403 92 308 92 q 573 142 509 92 q 636 273 636 191 q 421 450 636 446 l 299 450 l 299 557 l 420 557 q 570 602 519 559 q 621 722 621 644 z "},"И":{"ha":990,"x_min":120,"x_max":867,"o":"m 737 987 l 867 987 l 867 0 l 737 0 l 737 761 l 251 0 l 120 0 l 120 987 l 251 987 l 251 227 l 737 987 z "},"Л":{"ha":983,"x_min":32,"x_max":861,"o":"m 861 987 l 861 0 l 731 0 l 731 880 l 377 880 l 359 489 q 319 193 349 292 q 231 48 289 94 q 75 0 172 1 l 32 0 l 32 106 l 59 108 q 156 149 122 113 q 208 264 190 185 q 233 509 225 344 l 253 987 l 861 987 z "},"У":{"ha":873,"x_min":52,"x_max":832,"o":"m 454 414 l 681 987 l 832 987 l 483 165 q 417 53 448 86 q 346 3 387 20 q 243 -14 304 -14 q 174 -8 189 -14 l 178 95 l 240 92 q 346 161 311 92 l 363 196 l 389 256 l 52 987 l 198 987 l 454 414 z "},"Ф":{"ha":1072,"x_min":56,"x_max":1022,"o":"m 602 888 l 623 888 q 827 836 735 888 q 971 694 920 785 q 1022 492 1022 604 q 970 288 1022 379 q 828 145 919 196 q 626 92 737 94 l 602 92 l 602 -41 l 476 -41 l 476 92 l 457 92 q 251 144 344 92 q 107 286 159 195 q 56 490 56 377 q 107 694 56 604 q 251 837 159 785 q 457 888 344 888 l 476 888 l 476 1028 l 602 1028 l 602 888 m 457 786 q 255 708 330 786 q 181 490 181 629 q 255 273 181 351 q 458 195 329 195 l 476 195 l 476 786 l 457 786 m 602 786 l 602 195 l 621 195 q 824 275 751 195 q 897 492 897 355 q 824 707 897 627 q 618 786 751 786 l 602 786 z "},"Ц":{"ha":1015,"x_min":119,"x_max":970,"o":"m 119 987 l 250 987 l 250 106 l 736 106 l 736 987 l 867 987 l 867 109 l 970 109 l 958 -238 l 841 -238 l 841 0 l 119 0 l 119 987 z "},"Ч":{"ha":951,"x_min":102,"x_max":830,"o":"m 830 987 l 830 0 l 699 0 l 699 409 q 570 381 628 389 q 437 373 511 373 q 186 446 268 373 q 102 671 104 519 l 102 987 l 233 987 l 233 674 q 280 526 233 571 q 437 480 326 480 q 699 517 566 480 l 699 987 l 830 987 z "},"Ш":{"ha":1307,"x_min":119,"x_max":1187,"o":"m 250 987 l 250 106 l 590 106 l 590 987 l 720 987 l 720 106 l 1057 106 l 1057 987 l 1187 987 l 1187 0 l 119 0 l 119 987 l 250 987 z "},"Щ":{"ha":1345,"x_min":119,"x_max":1287,"o":"m 250 987 l 250 106 l 590 106 l 590 987 l 720 987 l 720 106 l 1057 106 l 1057 987 l 1187 987 l 1187 102 l 1287 102 l 1275 -238 l 1163 -238 l 1163 0 l 119 0 l 119 987 l 250 987 z "},"Ъ":{"ha":1054,"x_min":11,"x_max":993,"o":"m 11 987 l 420 987 l 420 585 l 654 585 q 905 507 817 585 q 993 295 993 429 q 905 82 993 161 q 665 0 818 2 l 289 0 l 289 884 l 11 884 l 11 987 m 420 477 l 420 106 l 658 106 q 808 158 754 106 q 862 296 862 210 q 810 428 862 380 q 663 477 758 476 l 420 477 z "},"Ы":{"ha":1201,"x_min":121,"x_max":1074,"o":"m 251 585 l 496 585 q 738 505 651 583 q 825 295 825 428 q 737 82 825 161 q 498 0 650 3 l 121 0 l 121 987 l 251 987 l 251 585 m 251 477 l 251 106 l 489 106 q 640 158 586 106 q 694 296 694 210 q 642 428 694 380 q 494 477 590 476 l 251 477 m 1074 0 l 944 0 l 944 987 l 1074 987 l 1074 0 z "},"Ь":{"ha":871,"x_min":111,"x_max":814,"o":"m 241 585 l 486 585 q 728 505 641 583 q 814 295 814 428 q 727 82 814 161 q 488 0 640 3 l 111 0 l 111 987 l 241 987 l 241 585 m 241 477 l 241 106 l 479 106 q 630 158 576 106 q 684 296 684 210 q 632 428 684 380 q 484 477 580 476 l 241 477 z "},"Э":{"ha":936,"x_min":100,"x_max":860,"o":"m 231 313 q 308 142 250 191 q 474 93 366 93 q 660 184 591 93 q 729 439 728 276 l 340 439 l 340 546 l 729 546 q 659 800 729 707 q 463 894 589 894 q 304 841 361 894 q 231 670 248 788 l 100 670 q 210 913 115 825 q 463 1001 305 1001 q 672 944 582 1001 q 811 783 763 888 q 860 542 860 678 l 860 444 q 812 203 860 307 q 676 42 764 98 q 474 -14 588 -14 q 215 72 313 -14 q 100 313 118 157 l 231 313 z "},"Ю":{"ha":1242,"x_min":124,"x_max":1190,"o":"m 1190 462 q 1141 209 1190 317 q 1002 43 1092 100 q 793 -14 913 -14 q 592 41 681 -14 q 452 196 503 95 q 396 432 401 297 l 254 432 l 254 0 l 124 0 l 124 987 l 254 987 l 254 534 l 395 534 q 446 780 397 674 q 585 943 495 885 q 792 1001 675 1001 q 1001 944 911 1001 q 1141 778 1092 886 q 1190 524 1190 669 l 1190 462 m 1060 526 q 989 795 1060 701 q 792 889 919 889 q 598 795 669 889 q 525 534 527 701 l 525 462 q 596 194 525 292 q 793 97 668 97 q 989 189 920 97 q 1060 452 1058 281 l 1060 526 z "},"Я":{"ha":884,"x_min":60,"x_max":762,"o":"m 631 0 l 631 385 l 404 385 l 199 0 l 60 0 l 290 420 q 98 690 98 496 q 191 909 98 831 q 448 987 283 987 l 762 987 l 762 0 l 631 0 m 229 690 q 284 546 229 600 q 440 491 340 492 l 631 491 l 631 880 l 446 880 q 284 830 340 880 q 229 690 229 780 z "},"б":{"ha":768,"x_min":66,"x_max":722,"o":"m 417 692 q 638 599 555 692 q 722 355 722 507 l 722 344 q 682 158 722 240 q 567 32 642 77 q 394 -14 492 -14 q 156 85 246 -14 q 66 350 66 184 l 66 411 q 152 779 66 642 q 405 945 237 915 q 533 986 500 962 q 566 1053 566 1010 l 669 1053 q 631 921 669 968 q 509 854 593 873 l 415 833 q 247 744 303 806 q 174 576 191 681 q 417 692 274 692 m 393 589 q 246 527 300 589 q 192 355 192 465 l 192 344 q 247 157 192 226 q 394 88 301 88 q 542 157 488 88 q 596 359 596 227 q 542 526 596 463 q 393 589 487 589 z "},"в":{"ha":793,"x_min":106,"x_max":722,"o":"m 106 0 l 106 734 l 393 734 q 617 683 539 734 q 696 532 696 631 q 665 440 696 481 q 575 378 635 399 q 682 317 642 362 q 722 208 722 271 q 648 54 722 107 q 438 0 574 0 l 106 0 m 232 322 l 232 101 l 439 101 q 557 130 518 101 q 596 212 596 159 q 435 322 596 322 l 232 322 m 232 422 l 394 422 q 570 526 570 422 q 404 632 570 629 l 232 632 l 232 422 z "},"г":{"ha":583,"x_min":104,"x_max":569,"o":"m 569 630 l 231 630 l 231 0 l 104 0 l 104 734 l 569 734 l 569 630 z "},"д":{"ha":838,"x_min":31,"x_max":794,"o":"m 89 102 l 132 156 q 216 441 205 251 l 227 734 l 700 734 l 700 102 l 794 102 l 794 -216 l 669 -216 l 669 0 l 157 0 l 157 -216 l 31 -216 l 32 102 l 89 102 m 237 102 l 574 102 l 574 618 l 349 618 l 341 443 q 237 102 330 224 z "},"ж":{"ha":1063,"x_min":14,"x_max":1044,"o":"m 680 319 l 592 319 l 592 0 l 467 0 l 467 319 l 378 319 l 173 0 l 14 0 l 277 380 l 39 734 l 191 734 l 380 430 l 467 430 l 467 734 l 592 734 l 592 430 l 677 430 l 868 734 l 1020 734 l 782 379 l 1044 0 l 886 0 l 680 319 z "},"з":{"ha":705,"x_min":60,"x_max":637,"o":"m 498 533 q 459 615 498 585 q 351 645 420 645 q 240 610 285 645 q 196 529 196 576 l 71 529 q 151 686 71 625 q 351 747 231 747 q 552 691 480 747 q 624 534 624 636 q 594 443 624 484 q 509 377 564 401 q 637 206 637 334 q 559 46 637 105 q 351 -13 481 -13 q 142 49 224 -13 q 60 217 60 111 l 184 217 q 232 125 184 163 q 351 87 280 87 q 467 120 423 87 q 511 206 511 153 q 474 295 511 268 q 359 321 437 321 l 234 321 l 234 427 l 370 427 q 498 533 498 431 z "},"и":{"ha":802,"x_min":106,"x_max":695,"o":"m 570 734 l 695 734 l 695 0 l 570 0 l 570 535 l 231 0 l 106 0 l 106 734 l 231 734 l 231 198 l 570 734 z "},"к":{"ha":750,"x_min":106,"x_max":737,"o":"m 323 313 l 232 313 l 232 0 l 106 0 l 106 734 l 232 734 l 232 423 l 314 423 l 561 734 l 713 734 l 422 381 l 737 0 l 578 0 l 323 313 z "},"л":{"ha":803,"x_min":30,"x_max":696,"o":"m 696 734 l 696 0 l 570 0 l 570 630 l 321 630 l 306 355 q 242 85 294 166 q 80 0 191 3 l 30 0 l 30 111 l 66 113 q 153 184 127 120 q 187 420 180 248 l 201 734 l 696 734 z "},"м":{"ha":1030,"x_min":106,"x_max":924,"o":"m 517 166 l 767 734 l 924 734 l 924 0 l 798 0 l 798 534 l 561 0 l 474 0 l 232 545 l 232 0 l 106 0 l 106 734 l 269 734 l 517 166 z "},"н":{"ha":801,"x_min":106,"x_max":694,"o":"m 694 0 l 569 0 l 569 313 l 232 313 l 232 0 l 106 0 l 106 734 l 232 734 l 232 416 l 569 416 l 569 734 l 694 734 l 694 0 z "},"п":{"ha":802,"x_min":106,"x_max":695,"o":"m 695 0 l 570 0 l 570 630 l 232 630 l 232 0 l 106 0 l 106 734 l 695 734 l 695 0 z "},"т":{"ha":667,"x_min":27,"x_max":640,"o":"m 640 632 l 394 632 l 394 0 l 269 0 l 269 632 l 27 632 l 27 734 l 640 734 l 640 632 z "}}}
